G04 EAGLE Gerber RS-274X export*
G75*
%MOMM*%
%FSLAX34Y34*%
%LPD*%
%INTop Copper*%
%IPPOS*%
%AMOC8*
5,1,8,0,0,1.08239X$1,22.5*%
G01*
G04 Define Apertures*
%ADD10R,0.961800X1.711800*%
%ADD11R,1.164600X1.815300*%
%ADD12C,1.930400*%
%ADD13R,1.270000X1.780000*%
%ADD14R,1.549400X0.660400*%
%ADD15R,1.905000X1.295400*%
%ADD16R,1.550000X0.600000*%
%ADD17R,0.900000X0.400000*%
%ADD18C,1.524000*%
%ADD19R,0.660400X1.549400*%
%ADD20R,1.295400X1.905000*%
%ADD21R,1.815300X1.164600*%
%ADD22C,0.203200*%
%ADD23C,1.100000*%
D10*
X393552Y133044D03*
X424052Y133044D03*
D11*
X423077Y190923D03*
X393569Y190923D03*
D10*
X349685Y134148D03*
X319185Y134148D03*
X199484Y133290D03*
X168984Y133290D03*
X125761Y133290D03*
X95261Y133290D03*
X277872Y135322D03*
X247372Y135322D03*
D11*
X320547Y190694D03*
X350055Y190694D03*
X250697Y191033D03*
X280205Y191033D03*
X170687Y190101D03*
X200195Y190101D03*
X100837Y190440D03*
X130345Y190440D03*
D12*
X507492Y280286D03*
X507492Y305686D03*
X507492Y331086D03*
X507492Y356486D03*
X507492Y381886D03*
X507492Y407286D03*
X507492Y432686D03*
X507492Y458086D03*
X507492Y508886D03*
X507492Y534286D03*
X507492Y559686D03*
X507492Y585086D03*
X507492Y610486D03*
X507492Y635886D03*
X24892Y635886D03*
X24892Y610486D03*
X24892Y585086D03*
X24892Y559686D03*
X24892Y534286D03*
X24892Y508886D03*
X24892Y483486D03*
X24892Y458086D03*
X24892Y417446D03*
X24892Y392046D03*
X24892Y366646D03*
X24892Y341246D03*
X24892Y315846D03*
X24892Y290446D03*
X24892Y265046D03*
X24892Y239646D03*
X24892Y214246D03*
X24892Y188846D03*
X228592Y637286D03*
X228592Y662686D03*
X253992Y637286D03*
X253992Y662686D03*
X279392Y637286D03*
X279392Y662686D03*
D13*
X406400Y572770D03*
X406400Y534670D03*
X431800Y534670D03*
X431800Y572770D03*
X297180Y572770D03*
X297180Y534670D03*
X322580Y534670D03*
X322580Y572770D03*
D14*
X472126Y238440D03*
X472126Y228440D03*
X472126Y218440D03*
X472126Y208440D03*
X472126Y198440D03*
D15*
X497376Y185440D03*
X497376Y251440D03*
D14*
X474666Y83500D03*
X474666Y73500D03*
X474666Y63500D03*
X474666Y53500D03*
X474666Y43500D03*
D15*
X499916Y30500D03*
X499916Y96500D03*
D16*
X239700Y349250D03*
X239700Y336550D03*
X239700Y323850D03*
X239700Y311150D03*
X293700Y311150D03*
X293700Y323850D03*
X293700Y336550D03*
X293700Y349250D03*
D17*
X123620Y407820D03*
X123620Y401320D03*
X123620Y394820D03*
X145620Y394820D03*
X145620Y401320D03*
X145620Y407820D03*
X372540Y410360D03*
X372540Y403860D03*
X372540Y397360D03*
X394540Y397360D03*
X394540Y403860D03*
X394540Y410360D03*
D11*
X119866Y347980D03*
X149374Y347980D03*
X124946Y284480D03*
X154454Y284480D03*
X368786Y345440D03*
X398294Y345440D03*
X398294Y284480D03*
X368786Y284480D03*
D18*
X218440Y58420D02*
X218440Y43180D01*
X193040Y43180D02*
X193040Y58420D01*
X167640Y58420D02*
X167640Y43180D01*
X142240Y43180D02*
X142240Y58420D01*
X116840Y58420D02*
X116840Y43180D01*
X91440Y43180D02*
X91440Y58420D01*
X66040Y58420D02*
X66040Y43180D01*
X40640Y43180D02*
X40640Y58420D01*
D13*
X81280Y626110D03*
X81280Y588010D03*
X106680Y588010D03*
X106680Y626110D03*
X193040Y570230D03*
X193040Y532130D03*
X218440Y532130D03*
X218440Y570230D03*
D18*
X177792Y477961D02*
X177792Y462721D01*
X203192Y462721D02*
X203192Y477961D01*
X228592Y477961D02*
X228592Y462721D01*
X253992Y462721D02*
X253992Y477961D01*
X279392Y477961D02*
X279392Y462721D01*
X304792Y462721D02*
X304792Y477961D01*
X330192Y477961D02*
X330192Y462721D01*
X355592Y462721D02*
X355592Y477961D01*
X380992Y477961D02*
X380992Y462721D01*
D19*
X365440Y61274D03*
X355440Y61274D03*
X345440Y61274D03*
X335440Y61274D03*
X325440Y61274D03*
D20*
X312440Y36024D03*
X378440Y36024D03*
D21*
X332740Y386566D03*
X332740Y416074D03*
D11*
X434826Y411480D03*
X464334Y411480D03*
D21*
X261620Y36046D03*
X261620Y65554D03*
X31499Y81766D03*
X31499Y111274D03*
D22*
X423077Y190923D02*
X423077Y194177D01*
X423077Y190923D02*
X423077Y190500D01*
X423077Y187670D01*
X320547Y190694D02*
X320547Y193948D01*
X423077Y194177D02*
X423077Y190923D01*
X250697Y191033D02*
X250697Y194286D01*
X264140Y207729D01*
X306765Y207729D01*
X320547Y193948D01*
X320547Y190694D01*
X170687Y190101D02*
X170687Y193355D01*
X184130Y206798D01*
X238185Y206798D01*
X250697Y194286D01*
X250697Y191033D01*
X100837Y190440D02*
X100837Y206394D01*
X104120Y209677D01*
X154365Y209677D01*
X170687Y193355D01*
X170687Y190101D01*
X454660Y103506D02*
X474666Y83500D01*
X454660Y103506D02*
X454660Y170180D01*
X434340Y190500D01*
X423077Y190500D01*
X464186Y93980D02*
X474666Y83500D01*
X464186Y93980D02*
X441960Y93980D01*
X378460Y93980D01*
X368300Y83820D01*
X368300Y71120D01*
X365440Y68260D01*
X365440Y61274D01*
X123620Y401320D02*
X116840Y401320D01*
X109220Y408940D01*
X109220Y472440D01*
X129540Y492760D01*
X132080Y495300D01*
X203200Y495300D01*
X203200Y470348D01*
X203192Y470341D01*
D23*
X439420Y251460D03*
D22*
X457360Y228440D02*
X472126Y228440D01*
X457360Y228440D02*
X452120Y233680D01*
X452120Y248920D01*
X449580Y251460D01*
X439420Y251460D01*
X431800Y251460D01*
X424180Y243840D01*
X423077Y242737D01*
X423077Y187670D01*
X239700Y311150D02*
X238430Y309880D01*
X180340Y309880D01*
D23*
X180340Y309880D03*
D22*
X358140Y403860D02*
X372540Y403860D01*
X358140Y403860D02*
X355600Y401320D01*
X355600Y396240D01*
D23*
X355600Y396240D03*
D22*
X320547Y248413D02*
X320547Y190694D01*
X320547Y248413D02*
X314960Y254000D01*
D23*
X314960Y254000D03*
D22*
X323215Y572135D02*
X322580Y572770D01*
X322580Y571500D02*
X320040Y568960D01*
X322580Y571500D02*
X323215Y572135D01*
X237490Y513080D02*
X218440Y532130D01*
X237490Y513080D02*
X254000Y513080D01*
X300990Y513080D01*
X322580Y534670D01*
X344170Y513080D01*
X414020Y513080D01*
X431800Y530860D01*
X431800Y534670D01*
X133350Y626110D02*
X106680Y626110D01*
X133350Y626110D02*
X134620Y627380D01*
D23*
X134620Y627380D03*
D22*
X431800Y534670D02*
X431800Y500380D01*
D23*
X431800Y500380D03*
D22*
X261620Y65554D02*
X233194Y65554D01*
X218440Y50800D01*
X31499Y111274D02*
X15240Y95015D01*
X15240Y93980D01*
X15240Y53340D01*
X17780Y50800D01*
X40640Y50800D01*
X393552Y133044D02*
X393569Y133061D01*
X393569Y190923D01*
X393569Y133061D02*
X393552Y133044D01*
X350055Y134518D02*
X349685Y134148D01*
X350055Y134518D02*
X350055Y190694D01*
X350055Y134518D02*
X349685Y134148D01*
X280205Y191033D02*
X277872Y188701D01*
X277872Y135322D01*
X200195Y134001D02*
X199484Y133290D01*
X200195Y134001D02*
X200195Y190101D01*
X200195Y134001D02*
X199484Y133290D01*
X130345Y137874D02*
X130345Y190440D01*
X130345Y137874D02*
X125761Y133290D01*
X406400Y572770D02*
X400050Y579120D01*
X358140Y579120D01*
X345440Y591820D01*
X134620Y596900D02*
X124460Y607060D01*
X33906Y585086D02*
X24892Y585086D01*
X55880Y607060D02*
X124460Y607060D01*
X55880Y607060D02*
X33906Y585086D01*
X243840Y596900D02*
X248920Y591820D01*
X248920Y576580D01*
X243840Y596900D02*
X134620Y596900D01*
X287020Y591820D02*
X345440Y591820D01*
X287020Y591820D02*
X279400Y584200D01*
X279400Y571500D01*
X254000Y571500D01*
X248920Y576580D01*
X93980Y373866D02*
X119866Y347980D01*
X93980Y373866D02*
X93980Y472440D01*
X82934Y483486D01*
X24892Y483486D01*
X119866Y347980D02*
X119866Y335766D01*
X109220Y325120D01*
X109220Y266700D01*
X114300Y261620D01*
X132080Y261620D01*
X139700Y269240D01*
X154454Y283994D01*
X154454Y284480D01*
D23*
X177800Y266700D03*
D22*
X172234Y266700D02*
X154454Y284480D01*
X172234Y266700D02*
X177800Y266700D01*
X154454Y284480D02*
X241300Y284480D01*
X256540Y299720D01*
X256540Y337820D01*
X245110Y349250D01*
X239700Y349250D01*
X37214Y417446D02*
X24892Y417446D01*
X37214Y417446D02*
X99060Y355600D01*
X99060Y226060D01*
X233680Y226060D02*
X236220Y228600D01*
X233680Y226060D02*
X99060Y226060D01*
D23*
X236220Y228600D03*
X233680Y162560D03*
D22*
X233680Y137160D01*
X236220Y134620D01*
X246670Y134620D01*
X247372Y135322D01*
X152805Y117111D02*
X81280Y117111D01*
X152805Y117111D02*
X168984Y133290D01*
X73660Y267078D02*
X24892Y315846D01*
X73660Y267078D02*
X73660Y218440D01*
X73660Y124731D01*
X81280Y117111D01*
X200660Y364950D02*
X205740Y364950D01*
X281940Y364950D01*
X372540Y410360D02*
X394540Y410360D01*
X145620Y407820D02*
X123620Y407820D01*
X364340Y410360D02*
X372540Y410360D01*
X364340Y410360D02*
X358140Y416560D01*
X333226Y416560D01*
X332740Y416074D01*
X177792Y424172D02*
X177792Y470341D01*
X177792Y424172D02*
X162560Y408940D01*
X161440Y407820D01*
X145620Y407820D01*
X472126Y321120D02*
X472126Y238440D01*
X472126Y321120D02*
X507492Y356486D01*
X464334Y411480D02*
X464334Y434826D01*
X441960Y457200D01*
X421640Y457200D01*
X416560Y452120D01*
X394540Y430100D01*
X394540Y410360D01*
X332740Y416074D02*
X301774Y447040D01*
X287020Y447040D01*
X281940Y441960D01*
X281940Y378460D01*
X281940Y364950D01*
X166344Y364950D02*
X149374Y347980D01*
X166344Y364950D02*
X200660Y364950D01*
X194160Y407820D02*
X145620Y407820D01*
X194160Y407820D02*
X198120Y403860D01*
X205740Y396240D01*
X205740Y364950D01*
X472126Y238440D02*
X482920Y238440D01*
X492760Y228600D01*
X492760Y200660D01*
X482600Y190500D01*
X464820Y172720D01*
X464820Y154940D01*
X464820Y124460D01*
X464820Y111760D01*
X487680Y88900D01*
X487680Y58420D01*
X482600Y53340D01*
X474826Y53340D01*
X474666Y53500D01*
X424052Y133044D02*
X431800Y140792D01*
X431800Y154940D01*
D23*
X431800Y154940D03*
X480060Y160020D03*
D22*
X474980Y154940D01*
X464820Y154940D01*
X464334Y406400D02*
X464334Y411480D01*
X464334Y406400D02*
X464334Y401320D01*
X464334Y400834D01*
X507492Y356486D02*
X504952Y353946D01*
X504952Y356486D02*
X507492Y356486D01*
X504952Y356486D02*
X495678Y365760D01*
X480060Y365760D01*
X464334Y381486D01*
X464334Y393700D01*
X464334Y401320D01*
X421640Y368786D02*
X398294Y345440D01*
X421640Y368786D02*
X421640Y386080D01*
X429260Y393700D01*
X464334Y393700D01*
D23*
X60960Y233680D03*
D22*
X44326Y233680D01*
X24892Y214246D01*
D23*
X172720Y391160D03*
D22*
X160020Y391160D01*
X157480Y393700D01*
X156360Y394820D01*
X145620Y394820D01*
D23*
X439420Y210820D03*
D22*
X441800Y208440D02*
X472126Y208440D01*
X441800Y208440D02*
X439420Y210820D01*
D23*
X48260Y213360D03*
D22*
X48260Y212214D01*
X24892Y188846D01*
D23*
X109220Y383540D03*
D22*
X109220Y391160D01*
X111760Y393700D01*
X112880Y394820D01*
X123620Y394820D01*
D23*
X439420Y231140D03*
D22*
X452120Y218440D02*
X472126Y218440D01*
X452120Y218440D02*
X439420Y231140D01*
D23*
X434340Y73660D03*
D22*
X434500Y73500D02*
X474666Y73500D01*
X434500Y73500D02*
X434340Y73660D01*
D23*
X200660Y342900D03*
D22*
X222250Y336550D02*
X239700Y336550D01*
X222250Y336550D02*
X215900Y342900D01*
X200660Y342900D01*
X476126Y477520D02*
X507492Y508886D01*
X476126Y477520D02*
X424180Y477520D01*
X419100Y472440D01*
X373380Y426720D01*
X335280Y426720D01*
X320040Y441960D01*
X309880Y452120D01*
X279400Y452120D01*
X223520Y396240D01*
X223520Y381000D01*
X223520Y378460D01*
D23*
X223520Y378460D03*
X434340Y55880D03*
D22*
X457200Y63500D02*
X474666Y63500D01*
X457200Y63500D02*
X452120Y58420D01*
X449580Y55880D01*
X434340Y55880D01*
D23*
X337820Y322580D03*
X480060Y353060D03*
X457200Y322580D03*
X386080Y312420D03*
D22*
X381000Y307340D01*
X381000Y279400D01*
X381000Y278202D01*
X369498Y266700D01*
X360680Y266700D01*
X350520Y276860D01*
X350520Y279400D01*
X350520Y309880D01*
X337820Y322580D01*
X294970Y322580D01*
X293700Y323850D01*
X480060Y345440D02*
X480060Y353060D01*
X480060Y345440D02*
X457200Y322580D01*
X239700Y323850D02*
X161063Y323850D01*
X124946Y287734D01*
X124946Y284480D01*
X141683Y401320D02*
X145620Y401320D01*
X141683Y401320D02*
X133592Y393228D01*
X133592Y296379D01*
X124946Y287734D01*
X124946Y284480D01*
X124946Y287734D01*
D23*
X147320Y236220D03*
D22*
X142240Y241300D01*
D23*
X121920Y312420D03*
D22*
X124946Y309394D01*
X124946Y284480D01*
D23*
X111760Y241720D03*
D22*
X112180Y241300D02*
X142240Y241300D01*
X112180Y241300D02*
X111760Y241720D01*
X261620Y36046D02*
X245894Y20320D01*
X175260Y20320D01*
X96520Y20320D01*
X93980Y22860D01*
X91440Y25400D01*
X91440Y50800D01*
X383540Y401320D02*
X386080Y403860D01*
X394540Y403860D01*
X398294Y284480D02*
X375434Y261620D01*
X342900Y261620D01*
X327660Y261620D01*
X299720Y289560D01*
X293700Y295580D01*
X293700Y311150D01*
X66040Y71120D02*
X66040Y50800D01*
X66040Y71120D02*
X78740Y83820D01*
X294640Y83820D01*
D23*
X294640Y83820D03*
X293370Y262890D03*
D22*
X293370Y295250D01*
X293700Y295580D01*
X383540Y326330D02*
X383540Y401320D01*
X398294Y311576D02*
X398294Y284480D01*
X398294Y311576D02*
X383540Y326330D01*
X42145Y71120D02*
X31499Y81766D01*
X42145Y71120D02*
X53340Y71120D01*
X66040Y58420D01*
X66040Y50800D01*
X319185Y132080D02*
X319185Y134148D01*
X52454Y392046D02*
X24892Y392046D01*
X52454Y392046D02*
X73660Y370840D01*
X74930Y369570D01*
X88900Y355600D01*
X91440Y353060D01*
X91440Y223520D01*
X96520Y218440D01*
X309880Y218440D01*
D23*
X309880Y218440D03*
X309880Y162560D03*
D22*
X309880Y142240D01*
X309880Y141385D01*
X319185Y132080D01*
X236220Y589280D02*
X228600Y589280D01*
X160020Y589280D01*
X149860Y579120D01*
X119380Y548640D01*
X71120Y548640D01*
X53340Y548640D01*
X40640Y561340D01*
X26546Y561340D01*
X24892Y559686D01*
X236220Y589280D02*
X241300Y584200D01*
X241300Y566420D01*
X243840Y563880D01*
X274320Y563880D01*
X288290Y563880D01*
X297180Y572770D01*
X368786Y345440D02*
X368786Y342187D01*
X363150Y336550D01*
X325120Y336550D01*
X368786Y342187D02*
X368786Y345440D01*
X365621Y340448D01*
X363150Y336550D01*
X317500Y336550D02*
X293700Y336550D01*
D23*
X53340Y457200D03*
D22*
X317500Y336550D02*
X325120Y336550D01*
X52454Y458086D02*
X24892Y458086D01*
X52454Y458086D02*
X53340Y457200D01*
D23*
X294640Y434340D03*
D22*
X309880Y344170D02*
X317500Y336550D01*
X309880Y344170D02*
X309880Y424180D01*
X299720Y434340D01*
X294640Y434340D01*
X368786Y337283D02*
X368786Y289560D01*
X368786Y337283D02*
X365621Y340448D01*
X368786Y289560D02*
X368786Y284480D01*
X278130Y336550D02*
X276860Y335280D01*
X271780Y330200D01*
X269240Y327660D01*
X269240Y276860D01*
X264160Y271780D01*
X220980Y271780D01*
D23*
X220980Y271780D03*
D22*
X278130Y336550D02*
X293700Y336550D01*
D23*
X81280Y558800D03*
D22*
X81280Y588010D01*
X24892Y508886D02*
X153286Y508886D01*
X165100Y520700D01*
X176530Y532130D01*
X193040Y532130D01*
X253992Y601988D02*
X253992Y637286D01*
X253992Y601988D02*
X259080Y596900D01*
X259080Y584200D01*
D23*
X259080Y584200D03*
X365760Y594360D03*
D22*
X365760Y645160D01*
X363220Y647700D01*
D23*
X363220Y647700D03*
D22*
X33398Y525780D02*
X24892Y534286D01*
X33398Y525780D02*
X149860Y525780D01*
X152400Y525780D01*
X175260Y548640D01*
X203200Y548640D01*
X205740Y546100D01*
X205740Y508000D01*
X213360Y500380D01*
X292100Y500380D01*
X304792Y487688D01*
X304792Y470341D01*
X355440Y83660D02*
X355440Y61274D01*
X355440Y83660D02*
X373380Y101600D01*
X381000Y109220D01*
X381000Y142240D01*
X381000Y208280D01*
X396240Y223520D01*
X411480Y223520D01*
X416560Y228600D01*
X416560Y264160D01*
X424180Y271780D01*
X441960Y271780D01*
D23*
X452120Y373380D03*
D22*
X444500Y365760D01*
X444500Y299720D01*
X454660Y289560D01*
X454660Y284480D01*
X441960Y271780D01*
X81280Y310258D02*
X24892Y366646D01*
X81280Y310258D02*
X81280Y223520D01*
X81280Y213360D01*
X342900Y63814D02*
X345440Y61274D01*
X342900Y63814D02*
X342900Y99060D01*
X340360Y101600D01*
X63500Y101600D01*
X58420Y101600D01*
D23*
X58420Y101600D03*
D22*
X81280Y172720D02*
X81280Y213360D01*
X81280Y172720D02*
X91440Y162560D01*
D23*
X91440Y162560D03*
D22*
X114300Y152329D02*
X95261Y133290D01*
X114300Y152329D02*
X114300Y198120D01*
X119380Y203200D01*
X144780Y203200D01*
X147320Y203200D01*
X154940Y195580D01*
X157480Y193040D01*
X157480Y154940D01*
X162560Y149860D01*
X180340Y149860D01*
X185420Y144780D01*
X185420Y139700D01*
X185420Y119380D01*
X190500Y114300D01*
X363220Y114300D01*
X370840Y121920D01*
X370840Y160020D01*
X370840Y210820D01*
X373380Y213360D01*
X398780Y238760D01*
X406400Y238760D01*
X408940Y241300D01*
X408940Y259080D01*
X408940Y271780D01*
X431800Y294640D02*
X431800Y375920D01*
D23*
X431800Y375920D03*
D22*
X431800Y294640D02*
X408940Y271780D01*
X434340Y411480D02*
X434826Y411480D01*
X434340Y411480D02*
X414020Y391160D01*
X400740Y391160D01*
X394540Y397360D01*
D23*
X426720Y444500D03*
D22*
X431800Y414506D02*
X434826Y411480D01*
X431800Y439420D02*
X426720Y444500D01*
X431800Y439420D02*
X431800Y414506D01*
X372540Y397360D02*
X372540Y382120D01*
X364286Y373866D01*
X345440Y373866D01*
X332740Y386566D01*
D23*
X332740Y365760D03*
D22*
X332740Y386566D01*
X486794Y381886D02*
X507492Y381886D01*
X486794Y381886D02*
X485140Y383540D01*
X485140Y436880D01*
X485140Y447040D01*
X469900Y462280D01*
X457200Y462280D01*
X452120Y467360D01*
X441960Y467360D01*
D23*
X439420Y467360D03*
X294640Y368300D03*
D22*
X294640Y350190D01*
X293700Y349250D01*
M02*
