G04 EAGLE Gerber RS-274X export*
G75*
%MOMM*%
%FSLAX34Y34*%
%LPD*%
%INBottom Copper*%
%IPPOS*%
%AMOC8*
5,1,8,0,0,1.08239X$1,22.5*%
G01*
G04 Define Apertures*
%ADD10C,1.930400*%
%ADD11C,1.524000*%
%ADD12C,1.100000*%
%ADD13C,0.203200*%
G36*
X200947Y10982D02*
X200649Y10922D01*
X11684Y10922D01*
X11409Y10973D01*
X11154Y11137D01*
X10982Y11387D01*
X10922Y11684D01*
X10922Y129969D01*
X11012Y130329D01*
X11206Y130562D01*
X11475Y130702D01*
X11777Y130725D01*
X12065Y130629D01*
X14843Y129025D01*
X21464Y127251D01*
X28320Y127251D01*
X34941Y129025D01*
X40878Y132453D01*
X45725Y137300D01*
X49153Y143237D01*
X50927Y149858D01*
X50927Y156714D01*
X49153Y163335D01*
X45725Y169272D01*
X40878Y174119D01*
X34941Y177547D01*
X32977Y178073D01*
X32653Y178253D01*
X32478Y178501D01*
X32413Y178797D01*
X32468Y179095D01*
X32636Y179348D01*
X35228Y181940D01*
X37084Y186421D01*
X37084Y191271D01*
X35228Y195752D01*
X31798Y199182D01*
X27790Y200842D01*
X27565Y200986D01*
X27388Y201232D01*
X27320Y201528D01*
X27373Y201826D01*
X27539Y202080D01*
X27790Y202250D01*
X31798Y203910D01*
X35228Y207340D01*
X37084Y211821D01*
X37084Y216671D01*
X35228Y221152D01*
X31798Y224582D01*
X27790Y226242D01*
X27565Y226386D01*
X27388Y226632D01*
X27320Y226928D01*
X27373Y227226D01*
X27539Y227480D01*
X27790Y227650D01*
X31798Y229310D01*
X35228Y232740D01*
X37084Y237221D01*
X37084Y242071D01*
X35228Y246552D01*
X31798Y249982D01*
X27790Y251642D01*
X27565Y251786D01*
X27388Y252032D01*
X27320Y252328D01*
X27373Y252626D01*
X27539Y252880D01*
X27790Y253050D01*
X31798Y254710D01*
X35228Y258140D01*
X37084Y262621D01*
X37084Y263014D01*
X22860Y263014D01*
X22860Y267078D01*
X37084Y267078D01*
X37084Y267471D01*
X35228Y271952D01*
X31798Y275382D01*
X27790Y277042D01*
X27565Y277186D01*
X27388Y277432D01*
X27320Y277728D01*
X27373Y278026D01*
X27539Y278280D01*
X27790Y278450D01*
X31798Y280110D01*
X35228Y283540D01*
X36054Y285534D01*
X36210Y285772D01*
X36461Y285944D01*
X36758Y286004D01*
X85293Y286004D01*
X87376Y288087D01*
X87376Y402071D01*
X87432Y402357D01*
X87599Y402610D01*
X92690Y407701D01*
X92931Y407864D01*
X93229Y407924D01*
X116575Y407924D01*
X116839Y407877D01*
X117097Y407718D01*
X117272Y407470D01*
X117337Y407174D01*
X117282Y406876D01*
X117114Y406623D01*
X103124Y392633D01*
X103124Y389130D01*
X103068Y388844D01*
X102901Y388591D01*
X102404Y388094D01*
X101180Y385139D01*
X101180Y381941D01*
X102404Y378986D01*
X104666Y376724D01*
X105194Y376505D01*
X105432Y376349D01*
X105604Y376099D01*
X105664Y375801D01*
X105664Y273569D01*
X105608Y273283D01*
X105441Y273030D01*
X85110Y252699D01*
X84869Y252536D01*
X84571Y252476D01*
X51867Y252476D01*
X44704Y245313D01*
X44704Y221099D01*
X44651Y220818D01*
X44485Y220564D01*
X44234Y220395D01*
X43706Y220176D01*
X41444Y217914D01*
X40220Y214959D01*
X40220Y211761D01*
X41444Y208806D01*
X43706Y206544D01*
X46661Y205320D01*
X49859Y205320D01*
X52814Y206544D01*
X55076Y208806D01*
X56300Y211761D01*
X56300Y214959D01*
X55076Y217914D01*
X52814Y220176D01*
X52286Y220395D01*
X52048Y220551D01*
X51876Y220801D01*
X51816Y221099D01*
X51816Y230915D01*
X51861Y231173D01*
X52018Y231432D01*
X52264Y231610D01*
X52560Y231677D01*
X52858Y231624D01*
X53113Y231458D01*
X53282Y231207D01*
X54144Y229126D01*
X56406Y226864D01*
X59361Y225640D01*
X62559Y225640D01*
X65514Y226864D01*
X67776Y229126D01*
X67995Y229654D01*
X68151Y229892D01*
X68401Y230064D01*
X68699Y230124D01*
X128473Y230124D01*
X138772Y240423D01*
X138985Y240573D01*
X139280Y240645D01*
X139579Y240597D01*
X139836Y240435D01*
X140010Y240187D01*
X140072Y239890D01*
X140014Y239592D01*
X139280Y237819D01*
X139280Y234621D01*
X140504Y231666D01*
X142766Y229404D01*
X143294Y229185D01*
X143532Y229029D01*
X143704Y228779D01*
X143764Y228481D01*
X143764Y216967D01*
X146081Y214650D01*
X146244Y214409D01*
X146304Y214111D01*
X146304Y105918D01*
X146253Y105643D01*
X146089Y105388D01*
X145839Y105216D01*
X145542Y105156D01*
X117907Y105156D01*
X87884Y75133D01*
X87884Y68453D01*
X87831Y68173D01*
X87665Y67919D01*
X87414Y67749D01*
X85685Y67033D01*
X82827Y64175D01*
X81280Y60441D01*
X81280Y41159D01*
X82827Y37425D01*
X85685Y34567D01*
X89419Y33020D01*
X93461Y33020D01*
X97195Y34567D01*
X100053Y37425D01*
X101600Y41159D01*
X101600Y60441D01*
X100053Y64175D01*
X97195Y67033D01*
X95466Y67749D01*
X95228Y67906D01*
X95056Y68156D01*
X94996Y68453D01*
X94996Y71871D01*
X95052Y72157D01*
X95219Y72410D01*
X120630Y97821D01*
X120871Y97984D01*
X121169Y98044D01*
X151333Y98044D01*
X153416Y100127D01*
X153416Y217373D01*
X151099Y219690D01*
X150936Y219931D01*
X150876Y220229D01*
X150876Y228481D01*
X150929Y228762D01*
X151095Y229016D01*
X151346Y229185D01*
X151874Y229404D01*
X154136Y231666D01*
X155360Y234621D01*
X155360Y237819D01*
X154136Y240774D01*
X151874Y243036D01*
X148919Y244260D01*
X145721Y244260D01*
X143948Y243526D01*
X143693Y243468D01*
X143393Y243515D01*
X143135Y243674D01*
X142959Y243921D01*
X142894Y244217D01*
X142950Y244516D01*
X143117Y244768D01*
X153416Y255067D01*
X153416Y353811D01*
X153472Y354097D01*
X153639Y354350D01*
X168890Y369601D01*
X169131Y369764D01*
X169429Y369824D01*
X174193Y369824D01*
X176276Y371907D01*
X176276Y383421D01*
X176329Y383702D01*
X176495Y383956D01*
X176746Y384125D01*
X177274Y384344D01*
X179536Y386606D01*
X180807Y389674D01*
X180963Y389912D01*
X181214Y390084D01*
X181511Y390144D01*
X229351Y390144D01*
X229637Y390088D01*
X229890Y389921D01*
X280467Y339344D01*
X348731Y339344D01*
X349017Y339288D01*
X349270Y339121D01*
X351821Y336570D01*
X351984Y336329D01*
X352044Y336031D01*
X352044Y267767D01*
X412547Y207264D01*
X431681Y207264D01*
X431962Y207211D01*
X432216Y207045D01*
X432385Y206794D01*
X432604Y206266D01*
X434866Y204004D01*
X437821Y202780D01*
X441019Y202780D01*
X443974Y204004D01*
X446236Y206266D01*
X447460Y209221D01*
X447460Y212419D01*
X446236Y215374D01*
X443974Y217636D01*
X441019Y218860D01*
X437821Y218860D01*
X434866Y217636D01*
X432604Y215374D01*
X432385Y214846D01*
X432229Y214608D01*
X431979Y214436D01*
X431681Y214376D01*
X415809Y214376D01*
X415523Y214432D01*
X415270Y214599D01*
X359379Y270490D01*
X359216Y270731D01*
X359156Y271029D01*
X359156Y332424D01*
X359203Y332688D01*
X359362Y332946D01*
X359610Y333121D01*
X359906Y333186D01*
X360204Y333131D01*
X360457Y332963D01*
X361981Y331439D01*
X362144Y331198D01*
X362204Y330900D01*
X362204Y277927D01*
X412547Y227584D01*
X431681Y227584D01*
X431962Y227531D01*
X432216Y227365D01*
X432385Y227114D01*
X432604Y226586D01*
X434866Y224324D01*
X437821Y223100D01*
X441019Y223100D01*
X443974Y224324D01*
X446236Y226586D01*
X447460Y229541D01*
X447460Y232739D01*
X446236Y235694D01*
X443974Y237956D01*
X441019Y239180D01*
X437821Y239180D01*
X434866Y237956D01*
X432604Y235694D01*
X432385Y235166D01*
X432229Y234928D01*
X431979Y234756D01*
X431681Y234696D01*
X415809Y234696D01*
X415523Y234752D01*
X415270Y234919D01*
X369539Y280650D01*
X369376Y280891D01*
X369316Y281189D01*
X369316Y334162D01*
X351434Y352044D01*
X346213Y352044D01*
X345949Y352091D01*
X345691Y352250D01*
X345516Y352498D01*
X345451Y352794D01*
X345506Y353092D01*
X345674Y353345D01*
X356850Y364521D01*
X357091Y364684D01*
X357389Y364744D01*
X385013Y364744D01*
X407416Y387147D01*
X407416Y399531D01*
X407472Y399817D01*
X407639Y400070D01*
X430510Y422941D01*
X430751Y423104D01*
X431049Y423164D01*
X445973Y423164D01*
X449803Y426994D01*
X450023Y427147D01*
X450318Y427217D01*
X450617Y427166D01*
X450872Y427003D01*
X451044Y426753D01*
X451104Y426455D01*
X451104Y415809D01*
X451048Y415523D01*
X450881Y415270D01*
X450870Y415259D01*
X450629Y415096D01*
X450331Y415036D01*
X437947Y415036D01*
X413004Y390093D01*
X413004Y343967D01*
X422707Y334264D01*
X480811Y334264D01*
X481097Y334208D01*
X481350Y334041D01*
X487861Y327530D01*
X495259Y327530D01*
X495540Y327477D01*
X495794Y327311D01*
X495963Y327060D01*
X497156Y324180D01*
X500586Y320750D01*
X504594Y319090D01*
X504819Y318946D01*
X504996Y318700D01*
X505064Y318404D01*
X505011Y318106D01*
X504845Y317851D01*
X504594Y317682D01*
X500586Y316022D01*
X497156Y312592D01*
X495300Y308111D01*
X495300Y303261D01*
X497156Y298780D01*
X500586Y295350D01*
X504594Y293690D01*
X504819Y293546D01*
X504996Y293300D01*
X505064Y293004D01*
X505011Y292706D01*
X504845Y292451D01*
X504594Y292282D01*
X500586Y290622D01*
X497156Y287192D01*
X495300Y282711D01*
X495300Y277861D01*
X497156Y273380D01*
X500586Y269950D01*
X505067Y268094D01*
X509917Y268094D01*
X514398Y269950D01*
X517828Y273380D01*
X519684Y277861D01*
X519684Y282711D01*
X517828Y287192D01*
X514398Y290622D01*
X510390Y292282D01*
X510165Y292426D01*
X509988Y292672D01*
X509920Y292968D01*
X509973Y293266D01*
X510139Y293520D01*
X510390Y293690D01*
X514398Y295350D01*
X517828Y298780D01*
X519684Y303261D01*
X519684Y308111D01*
X517828Y312592D01*
X514398Y316022D01*
X510390Y317682D01*
X510165Y317826D01*
X509988Y318072D01*
X509920Y318368D01*
X509973Y318666D01*
X510139Y318920D01*
X510390Y319090D01*
X514398Y320750D01*
X517828Y324180D01*
X519684Y328661D01*
X519684Y333511D01*
X517828Y337992D01*
X514398Y341422D01*
X510390Y343082D01*
X510165Y343226D01*
X509988Y343472D01*
X509920Y343768D01*
X509973Y344066D01*
X510139Y344320D01*
X510390Y344490D01*
X514398Y346150D01*
X517828Y349580D01*
X519684Y354061D01*
X519684Y358911D01*
X517828Y363392D01*
X514398Y366822D01*
X510390Y368482D01*
X510165Y368626D01*
X509988Y368872D01*
X509920Y369168D01*
X509973Y369466D01*
X510139Y369720D01*
X510390Y369890D01*
X514398Y371550D01*
X517828Y374980D01*
X519684Y379461D01*
X519684Y384311D01*
X517828Y388792D01*
X514398Y392222D01*
X510390Y393882D01*
X510165Y394026D01*
X509988Y394272D01*
X509920Y394568D01*
X509973Y394866D01*
X510139Y395120D01*
X510390Y395290D01*
X514398Y396950D01*
X517828Y400380D01*
X519684Y404861D01*
X519684Y405254D01*
X495300Y405254D01*
X495300Y404861D01*
X497156Y400380D01*
X500586Y396950D01*
X504594Y395290D01*
X504819Y395146D01*
X504996Y394900D01*
X505064Y394604D01*
X505011Y394306D01*
X504845Y394051D01*
X504594Y393882D01*
X500586Y392222D01*
X497156Y388792D01*
X495300Y384311D01*
X495300Y379461D01*
X497156Y374980D01*
X500586Y371550D01*
X504594Y369890D01*
X504819Y369746D01*
X504996Y369500D01*
X505064Y369204D01*
X505011Y368906D01*
X504845Y368651D01*
X504594Y368482D01*
X500586Y366822D01*
X497156Y363392D01*
X495300Y358911D01*
X495300Y354061D01*
X497156Y349580D01*
X500586Y346150D01*
X504594Y344490D01*
X504819Y344346D01*
X504996Y344100D01*
X505064Y343804D01*
X505011Y343506D01*
X504845Y343251D01*
X504594Y343082D01*
X500586Y341422D01*
X497156Y337992D01*
X495963Y335112D01*
X495807Y334874D01*
X495556Y334702D01*
X495259Y334642D01*
X491123Y334642D01*
X490837Y334698D01*
X490584Y334865D01*
X484073Y341376D01*
X425969Y341376D01*
X425683Y341432D01*
X425430Y341599D01*
X420339Y346690D01*
X420176Y346931D01*
X420116Y347229D01*
X420116Y386831D01*
X420172Y387117D01*
X420339Y387370D01*
X440670Y407701D01*
X440911Y407864D01*
X441209Y407924D01*
X453593Y407924D01*
X458216Y412547D01*
X458216Y595833D01*
X440893Y613156D01*
X163627Y613156D01*
X115590Y565119D01*
X115349Y564956D01*
X115051Y564896D01*
X86870Y564896D01*
X86584Y564952D01*
X86331Y565119D01*
X85834Y565616D01*
X82879Y566840D01*
X79681Y566840D01*
X76726Y565616D01*
X74464Y563354D01*
X73240Y560399D01*
X73240Y557201D01*
X74464Y554246D01*
X76726Y551984D01*
X79681Y550760D01*
X82879Y550760D01*
X85834Y551984D01*
X88096Y554246D01*
X89367Y557314D01*
X89523Y557552D01*
X89774Y557724D01*
X90071Y557784D01*
X118313Y557784D01*
X166350Y605821D01*
X166591Y605984D01*
X166889Y606044D01*
X437631Y606044D01*
X437917Y605988D01*
X438170Y605821D01*
X450881Y593110D01*
X451044Y592869D01*
X451104Y592571D01*
X451104Y462545D01*
X451057Y462281D01*
X450898Y462023D01*
X450650Y461848D01*
X450354Y461783D01*
X450056Y461838D01*
X449803Y462006D01*
X447407Y464402D01*
X447246Y464638D01*
X447183Y464935D01*
X447241Y465233D01*
X447460Y465761D01*
X447460Y468959D01*
X446236Y471914D01*
X443974Y474176D01*
X441019Y475400D01*
X437821Y475400D01*
X434866Y474176D01*
X432604Y471914D01*
X431380Y468959D01*
X431380Y465761D01*
X432604Y462806D01*
X434866Y460544D01*
X437821Y459320D01*
X441019Y459320D01*
X441547Y459539D01*
X441827Y459597D01*
X442125Y459541D01*
X442378Y459374D01*
X443261Y458490D01*
X443424Y458249D01*
X443484Y457951D01*
X443484Y431049D01*
X443428Y430763D01*
X443261Y430510D01*
X443250Y430499D01*
X443009Y430336D01*
X442711Y430276D01*
X427787Y430276D01*
X400304Y402793D01*
X400304Y390409D01*
X400248Y390123D01*
X400081Y389870D01*
X382290Y372079D01*
X382049Y371916D01*
X381751Y371856D01*
X354127Y371856D01*
X341650Y359379D01*
X341409Y359216D01*
X341111Y359156D01*
X339346Y359156D01*
X339083Y359203D01*
X338825Y359362D01*
X338649Y359610D01*
X338584Y359906D01*
X338640Y360204D01*
X338807Y360457D01*
X339556Y361206D01*
X340780Y364161D01*
X340780Y367359D01*
X339556Y370314D01*
X337294Y372576D01*
X334339Y373800D01*
X331141Y373800D01*
X328186Y372576D01*
X325924Y370314D01*
X325705Y369786D01*
X325549Y369548D01*
X325299Y369376D01*
X325001Y369316D01*
X321829Y369316D01*
X321543Y369372D01*
X321290Y369539D01*
X275793Y415036D01*
X89967Y415036D01*
X80264Y405333D01*
X80264Y293878D01*
X80213Y293603D01*
X80049Y293348D01*
X79799Y293176D01*
X79502Y293116D01*
X37492Y293116D01*
X37211Y293169D01*
X36957Y293335D01*
X36788Y293586D01*
X35228Y297352D01*
X31798Y300782D01*
X27790Y302442D01*
X27565Y302586D01*
X27388Y302832D01*
X27320Y303128D01*
X27373Y303426D01*
X27539Y303680D01*
X27790Y303850D01*
X31798Y305510D01*
X35228Y308940D01*
X37084Y313421D01*
X37084Y318271D01*
X35228Y322752D01*
X31798Y326182D01*
X27790Y327842D01*
X27565Y327986D01*
X27388Y328232D01*
X27320Y328528D01*
X27373Y328826D01*
X27539Y329080D01*
X27790Y329250D01*
X31798Y330910D01*
X35228Y334340D01*
X36421Y337220D01*
X36577Y337458D01*
X36828Y337630D01*
X37125Y337690D01*
X58239Y337690D01*
X69596Y349047D01*
X69596Y409691D01*
X69652Y409977D01*
X69819Y410230D01*
X77450Y417861D01*
X77691Y418024D01*
X77989Y418084D01*
X277611Y418084D01*
X277897Y418028D01*
X278150Y417861D01*
X285547Y410464D01*
X301193Y410464D01*
X331450Y440721D01*
X331691Y440884D01*
X331989Y440944D01*
X418981Y440944D01*
X419262Y440891D01*
X419516Y440725D01*
X419685Y440474D01*
X419904Y439946D01*
X422166Y437684D01*
X425121Y436460D01*
X428319Y436460D01*
X431274Y437684D01*
X433536Y439946D01*
X434760Y442901D01*
X434760Y446099D01*
X433536Y449054D01*
X431274Y451316D01*
X428319Y452540D01*
X425121Y452540D01*
X422166Y451316D01*
X419904Y449054D01*
X419685Y448526D01*
X419529Y448288D01*
X419279Y448116D01*
X418981Y448056D01*
X328727Y448056D01*
X298470Y417799D01*
X298229Y417636D01*
X297931Y417576D01*
X288809Y417576D01*
X288523Y417632D01*
X288270Y417799D01*
X280873Y425196D01*
X74727Y425196D01*
X62484Y412953D01*
X62484Y352309D01*
X62428Y352023D01*
X62261Y351770D01*
X55516Y345025D01*
X55275Y344862D01*
X54977Y344802D01*
X37125Y344802D01*
X36844Y344855D01*
X36590Y345021D01*
X36421Y345272D01*
X35228Y348152D01*
X31798Y351582D01*
X27790Y353242D01*
X27565Y353386D01*
X27388Y353632D01*
X27320Y353928D01*
X27373Y354226D01*
X27539Y354480D01*
X27790Y354650D01*
X31798Y356310D01*
X35228Y359740D01*
X37084Y364221D01*
X37084Y369071D01*
X35228Y373552D01*
X31798Y376982D01*
X27790Y378642D01*
X27565Y378786D01*
X27388Y379032D01*
X27320Y379328D01*
X27373Y379626D01*
X27539Y379880D01*
X27790Y380050D01*
X31798Y381710D01*
X35228Y385140D01*
X37084Y389621D01*
X37084Y394471D01*
X35228Y398952D01*
X31798Y402382D01*
X27790Y404042D01*
X27565Y404186D01*
X27388Y404432D01*
X27320Y404728D01*
X27373Y405026D01*
X27539Y405280D01*
X27790Y405450D01*
X31798Y407110D01*
X35228Y410540D01*
X37084Y415021D01*
X37084Y419871D01*
X35228Y424352D01*
X31798Y427782D01*
X27317Y429638D01*
X22467Y429638D01*
X17986Y427782D01*
X14556Y424352D01*
X12700Y419871D01*
X12700Y415021D01*
X14556Y410540D01*
X17986Y407110D01*
X21994Y405450D01*
X22219Y405306D01*
X22396Y405060D01*
X22464Y404764D01*
X22411Y404466D01*
X22245Y404211D01*
X21994Y404042D01*
X17986Y402382D01*
X14556Y398952D01*
X12700Y394471D01*
X12700Y389621D01*
X14556Y385140D01*
X17986Y381710D01*
X21994Y380050D01*
X22219Y379906D01*
X22396Y379660D01*
X22464Y379364D01*
X22411Y379066D01*
X22245Y378811D01*
X21994Y378642D01*
X17986Y376982D01*
X14556Y373552D01*
X12700Y369071D01*
X12700Y364221D01*
X14556Y359740D01*
X17986Y356310D01*
X21994Y354650D01*
X22219Y354506D01*
X22396Y354260D01*
X22464Y353964D01*
X22411Y353666D01*
X22245Y353411D01*
X21994Y353242D01*
X17986Y351582D01*
X14556Y348152D01*
X12700Y343671D01*
X12700Y338821D01*
X14556Y334340D01*
X17986Y330910D01*
X21994Y329250D01*
X22219Y329106D01*
X22396Y328860D01*
X22464Y328564D01*
X22411Y328266D01*
X22245Y328011D01*
X21994Y327842D01*
X17986Y326182D01*
X14556Y322752D01*
X12700Y318271D01*
X12700Y313421D01*
X14556Y308940D01*
X17986Y305510D01*
X21994Y303850D01*
X22219Y303706D01*
X22396Y303460D01*
X22464Y303164D01*
X22411Y302866D01*
X22245Y302611D01*
X21994Y302442D01*
X17986Y300782D01*
X14556Y297352D01*
X12700Y292871D01*
X12700Y288021D01*
X14556Y283540D01*
X17986Y280110D01*
X21994Y278450D01*
X22219Y278306D01*
X22396Y278060D01*
X22464Y277764D01*
X22411Y277466D01*
X22245Y277211D01*
X21994Y277042D01*
X17986Y275382D01*
X14556Y271952D01*
X12700Y267471D01*
X12700Y262621D01*
X14556Y258140D01*
X17986Y254710D01*
X21994Y253050D01*
X22219Y252906D01*
X22396Y252660D01*
X22464Y252364D01*
X22411Y252066D01*
X22245Y251811D01*
X21994Y251642D01*
X17986Y249982D01*
X14556Y246552D01*
X12700Y242071D01*
X12700Y237221D01*
X14556Y232740D01*
X17986Y229310D01*
X21994Y227650D01*
X22219Y227506D01*
X22396Y227260D01*
X22464Y226964D01*
X22411Y226666D01*
X22245Y226411D01*
X21994Y226242D01*
X17986Y224582D01*
X14556Y221152D01*
X12700Y216671D01*
X12700Y211821D01*
X14556Y207340D01*
X17986Y203910D01*
X21994Y202250D01*
X22219Y202106D01*
X22396Y201860D01*
X22464Y201564D01*
X22411Y201266D01*
X22245Y201011D01*
X21994Y200842D01*
X17986Y199182D01*
X14556Y195752D01*
X12700Y191271D01*
X12700Y186421D01*
X14556Y181940D01*
X17148Y179348D01*
X17339Y179030D01*
X17367Y178728D01*
X17275Y178438D01*
X17078Y178208D01*
X16807Y178073D01*
X14843Y177547D01*
X12065Y175943D01*
X11708Y175841D01*
X11409Y175892D01*
X11154Y176055D01*
X10982Y176306D01*
X10922Y176603D01*
X10922Y642860D01*
X10978Y643146D01*
X11145Y643399D01*
X17001Y649255D01*
X17242Y649418D01*
X17540Y649478D01*
X22016Y649478D01*
X22274Y649433D01*
X22533Y649276D01*
X22710Y649030D01*
X22778Y648734D01*
X22725Y648436D01*
X22559Y648182D01*
X22308Y648012D01*
X17986Y646222D01*
X14556Y642792D01*
X12700Y638311D01*
X12700Y633461D01*
X14556Y628980D01*
X17986Y625550D01*
X21994Y623890D01*
X22219Y623746D01*
X22396Y623500D01*
X22464Y623204D01*
X22411Y622906D01*
X22245Y622651D01*
X21994Y622482D01*
X17986Y620822D01*
X14556Y617392D01*
X12700Y612911D01*
X12700Y608061D01*
X14556Y603580D01*
X17986Y600150D01*
X21994Y598490D01*
X22219Y598346D01*
X22396Y598100D01*
X22464Y597804D01*
X22411Y597506D01*
X22245Y597251D01*
X21994Y597082D01*
X17986Y595422D01*
X14556Y591992D01*
X12700Y587511D01*
X12700Y582661D01*
X14556Y578180D01*
X17986Y574750D01*
X21994Y573090D01*
X22219Y572946D01*
X22396Y572700D01*
X22464Y572404D01*
X22411Y572106D01*
X22245Y571851D01*
X21994Y571682D01*
X17986Y570022D01*
X14556Y566592D01*
X12700Y562111D01*
X12700Y557261D01*
X14556Y552780D01*
X17986Y549350D01*
X21994Y547690D01*
X22219Y547546D01*
X22396Y547300D01*
X22464Y547004D01*
X22411Y546706D01*
X22245Y546451D01*
X21994Y546282D01*
X17986Y544622D01*
X14556Y541192D01*
X12700Y536711D01*
X12700Y531861D01*
X14556Y527380D01*
X17986Y523950D01*
X21994Y522290D01*
X22219Y522146D01*
X22396Y521900D01*
X22464Y521604D01*
X22411Y521306D01*
X22245Y521051D01*
X21994Y520882D01*
X17986Y519222D01*
X14556Y515792D01*
X12700Y511311D01*
X12700Y506461D01*
X14556Y501980D01*
X17986Y498550D01*
X21994Y496890D01*
X22219Y496746D01*
X22396Y496500D01*
X22464Y496204D01*
X22411Y495906D01*
X22245Y495651D01*
X21994Y495482D01*
X17986Y493822D01*
X14556Y490392D01*
X12700Y485911D01*
X12700Y481061D01*
X14556Y476580D01*
X17986Y473150D01*
X21994Y471490D01*
X22219Y471346D01*
X22396Y471100D01*
X22464Y470804D01*
X22411Y470506D01*
X22245Y470251D01*
X21994Y470082D01*
X17986Y468422D01*
X14556Y464992D01*
X12700Y460511D01*
X12700Y455661D01*
X14556Y451180D01*
X17986Y447750D01*
X22467Y445894D01*
X27317Y445894D01*
X31798Y447750D01*
X35228Y451180D01*
X37084Y455661D01*
X37084Y460511D01*
X35228Y464992D01*
X31798Y468422D01*
X27790Y470082D01*
X27565Y470226D01*
X27388Y470472D01*
X27320Y470768D01*
X27373Y471066D01*
X27539Y471320D01*
X27790Y471490D01*
X31798Y473150D01*
X35228Y476580D01*
X37084Y481061D01*
X37084Y485911D01*
X35228Y490392D01*
X31798Y493822D01*
X27790Y495482D01*
X27565Y495626D01*
X27388Y495872D01*
X27320Y496168D01*
X27373Y496466D01*
X27539Y496720D01*
X27790Y496890D01*
X31798Y498550D01*
X35228Y501980D01*
X37084Y506461D01*
X37084Y511311D01*
X35228Y515792D01*
X31798Y519222D01*
X27790Y520882D01*
X27565Y521026D01*
X27388Y521272D01*
X27320Y521568D01*
X27373Y521866D01*
X27539Y522120D01*
X27790Y522290D01*
X31798Y523950D01*
X35228Y527380D01*
X37084Y531861D01*
X37084Y536711D01*
X35228Y541192D01*
X31798Y544622D01*
X27790Y546282D01*
X27565Y546426D01*
X27388Y546672D01*
X27320Y546968D01*
X27373Y547266D01*
X27539Y547520D01*
X27790Y547690D01*
X31798Y549350D01*
X35228Y552780D01*
X37084Y557261D01*
X37084Y562111D01*
X35228Y566592D01*
X31798Y570022D01*
X27790Y571682D01*
X27565Y571826D01*
X27388Y572072D01*
X27320Y572368D01*
X27373Y572666D01*
X27539Y572920D01*
X27790Y573090D01*
X31798Y574750D01*
X35228Y578180D01*
X37084Y582661D01*
X37084Y587511D01*
X35228Y591992D01*
X31798Y595422D01*
X27790Y597082D01*
X27565Y597226D01*
X27388Y597472D01*
X27320Y597768D01*
X27373Y598066D01*
X27539Y598320D01*
X27790Y598490D01*
X31798Y600150D01*
X35228Y603580D01*
X37084Y608061D01*
X37084Y612911D01*
X35228Y617392D01*
X31798Y620822D01*
X27790Y622482D01*
X27565Y622626D01*
X27388Y622872D01*
X27320Y623168D01*
X27373Y623466D01*
X27539Y623720D01*
X27790Y623890D01*
X31798Y625550D01*
X35228Y628980D01*
X37084Y633461D01*
X37084Y638311D01*
X35228Y642792D01*
X31798Y646222D01*
X27476Y648012D01*
X27256Y648152D01*
X27076Y648397D01*
X27006Y648692D01*
X27057Y648991D01*
X27221Y649246D01*
X27471Y649418D01*
X27768Y649478D01*
X129173Y649478D01*
X133187Y651141D01*
X150892Y668846D01*
X151019Y668948D01*
X151302Y669058D01*
X151605Y669049D01*
X151880Y668923D01*
X152085Y668699D01*
X152186Y668413D01*
X152167Y668110D01*
X151257Y664714D01*
X151257Y657858D01*
X153031Y651237D01*
X156459Y645300D01*
X161306Y640453D01*
X163454Y639213D01*
X163585Y639117D01*
X163765Y638872D01*
X163834Y638577D01*
X163783Y638278D01*
X163620Y638023D01*
X163370Y637851D01*
X163073Y637791D01*
X160322Y637791D01*
X138450Y615919D01*
X138209Y615756D01*
X137911Y615696D01*
X67107Y615696D01*
X52324Y600913D01*
X52324Y526847D01*
X138227Y440944D01*
X252933Y440944D01*
X255016Y443027D01*
X255016Y451799D01*
X255067Y452073D01*
X255231Y452329D01*
X255481Y452500D01*
X255778Y452561D01*
X256013Y452561D01*
X259747Y454107D01*
X262605Y456965D01*
X264152Y460700D01*
X264152Y479981D01*
X262605Y483716D01*
X259747Y486574D01*
X256013Y488121D01*
X251971Y488121D01*
X248237Y486574D01*
X245379Y483716D01*
X243832Y479981D01*
X243832Y460700D01*
X245379Y456965D01*
X247681Y454663D01*
X247844Y454422D01*
X247904Y454125D01*
X247904Y448818D01*
X247853Y448543D01*
X247689Y448288D01*
X247439Y448116D01*
X247142Y448056D01*
X141489Y448056D01*
X141203Y448112D01*
X140950Y448279D01*
X59659Y529570D01*
X59496Y529811D01*
X59436Y530109D01*
X59436Y597651D01*
X59492Y597937D01*
X59659Y598190D01*
X69830Y608361D01*
X70071Y608524D01*
X70369Y608584D01*
X141173Y608584D01*
X163045Y630456D01*
X163286Y630619D01*
X163584Y630679D01*
X189970Y630679D01*
X192798Y633507D01*
X193039Y633670D01*
X193337Y633730D01*
X216359Y633730D01*
X216640Y633677D01*
X216894Y633511D01*
X217063Y633260D01*
X218256Y630380D01*
X221686Y626950D01*
X226167Y625094D01*
X231017Y625094D01*
X235498Y626950D01*
X238928Y630380D01*
X240588Y634388D01*
X240732Y634613D01*
X240978Y634790D01*
X241274Y634858D01*
X241572Y634805D01*
X241827Y634639D01*
X241996Y634388D01*
X243656Y630380D01*
X247086Y626950D01*
X251567Y625094D01*
X256417Y625094D01*
X260898Y626950D01*
X264328Y630380D01*
X265988Y634388D01*
X266132Y634613D01*
X266378Y634790D01*
X266674Y634858D01*
X266972Y634805D01*
X267227Y634639D01*
X267396Y634388D01*
X269056Y630380D01*
X272486Y626950D01*
X276967Y625094D01*
X281817Y625094D01*
X286298Y626950D01*
X289728Y630380D01*
X291584Y634861D01*
X291584Y639711D01*
X290184Y643090D01*
X290127Y643358D01*
X290178Y643657D01*
X290341Y643912D01*
X290591Y644084D01*
X290888Y644144D01*
X355481Y644144D01*
X355762Y644091D01*
X356016Y643925D01*
X356185Y643674D01*
X356404Y643146D01*
X358666Y640884D01*
X361621Y639660D01*
X364819Y639660D01*
X367774Y640884D01*
X370036Y643146D01*
X371260Y646101D01*
X371260Y649299D01*
X370036Y652254D01*
X367774Y654516D01*
X364819Y655740D01*
X361621Y655740D01*
X358666Y654516D01*
X356404Y652254D01*
X356185Y651726D01*
X356029Y651488D01*
X355779Y651316D01*
X355481Y651256D01*
X288009Y651256D01*
X287723Y651312D01*
X287470Y651479D01*
X286988Y651962D01*
X286830Y652192D01*
X286764Y652488D01*
X286820Y652786D01*
X286988Y653039D01*
X289728Y655780D01*
X291584Y660261D01*
X291584Y660654D01*
X277360Y660654D01*
X277360Y664718D01*
X291584Y664718D01*
X291584Y665111D01*
X289728Y669592D01*
X286298Y673022D01*
X285357Y673412D01*
X285136Y673552D01*
X284956Y673797D01*
X284886Y674092D01*
X284937Y674391D01*
X285101Y674646D01*
X285351Y674818D01*
X285648Y674878D01*
X433157Y674878D01*
X433517Y674788D01*
X433750Y674594D01*
X433890Y674325D01*
X433913Y674023D01*
X433817Y673735D01*
X432431Y671335D01*
X430657Y664714D01*
X430657Y657858D01*
X432431Y651237D01*
X435859Y645300D01*
X440706Y640453D01*
X446643Y637025D01*
X453264Y635251D01*
X460120Y635251D01*
X466741Y637025D01*
X472678Y640453D01*
X477525Y645300D01*
X480953Y651237D01*
X482727Y657858D01*
X482727Y664714D01*
X481445Y669498D01*
X481420Y669659D01*
X481466Y669959D01*
X481625Y670217D01*
X481873Y670392D01*
X482169Y670457D01*
X482467Y670402D01*
X482720Y670234D01*
X501813Y651141D01*
X505668Y649544D01*
X505889Y649404D01*
X506069Y649159D01*
X506138Y648864D01*
X506087Y648565D01*
X505924Y648310D01*
X505674Y648138D01*
X505377Y648078D01*
X505067Y648078D01*
X500586Y646222D01*
X497156Y642792D01*
X495963Y639912D01*
X495807Y639674D01*
X495556Y639502D01*
X495259Y639442D01*
X484553Y639442D01*
X461264Y616153D01*
X461264Y410729D01*
X461208Y410443D01*
X461041Y410190D01*
X434758Y383907D01*
X434522Y383746D01*
X434225Y383683D01*
X433927Y383741D01*
X433399Y383960D01*
X430201Y383960D01*
X427246Y382736D01*
X424984Y380474D01*
X423760Y377519D01*
X423760Y374321D01*
X424984Y371366D01*
X427246Y369104D01*
X430201Y367880D01*
X433399Y367880D01*
X436354Y369104D01*
X438616Y371366D01*
X439840Y374321D01*
X439840Y377519D01*
X439621Y378047D01*
X439563Y378327D01*
X439619Y378625D01*
X439787Y378878D01*
X468376Y407467D01*
X468376Y612891D01*
X468432Y613177D01*
X468599Y613430D01*
X487276Y632107D01*
X487517Y632270D01*
X487815Y632330D01*
X495259Y632330D01*
X495540Y632277D01*
X495794Y632111D01*
X495963Y631860D01*
X497156Y628980D01*
X500586Y625550D01*
X504594Y623890D01*
X504819Y623746D01*
X504996Y623500D01*
X505064Y623204D01*
X505011Y622906D01*
X504845Y622651D01*
X504594Y622482D01*
X500586Y620822D01*
X497156Y617392D01*
X495963Y614512D01*
X495807Y614274D01*
X495556Y614102D01*
X495259Y614042D01*
X494713Y614042D01*
X471424Y590753D01*
X471424Y398029D01*
X471368Y397743D01*
X471201Y397490D01*
X455078Y381367D01*
X454842Y381206D01*
X454545Y381143D01*
X454247Y381201D01*
X453719Y381420D01*
X450521Y381420D01*
X447566Y380196D01*
X445304Y377934D01*
X444080Y374979D01*
X444080Y371781D01*
X445304Y368826D01*
X447566Y366564D01*
X450521Y365340D01*
X453719Y365340D01*
X456674Y366564D01*
X458936Y368826D01*
X460160Y371781D01*
X460160Y374979D01*
X459941Y375507D01*
X459883Y375787D01*
X459939Y376085D01*
X460107Y376338D01*
X475203Y391434D01*
X475423Y391587D01*
X475718Y391657D01*
X476017Y391606D01*
X476272Y391443D01*
X476444Y391193D01*
X476504Y390895D01*
X476504Y360799D01*
X476451Y360518D01*
X476285Y360264D01*
X476034Y360095D01*
X475506Y359876D01*
X473244Y357614D01*
X472020Y354659D01*
X472020Y351461D01*
X473244Y348506D01*
X475506Y346244D01*
X478461Y345020D01*
X481659Y345020D01*
X484614Y346244D01*
X486876Y348506D01*
X488100Y351461D01*
X488100Y354659D01*
X486876Y357614D01*
X484614Y359876D01*
X484086Y360095D01*
X483848Y360251D01*
X483676Y360501D01*
X483616Y360799D01*
X483616Y505065D01*
X483672Y505351D01*
X483839Y505604D01*
X501357Y523122D01*
X501593Y523282D01*
X501889Y523345D01*
X502187Y523287D01*
X504594Y522290D01*
X504819Y522146D01*
X504996Y521900D01*
X505064Y521604D01*
X505011Y521306D01*
X504845Y521051D01*
X504594Y520882D01*
X500586Y519222D01*
X497156Y515792D01*
X495300Y511311D01*
X495300Y506461D01*
X497156Y501980D01*
X500586Y498550D01*
X505067Y496694D01*
X509917Y496694D01*
X514398Y498550D01*
X517828Y501980D01*
X519684Y506461D01*
X519684Y511311D01*
X517828Y515792D01*
X514398Y519222D01*
X510390Y520882D01*
X510165Y521026D01*
X509988Y521272D01*
X509920Y521568D01*
X509973Y521866D01*
X510139Y522120D01*
X510390Y522290D01*
X514398Y523950D01*
X517828Y527380D01*
X519684Y531861D01*
X519684Y536711D01*
X517828Y541192D01*
X514398Y544622D01*
X510390Y546282D01*
X510165Y546426D01*
X509988Y546672D01*
X509920Y546968D01*
X509973Y547266D01*
X510139Y547520D01*
X510390Y547690D01*
X514398Y549350D01*
X517828Y552780D01*
X519684Y557261D01*
X519684Y562111D01*
X517828Y566592D01*
X514398Y570022D01*
X510390Y571682D01*
X510165Y571826D01*
X509988Y572072D01*
X509920Y572368D01*
X509973Y572666D01*
X510139Y572920D01*
X510390Y573090D01*
X514398Y574750D01*
X517828Y578180D01*
X519684Y582661D01*
X519684Y587511D01*
X517828Y591992D01*
X514398Y595422D01*
X510390Y597082D01*
X510165Y597226D01*
X509988Y597472D01*
X509920Y597768D01*
X509973Y598066D01*
X510139Y598320D01*
X510390Y598490D01*
X514398Y600150D01*
X517828Y603580D01*
X519684Y608061D01*
X519684Y612911D01*
X517828Y617392D01*
X514398Y620822D01*
X510390Y622482D01*
X510165Y622626D01*
X509988Y622872D01*
X509920Y623168D01*
X509973Y623466D01*
X510139Y623720D01*
X510390Y623890D01*
X514398Y625550D01*
X517828Y628980D01*
X519684Y633461D01*
X519684Y638311D01*
X517828Y642792D01*
X514398Y646222D01*
X510076Y648012D01*
X509856Y648152D01*
X509676Y648397D01*
X509606Y648692D01*
X509657Y648991D01*
X509821Y649246D01*
X510071Y649418D01*
X510368Y649478D01*
X521146Y649478D01*
X521432Y649422D01*
X521685Y649255D01*
X522255Y648685D01*
X522418Y648444D01*
X522478Y648146D01*
X522478Y163316D01*
X522388Y162956D01*
X522194Y162723D01*
X521925Y162583D01*
X521623Y162560D01*
X521335Y162656D01*
X517541Y164847D01*
X510920Y166621D01*
X504064Y166621D01*
X497443Y164847D01*
X491506Y161419D01*
X489401Y159314D01*
X489181Y159161D01*
X488886Y159091D01*
X488587Y159142D01*
X488332Y159305D01*
X488160Y159555D01*
X488100Y159853D01*
X488100Y161619D01*
X486876Y164574D01*
X484614Y166836D01*
X481659Y168060D01*
X478461Y168060D01*
X475506Y166836D01*
X473244Y164574D01*
X472020Y161619D01*
X472020Y159258D01*
X471969Y158983D01*
X471805Y158728D01*
X471555Y158556D01*
X471258Y158496D01*
X439539Y158496D01*
X439258Y158549D01*
X439004Y158715D01*
X438835Y158966D01*
X438616Y159494D01*
X436354Y161756D01*
X433399Y162980D01*
X430201Y162980D01*
X427246Y161756D01*
X424984Y159494D01*
X423760Y156539D01*
X423760Y153341D01*
X424984Y150386D01*
X427246Y148124D01*
X430201Y146900D01*
X433399Y146900D01*
X436354Y148124D01*
X438616Y150386D01*
X438835Y150914D01*
X438991Y151152D01*
X439241Y151324D01*
X439539Y151384D01*
X476453Y151384D01*
X477102Y152034D01*
X477338Y152194D01*
X477635Y152257D01*
X477933Y152199D01*
X478461Y151980D01*
X481659Y151980D01*
X482672Y152400D01*
X483033Y152454D01*
X483323Y152367D01*
X483557Y152174D01*
X483696Y151904D01*
X483720Y151602D01*
X483624Y151315D01*
X483231Y150635D01*
X481457Y144014D01*
X481457Y137158D01*
X483231Y130537D01*
X486659Y124600D01*
X491506Y119753D01*
X497443Y116325D01*
X504064Y114551D01*
X510920Y114551D01*
X517541Y116325D01*
X521335Y118516D01*
X521692Y118617D01*
X521991Y118566D01*
X522246Y118403D01*
X522418Y118153D01*
X522478Y117856D01*
X522478Y11684D01*
X522427Y11409D01*
X522263Y11154D01*
X522013Y10982D01*
X521716Y10922D01*
X365771Y10922D01*
X365507Y10969D01*
X365249Y11128D01*
X365074Y11376D01*
X365009Y11672D01*
X365064Y11970D01*
X365232Y12223D01*
X405110Y52101D01*
X405351Y52264D01*
X405649Y52324D01*
X426601Y52324D01*
X426882Y52271D01*
X427136Y52105D01*
X427305Y51854D01*
X427524Y51326D01*
X429786Y49064D01*
X432741Y47840D01*
X435939Y47840D01*
X438894Y49064D01*
X441156Y51326D01*
X441375Y51854D01*
X441531Y52092D01*
X441781Y52264D01*
X442079Y52324D01*
X445973Y52324D01*
X453136Y59487D01*
X453136Y115773D01*
X341599Y227310D01*
X341436Y227551D01*
X341376Y227849D01*
X341376Y314841D01*
X341429Y315122D01*
X341595Y315376D01*
X341846Y315545D01*
X342374Y315764D01*
X344636Y318026D01*
X345860Y320981D01*
X345860Y324179D01*
X344636Y327134D01*
X342374Y329396D01*
X339419Y330620D01*
X336221Y330620D01*
X333266Y329396D01*
X331004Y327134D01*
X329780Y324179D01*
X329780Y320981D01*
X331004Y318026D01*
X333266Y315764D01*
X333794Y315545D01*
X334032Y315389D01*
X334204Y315139D01*
X334264Y314841D01*
X334264Y224587D01*
X445801Y113050D01*
X445964Y112809D01*
X446024Y112511D01*
X446024Y62749D01*
X445968Y62463D01*
X445801Y62210D01*
X443250Y59659D01*
X443009Y59496D01*
X442711Y59436D01*
X442079Y59436D01*
X441798Y59489D01*
X441544Y59655D01*
X441375Y59906D01*
X441156Y60434D01*
X438894Y62696D01*
X435939Y63920D01*
X432741Y63920D01*
X429786Y62696D01*
X427524Y60434D01*
X427305Y59906D01*
X427149Y59668D01*
X426899Y59496D01*
X426601Y59436D01*
X402387Y59436D01*
X359430Y16479D01*
X359189Y16316D01*
X358891Y16256D01*
X207529Y16256D01*
X207243Y16312D01*
X206990Y16479D01*
X191750Y31719D01*
X191597Y31939D01*
X191527Y32234D01*
X191578Y32533D01*
X191741Y32788D01*
X191991Y32960D01*
X192289Y33020D01*
X192775Y33020D01*
X193061Y32964D01*
X193314Y32797D01*
X206807Y19304D01*
X359613Y19304D01*
X410190Y69881D01*
X410431Y70044D01*
X410729Y70104D01*
X426601Y70104D01*
X426882Y70051D01*
X427136Y69885D01*
X427305Y69634D01*
X427524Y69106D01*
X429786Y66844D01*
X432741Y65620D01*
X435939Y65620D01*
X438894Y66844D01*
X441156Y69106D01*
X442380Y72061D01*
X442380Y75259D01*
X441156Y78214D01*
X438894Y80476D01*
X435939Y81700D01*
X432741Y81700D01*
X429786Y80476D01*
X427524Y78214D01*
X427305Y77686D01*
X427149Y77448D01*
X426899Y77276D01*
X426601Y77216D01*
X407467Y77216D01*
X356890Y26639D01*
X356649Y26476D01*
X356351Y26416D01*
X210069Y26416D01*
X209783Y26472D01*
X209530Y26639D01*
X200738Y35431D01*
X200580Y35662D01*
X200514Y35958D01*
X200570Y36256D01*
X200738Y36509D01*
X201653Y37425D01*
X203200Y41159D01*
X203200Y55615D01*
X203256Y55901D01*
X203423Y56154D01*
X204216Y56947D01*
X204216Y247142D01*
X204267Y247417D01*
X204431Y247672D01*
X204681Y247844D01*
X204978Y247904D01*
X255473Y247904D01*
X262636Y255067D01*
X262636Y344373D01*
X231507Y375502D01*
X231346Y375738D01*
X231283Y376035D01*
X231341Y376333D01*
X231560Y376861D01*
X231560Y380059D01*
X230336Y383014D01*
X228074Y385276D01*
X225119Y386500D01*
X221921Y386500D01*
X218966Y385276D01*
X216704Y383014D01*
X215480Y380059D01*
X215480Y376861D01*
X216704Y373906D01*
X218966Y371644D01*
X221921Y370420D01*
X225119Y370420D01*
X225647Y370639D01*
X225927Y370697D01*
X226225Y370641D01*
X226478Y370474D01*
X255301Y341650D01*
X255464Y341409D01*
X255524Y341111D01*
X255524Y258329D01*
X255468Y258043D01*
X255301Y257790D01*
X252750Y255239D01*
X252509Y255076D01*
X252211Y255016D01*
X204978Y255016D01*
X204703Y255067D01*
X204448Y255231D01*
X204276Y255481D01*
X204216Y255778D01*
X204216Y335161D01*
X204269Y335442D01*
X204435Y335696D01*
X204686Y335865D01*
X205214Y336084D01*
X207476Y338346D01*
X208700Y341301D01*
X208700Y344499D01*
X207476Y347454D01*
X205214Y349716D01*
X202259Y350940D01*
X199061Y350940D01*
X196106Y349716D01*
X193844Y347454D01*
X192620Y344499D01*
X192620Y341301D01*
X193844Y338346D01*
X196106Y336084D01*
X196634Y335865D01*
X196872Y335709D01*
X197044Y335459D01*
X197104Y335161D01*
X197104Y68874D01*
X197055Y68605D01*
X196894Y68348D01*
X196645Y68175D01*
X196348Y68112D01*
X196050Y68170D01*
X195061Y68580D01*
X191019Y68580D01*
X187285Y67033D01*
X184427Y64175D01*
X182880Y60441D01*
X182880Y42429D01*
X182833Y42165D01*
X182674Y41907D01*
X182426Y41732D01*
X182130Y41667D01*
X181832Y41722D01*
X181579Y41890D01*
X178023Y45446D01*
X177860Y45687D01*
X177800Y45985D01*
X177800Y60441D01*
X176253Y64175D01*
X173395Y67033D01*
X169661Y68580D01*
X165619Y68580D01*
X161885Y67033D01*
X159027Y64175D01*
X157480Y60441D01*
X157480Y41159D01*
X159027Y37425D01*
X161885Y34567D01*
X165619Y33020D01*
X169661Y33020D01*
X173395Y34567D01*
X175581Y36753D01*
X175811Y36911D01*
X176108Y36976D01*
X176406Y36920D01*
X176659Y36753D01*
X201188Y12223D01*
X201341Y12003D01*
X201411Y11708D01*
X201360Y11409D01*
X201197Y11154D01*
X200947Y10982D01*
G37*
%LPC*%
G36*
X277371Y452561D02*
X281413Y452561D01*
X285147Y454107D01*
X288005Y456965D01*
X289552Y460700D01*
X289552Y479981D01*
X288005Y483716D01*
X285147Y486574D01*
X283419Y487290D01*
X283180Y487446D01*
X283008Y487697D01*
X282948Y487994D01*
X282948Y498584D01*
X283004Y498870D01*
X283171Y499122D01*
X285730Y501681D01*
X285971Y501844D01*
X286269Y501904D01*
X331673Y501904D01*
X359156Y529387D01*
X359156Y582411D01*
X359212Y582697D01*
X359379Y582950D01*
X362802Y586374D01*
X363038Y586534D01*
X363335Y586597D01*
X363633Y586539D01*
X364161Y586320D01*
X367359Y586320D01*
X370314Y587544D01*
X372576Y589806D01*
X373800Y592761D01*
X373800Y595959D01*
X372576Y598914D01*
X370314Y601176D01*
X367359Y602400D01*
X364161Y602400D01*
X361206Y601176D01*
X358944Y598914D01*
X357720Y595959D01*
X357720Y592761D01*
X357939Y592233D01*
X357997Y591953D01*
X357941Y591655D01*
X357774Y591402D01*
X352044Y585673D01*
X352044Y532649D01*
X351988Y532363D01*
X351821Y532110D01*
X328950Y509239D01*
X328709Y509076D01*
X328411Y509016D01*
X283007Y509016D01*
X275836Y501845D01*
X275836Y487994D01*
X275783Y487713D01*
X275617Y487459D01*
X275366Y487290D01*
X273637Y486574D01*
X270779Y483716D01*
X269232Y479981D01*
X269232Y460700D01*
X270779Y456965D01*
X273637Y454107D01*
X277371Y452561D01*
G37*
G36*
X226571Y452561D02*
X230613Y452561D01*
X234347Y454107D01*
X237205Y456965D01*
X238752Y460700D01*
X238752Y479981D01*
X237205Y483716D01*
X234347Y486574D01*
X232619Y487290D01*
X232380Y487446D01*
X232208Y487697D01*
X232148Y487994D01*
X232148Y508744D01*
X232204Y509030D01*
X232371Y509282D01*
X247396Y524307D01*
X247396Y539231D01*
X247452Y539517D01*
X247619Y539770D01*
X262636Y554787D01*
X262636Y576461D01*
X262689Y576742D01*
X262855Y576996D01*
X263106Y577165D01*
X263634Y577384D01*
X265896Y579646D01*
X267120Y582601D01*
X267120Y585799D01*
X265896Y588754D01*
X263634Y591016D01*
X260679Y592240D01*
X257481Y592240D01*
X254526Y591016D01*
X252264Y588754D01*
X251040Y585799D01*
X251040Y582601D01*
X252264Y579646D01*
X254526Y577384D01*
X255054Y577165D01*
X255292Y577009D01*
X255464Y576759D01*
X255524Y576461D01*
X255524Y558049D01*
X255468Y557763D01*
X255301Y557510D01*
X240284Y542493D01*
X240284Y527569D01*
X240228Y527283D01*
X240061Y527030D01*
X225036Y512005D01*
X225036Y487994D01*
X224983Y487713D01*
X224817Y487459D01*
X224566Y487290D01*
X222837Y486574D01*
X219979Y483716D01*
X218432Y479981D01*
X218432Y460700D01*
X219979Y456965D01*
X222837Y454107D01*
X226571Y452561D01*
G37*
G36*
X353571Y452561D02*
X357613Y452561D01*
X361347Y454107D01*
X364205Y456965D01*
X365752Y460700D01*
X365752Y479981D01*
X364205Y483716D01*
X361347Y486574D01*
X357613Y488121D01*
X353571Y488121D01*
X349837Y486574D01*
X346979Y483716D01*
X345432Y479981D01*
X345432Y460700D01*
X346979Y456965D01*
X349837Y454107D01*
X353571Y452561D01*
G37*
G36*
X378971Y452561D02*
X383013Y452561D01*
X386747Y454107D01*
X389605Y456965D01*
X391152Y460700D01*
X391152Y479981D01*
X389605Y483716D01*
X386747Y486574D01*
X383013Y488121D01*
X378971Y488121D01*
X375237Y486574D01*
X372379Y483716D01*
X370832Y479981D01*
X370832Y460700D01*
X372379Y456965D01*
X375237Y454107D01*
X378971Y452561D01*
G37*
G36*
X175771Y452561D02*
X179813Y452561D01*
X183547Y454107D01*
X186405Y456965D01*
X187952Y460700D01*
X187952Y479981D01*
X186405Y483716D01*
X183547Y486574D01*
X179813Y488121D01*
X175771Y488121D01*
X172037Y486574D01*
X169179Y483716D01*
X167632Y479981D01*
X167632Y460700D01*
X169179Y456965D01*
X172037Y454107D01*
X175771Y452561D01*
G37*
G36*
X328171Y452561D02*
X332213Y452561D01*
X335947Y454107D01*
X338805Y456965D01*
X340352Y460700D01*
X340352Y479981D01*
X338805Y483716D01*
X335947Y486574D01*
X332213Y488121D01*
X328171Y488121D01*
X324437Y486574D01*
X321579Y483716D01*
X320032Y479981D01*
X320032Y460700D01*
X321579Y456965D01*
X324437Y454107D01*
X328171Y452561D01*
G37*
G36*
X302771Y452561D02*
X306813Y452561D01*
X310547Y454107D01*
X313405Y456965D01*
X314952Y460700D01*
X314952Y479981D01*
X313405Y483716D01*
X310547Y486574D01*
X306813Y488121D01*
X302771Y488121D01*
X299037Y486574D01*
X296179Y483716D01*
X294632Y479981D01*
X294632Y460700D01*
X296179Y456965D01*
X299037Y454107D01*
X302771Y452561D01*
G37*
G36*
X193032Y472373D02*
X201160Y472373D01*
X201160Y488116D01*
X197437Y486574D01*
X194579Y483716D01*
X193032Y479981D01*
X193032Y472373D01*
G37*
G36*
X205224Y472373D02*
X213352Y472373D01*
X213352Y479981D01*
X211805Y483716D01*
X208947Y486574D01*
X205224Y488116D01*
X205224Y472373D01*
G37*
G36*
X495300Y434718D02*
X519684Y434718D01*
X519684Y435111D01*
X517828Y439592D01*
X514398Y443022D01*
X510390Y444682D01*
X510165Y444826D01*
X509988Y445072D01*
X509920Y445368D01*
X509973Y445666D01*
X510139Y445920D01*
X510390Y446090D01*
X514398Y447750D01*
X517828Y451180D01*
X519684Y455661D01*
X519684Y460511D01*
X517828Y464992D01*
X514398Y468422D01*
X509917Y470278D01*
X505067Y470278D01*
X500586Y468422D01*
X497156Y464992D01*
X495300Y460511D01*
X495300Y455661D01*
X497156Y451180D01*
X500586Y447750D01*
X504594Y446090D01*
X504819Y445946D01*
X504996Y445700D01*
X505064Y445404D01*
X505011Y445106D01*
X504845Y444851D01*
X504594Y444682D01*
X500586Y443022D01*
X497156Y439592D01*
X495300Y435111D01*
X495300Y434718D01*
G37*
G36*
X205224Y468309D02*
X205224Y452565D01*
X208947Y454107D01*
X211805Y456965D01*
X213352Y460700D01*
X213352Y468309D01*
X205224Y468309D01*
G37*
G36*
X197437Y454107D02*
X201160Y452565D01*
X201160Y468309D01*
X193032Y468309D01*
X193032Y460700D01*
X194579Y456965D01*
X197437Y454107D01*
G37*
G36*
X293041Y426300D02*
X296239Y426300D01*
X299194Y427524D01*
X301456Y429786D01*
X302680Y432741D01*
X302680Y435939D01*
X301456Y438894D01*
X299194Y441156D01*
X296239Y442380D01*
X293041Y442380D01*
X290086Y441156D01*
X287824Y438894D01*
X287605Y438366D01*
X287449Y438128D01*
X287199Y437956D01*
X286901Y437896D01*
X65289Y437896D01*
X65003Y437952D01*
X64750Y438119D01*
X57119Y445750D01*
X56956Y445991D01*
X56896Y446289D01*
X56896Y449461D01*
X56949Y449742D01*
X57115Y449996D01*
X57366Y450165D01*
X57894Y450384D01*
X60156Y452646D01*
X61380Y455601D01*
X61380Y458799D01*
X60156Y461754D01*
X57894Y464016D01*
X54939Y465240D01*
X51741Y465240D01*
X48786Y464016D01*
X46524Y461754D01*
X45300Y458799D01*
X45300Y455601D01*
X46524Y452646D01*
X48786Y450384D01*
X49314Y450165D01*
X49552Y450009D01*
X49724Y449759D01*
X49784Y449461D01*
X49784Y443027D01*
X62027Y430784D01*
X286901Y430784D01*
X287182Y430731D01*
X287436Y430565D01*
X287605Y430314D01*
X287824Y429786D01*
X290086Y427524D01*
X293041Y426300D01*
G37*
G36*
X495300Y409318D02*
X519684Y409318D01*
X519684Y409711D01*
X517828Y414192D01*
X514398Y417622D01*
X510390Y419282D01*
X510165Y419426D01*
X509988Y419672D01*
X509920Y419968D01*
X509973Y420266D01*
X510139Y420520D01*
X510390Y420690D01*
X514398Y422350D01*
X517828Y425780D01*
X519684Y430261D01*
X519684Y430654D01*
X495300Y430654D01*
X495300Y430261D01*
X497156Y425780D01*
X500586Y422350D01*
X504594Y420690D01*
X504819Y420546D01*
X504996Y420300D01*
X505064Y420004D01*
X505011Y419706D01*
X504845Y419451D01*
X504594Y419282D01*
X500586Y417622D01*
X497156Y414192D01*
X495300Y409711D01*
X495300Y409318D01*
G37*
G36*
X114819Y33020D02*
X118861Y33020D01*
X122595Y34567D01*
X125453Y37425D01*
X127000Y41159D01*
X127000Y60441D01*
X125453Y64175D01*
X122595Y67033D01*
X120866Y67749D01*
X120628Y67906D01*
X120456Y68156D01*
X120396Y68453D01*
X120396Y69331D01*
X120452Y69617D01*
X120619Y69870D01*
X130790Y80041D01*
X131031Y80204D01*
X131329Y80264D01*
X151333Y80264D01*
X166116Y95047D01*
X166116Y343651D01*
X166172Y343937D01*
X166339Y344190D01*
X176510Y354361D01*
X176751Y354524D01*
X177049Y354584D01*
X214111Y354584D01*
X214397Y354528D01*
X214650Y354361D01*
X217201Y351810D01*
X217364Y351569D01*
X217424Y351271D01*
X217424Y279519D01*
X217371Y279238D01*
X217205Y278984D01*
X216954Y278815D01*
X216426Y278596D01*
X214164Y276334D01*
X212940Y273379D01*
X212940Y270181D01*
X214164Y267226D01*
X216426Y264964D01*
X219381Y263740D01*
X222579Y263740D01*
X225534Y264964D01*
X227796Y267226D01*
X229020Y270181D01*
X229020Y273379D01*
X227796Y276334D01*
X225534Y278596D01*
X225006Y278815D01*
X224768Y278971D01*
X224596Y279221D01*
X224536Y279519D01*
X224536Y354533D01*
X217373Y361696D01*
X173787Y361696D01*
X159004Y346913D01*
X159004Y98309D01*
X158948Y98023D01*
X158781Y97770D01*
X148610Y87599D01*
X148369Y87436D01*
X148071Y87376D01*
X128067Y87376D01*
X113284Y72593D01*
X113284Y68453D01*
X113231Y68173D01*
X113065Y67919D01*
X112814Y67749D01*
X111085Y67033D01*
X108227Y64175D01*
X106680Y60441D01*
X106680Y41159D01*
X108227Y37425D01*
X111085Y34567D01*
X114819Y33020D01*
G37*
G36*
X384481Y304380D02*
X387679Y304380D01*
X390634Y305604D01*
X392896Y307866D01*
X393115Y308394D01*
X393271Y308632D01*
X393521Y308804D01*
X393819Y308864D01*
X448513Y308864D01*
X454242Y314594D01*
X454478Y314754D01*
X454775Y314817D01*
X455073Y314759D01*
X455601Y314540D01*
X458799Y314540D01*
X461754Y315764D01*
X464016Y318026D01*
X465240Y320981D01*
X465240Y324179D01*
X464016Y327134D01*
X461754Y329396D01*
X458799Y330620D01*
X455601Y330620D01*
X452646Y329396D01*
X450384Y327134D01*
X449160Y324179D01*
X449160Y320981D01*
X449379Y320453D01*
X449437Y320173D01*
X449381Y319875D01*
X449214Y319622D01*
X445790Y316199D01*
X445549Y316036D01*
X445251Y315976D01*
X393819Y315976D01*
X393538Y316029D01*
X393284Y316195D01*
X393115Y316446D01*
X392896Y316974D01*
X390634Y319236D01*
X387679Y320460D01*
X384481Y320460D01*
X381526Y319236D01*
X379264Y316974D01*
X378040Y314019D01*
X378040Y310821D01*
X379264Y307866D01*
X381526Y305604D01*
X384481Y304380D01*
G37*
G36*
X140219Y33020D02*
X144261Y33020D01*
X147995Y34567D01*
X150853Y37425D01*
X152400Y41159D01*
X152400Y60441D01*
X150853Y64175D01*
X148765Y66263D01*
X148612Y66483D01*
X148542Y66778D01*
X148593Y67077D01*
X148757Y67332D01*
X149007Y67504D01*
X149304Y67564D01*
X158953Y67564D01*
X181356Y89967D01*
X181356Y258961D01*
X181409Y259242D01*
X181575Y259496D01*
X181826Y259665D01*
X182354Y259884D01*
X184616Y262146D01*
X185840Y265101D01*
X185840Y268299D01*
X184616Y271254D01*
X182354Y273516D01*
X179399Y274740D01*
X176201Y274740D01*
X173246Y273516D01*
X170984Y271254D01*
X169760Y268299D01*
X169760Y265101D01*
X170984Y262146D01*
X173246Y259884D01*
X173774Y259665D01*
X174012Y259509D01*
X174184Y259259D01*
X174244Y258961D01*
X174244Y93229D01*
X174188Y92943D01*
X174021Y92690D01*
X156230Y74899D01*
X155989Y74736D01*
X155691Y74676D01*
X140767Y74676D01*
X138684Y72593D01*
X138684Y68453D01*
X138631Y68173D01*
X138465Y67919D01*
X138214Y67749D01*
X136485Y67033D01*
X133627Y64175D01*
X132080Y60441D01*
X132080Y41159D01*
X133627Y37425D01*
X136485Y34567D01*
X140219Y33020D01*
G37*
G36*
X293041Y75780D02*
X296239Y75780D01*
X299194Y77004D01*
X301456Y79266D01*
X302680Y82221D01*
X302680Y85419D01*
X301456Y88374D01*
X299194Y90636D01*
X298666Y90855D01*
X298428Y91011D01*
X298256Y91261D01*
X298196Y91559D01*
X298196Y256030D01*
X298252Y256316D01*
X298419Y256569D01*
X300186Y258336D01*
X301410Y261291D01*
X301410Y264489D01*
X300186Y267444D01*
X297924Y269706D01*
X294969Y270930D01*
X291771Y270930D01*
X288816Y269706D01*
X286554Y267444D01*
X285330Y264489D01*
X285330Y261291D01*
X286554Y258336D01*
X288816Y256074D01*
X290614Y255329D01*
X290852Y255173D01*
X291024Y254923D01*
X291084Y254625D01*
X291084Y91559D01*
X291031Y91278D01*
X290865Y91024D01*
X290614Y90855D01*
X290086Y90636D01*
X287824Y88374D01*
X286600Y85419D01*
X286600Y82221D01*
X287824Y79266D01*
X290086Y77004D01*
X293041Y75780D01*
G37*
G36*
X232081Y154520D02*
X235279Y154520D01*
X238234Y155744D01*
X240496Y158006D01*
X241720Y160961D01*
X241720Y164159D01*
X240496Y167114D01*
X239999Y167611D01*
X239836Y167853D01*
X239776Y168150D01*
X239776Y220861D01*
X239829Y221142D01*
X239995Y221396D01*
X240246Y221565D01*
X240774Y221784D01*
X243036Y224046D01*
X244260Y227001D01*
X244260Y230199D01*
X243036Y233154D01*
X240774Y235416D01*
X237819Y236640D01*
X234621Y236640D01*
X231666Y235416D01*
X229404Y233154D01*
X228180Y230199D01*
X228180Y227001D01*
X229404Y224046D01*
X231666Y221784D01*
X232194Y221565D01*
X232432Y221409D01*
X232604Y221159D01*
X232664Y220861D01*
X232664Y171351D01*
X232611Y171070D01*
X232445Y170816D01*
X232194Y170647D01*
X229126Y169376D01*
X226864Y167114D01*
X225640Y164159D01*
X225640Y160961D01*
X226864Y158006D01*
X229126Y155744D01*
X232081Y154520D01*
G37*
G36*
X308281Y154520D02*
X311479Y154520D01*
X314434Y155744D01*
X316696Y158006D01*
X317920Y160961D01*
X317920Y164159D01*
X316696Y167114D01*
X314434Y169376D01*
X313906Y169595D01*
X313668Y169751D01*
X313496Y170001D01*
X313436Y170299D01*
X313436Y210701D01*
X313489Y210982D01*
X313655Y211236D01*
X313906Y211405D01*
X314434Y211624D01*
X316696Y213886D01*
X317920Y216841D01*
X317920Y220039D01*
X316696Y222994D01*
X314434Y225256D01*
X311479Y226480D01*
X308281Y226480D01*
X305326Y225256D01*
X303064Y222994D01*
X301840Y220039D01*
X301840Y216841D01*
X303064Y213886D01*
X305326Y211624D01*
X305854Y211405D01*
X306092Y211249D01*
X306264Y210999D01*
X306324Y210701D01*
X306324Y170299D01*
X306271Y170018D01*
X306105Y169764D01*
X305854Y169595D01*
X305326Y169376D01*
X303064Y167114D01*
X301840Y164159D01*
X301840Y160961D01*
X303064Y158006D01*
X305326Y155744D01*
X308281Y154520D01*
G37*
G36*
X56821Y93560D02*
X60019Y93560D01*
X62974Y94784D01*
X65236Y97046D01*
X66460Y100001D01*
X66460Y103199D01*
X65236Y106154D01*
X62974Y108416D01*
X62446Y108635D01*
X62208Y108791D01*
X62036Y109041D01*
X61976Y109339D01*
X61976Y127751D01*
X62032Y128037D01*
X62199Y128290D01*
X88482Y154574D01*
X88718Y154734D01*
X89015Y154797D01*
X89313Y154739D01*
X89841Y154520D01*
X93039Y154520D01*
X95994Y155744D01*
X98256Y158006D01*
X99480Y160961D01*
X99480Y164159D01*
X98256Y167114D01*
X95994Y169376D01*
X93039Y170600D01*
X89841Y170600D01*
X86886Y169376D01*
X84624Y167114D01*
X83400Y164159D01*
X83400Y160961D01*
X83619Y160433D01*
X83677Y160153D01*
X83621Y159855D01*
X83454Y159602D01*
X54864Y131013D01*
X54864Y109339D01*
X54811Y109058D01*
X54645Y108804D01*
X54394Y108635D01*
X53866Y108416D01*
X51604Y106154D01*
X50380Y103199D01*
X50380Y100001D01*
X51604Y97046D01*
X53866Y94784D01*
X56821Y93560D01*
G37*
G36*
X64019Y33020D02*
X68061Y33020D01*
X71795Y34567D01*
X74653Y37425D01*
X76200Y41159D01*
X76200Y60441D01*
X74653Y64175D01*
X71795Y67033D01*
X68061Y68580D01*
X64019Y68580D01*
X60285Y67033D01*
X57427Y64175D01*
X55880Y60441D01*
X55880Y41159D01*
X57427Y37425D01*
X60285Y34567D01*
X64019Y33020D01*
G37*
G36*
X208280Y52832D02*
X216408Y52832D01*
X216408Y68575D01*
X212685Y67033D01*
X209827Y64175D01*
X208280Y60441D01*
X208280Y52832D01*
G37*
G36*
X220472Y52832D02*
X228600Y52832D01*
X228600Y60441D01*
X227053Y64175D01*
X224195Y67033D01*
X220472Y68575D01*
X220472Y52832D01*
G37*
G36*
X30480Y52832D02*
X38608Y52832D01*
X38608Y68575D01*
X34885Y67033D01*
X32027Y64175D01*
X30480Y60441D01*
X30480Y52832D01*
G37*
G36*
X42672Y52832D02*
X50800Y52832D01*
X50800Y60441D01*
X49253Y64175D01*
X46395Y67033D01*
X42672Y68575D01*
X42672Y52832D01*
G37*
G36*
X34885Y34567D02*
X38608Y33025D01*
X38608Y48768D01*
X30480Y48768D01*
X30480Y41159D01*
X32027Y37425D01*
X34885Y34567D01*
G37*
G36*
X220472Y48768D02*
X220472Y33025D01*
X224195Y34567D01*
X227053Y37425D01*
X228600Y41159D01*
X228600Y48768D01*
X220472Y48768D01*
G37*
G36*
X212685Y34567D02*
X216408Y33025D01*
X216408Y48768D01*
X208280Y48768D01*
X208280Y41159D01*
X209827Y37425D01*
X212685Y34567D01*
G37*
G36*
X42672Y48768D02*
X42672Y33025D01*
X46395Y34567D01*
X49253Y37425D01*
X50800Y41159D01*
X50800Y48768D01*
X42672Y48768D01*
G37*
%LPD*%
D10*
X507492Y280286D03*
X507492Y305686D03*
X507492Y331086D03*
X507492Y356486D03*
X507492Y381886D03*
X507492Y407286D03*
X507492Y432686D03*
X507492Y458086D03*
X507492Y508886D03*
X507492Y534286D03*
X507492Y559686D03*
X507492Y585086D03*
X507492Y610486D03*
X507492Y635886D03*
X24892Y635886D03*
X24892Y610486D03*
X24892Y585086D03*
X24892Y559686D03*
X24892Y534286D03*
X24892Y508886D03*
X24892Y483486D03*
X24892Y458086D03*
X24892Y417446D03*
X24892Y392046D03*
X24892Y366646D03*
X24892Y341246D03*
X24892Y315846D03*
X24892Y290446D03*
X24892Y265046D03*
X24892Y239646D03*
X24892Y214246D03*
X24892Y188846D03*
X228592Y637286D03*
X228592Y662686D03*
X253992Y637286D03*
X253992Y662686D03*
X279392Y637286D03*
X279392Y662686D03*
D11*
X218440Y58420D02*
X218440Y43180D01*
X193040Y43180D02*
X193040Y58420D01*
X167640Y58420D02*
X167640Y43180D01*
X142240Y43180D02*
X142240Y58420D01*
X116840Y58420D02*
X116840Y43180D01*
X91440Y43180D02*
X91440Y58420D01*
X66040Y58420D02*
X66040Y43180D01*
X40640Y43180D02*
X40640Y58420D01*
X177792Y462721D02*
X177792Y477961D01*
X203192Y477961D02*
X203192Y462721D01*
X228592Y462721D02*
X228592Y477961D01*
X253992Y477961D02*
X253992Y462721D01*
X279392Y462721D02*
X279392Y477961D01*
X304792Y477961D02*
X304792Y462721D01*
X330192Y462721D02*
X330192Y477961D01*
X355592Y477961D02*
X355592Y462721D01*
X380992Y462721D02*
X380992Y477961D01*
D12*
X439420Y251460D03*
X180340Y309880D03*
X355600Y396240D03*
D13*
X463804Y374853D02*
X463804Y371154D01*
X458216Y613613D02*
X453593Y618236D01*
X75410Y569380D02*
X70700Y564670D01*
X117311Y569380D02*
X166167Y618236D01*
X117311Y569380D02*
X75410Y569380D01*
D12*
X314960Y254000D03*
X134620Y627380D03*
X431800Y500380D03*
D13*
X446024Y590347D02*
X432867Y603504D01*
X169113Y603504D01*
X493180Y392974D02*
X507492Y407286D01*
X419151Y401320D02*
X409956Y392125D01*
X409956Y366827D01*
X392633Y349504D01*
X70700Y555470D02*
X70700Y564670D01*
X70700Y555470D02*
X77950Y548220D01*
X113829Y548220D01*
X169113Y603504D01*
D12*
X177800Y266700D03*
D13*
X177800Y91440D01*
X172720Y86360D01*
X157480Y71120D01*
X142240Y71120D01*
X142240Y50800D01*
D12*
X236220Y228600D03*
D13*
X236220Y165100D01*
X233680Y162560D01*
D12*
X233680Y162560D03*
X431800Y154940D03*
D13*
X474980Y154940D01*
X480060Y160020D01*
D12*
X480060Y160020D03*
X60960Y233680D03*
X172720Y391160D03*
D13*
X127000Y233680D02*
X60960Y233680D01*
X127000Y233680D02*
X137160Y243840D01*
X149860Y256540D01*
X149860Y355600D01*
X167640Y373380D01*
X172720Y373380D01*
X172720Y391160D01*
D12*
X439420Y210820D03*
D13*
X414020Y210820D01*
X363220Y261620D01*
X355600Y269240D01*
X355600Y337820D01*
X350520Y342900D01*
X281940Y342900D01*
X231140Y393700D01*
X175260Y393700D01*
X172720Y391160D01*
D12*
X48260Y213360D03*
X109220Y383540D03*
D13*
X48260Y243840D02*
X48260Y213360D01*
X48260Y243840D02*
X53340Y248920D01*
X86360Y248920D01*
X109220Y271780D01*
X109220Y383540D01*
D12*
X439420Y231140D03*
D13*
X414020Y231140D01*
X236220Y403860D02*
X121920Y403860D01*
X119380Y403860D01*
X106680Y391160D01*
X106680Y386080D01*
X109220Y383540D01*
X365760Y332689D02*
X365760Y279400D01*
X365760Y332689D02*
X349961Y348488D01*
X291592Y348488D01*
X365760Y279400D02*
X414020Y231140D01*
X291592Y348488D02*
X236220Y403860D01*
D12*
X434340Y73660D03*
X200660Y342900D03*
D13*
X408940Y73660D02*
X406400Y71120D01*
X358140Y22860D01*
X208280Y22860D01*
X193040Y38100D01*
X193040Y50800D01*
X200660Y251460D02*
X200660Y342900D01*
X200660Y251460D02*
X200660Y58420D01*
X193040Y50800D01*
D12*
X223520Y378460D03*
D13*
X259080Y342900D01*
X259080Y256540D01*
X254000Y251460D01*
X200660Y251460D01*
X408940Y73660D02*
X434340Y73660D01*
D12*
X434340Y55880D03*
X337820Y322580D03*
D13*
X337820Y226060D01*
X449580Y114300D01*
X449580Y60960D01*
X444500Y55880D01*
X434340Y55880D01*
X403860Y55880D02*
X360680Y12700D01*
X208280Y12700D01*
X205740Y12700D01*
X167640Y50800D01*
X480060Y506854D02*
X507492Y534286D01*
X480060Y506854D02*
X480060Y353060D01*
D12*
X480060Y353060D03*
X457200Y322580D03*
D13*
X447040Y312420D01*
X393700Y312420D01*
X386080Y312420D01*
D12*
X386080Y312420D03*
D13*
X403860Y55880D02*
X434340Y55880D01*
X91440Y50800D02*
X91440Y73660D01*
X116840Y99060D01*
X119380Y101600D01*
X149860Y101600D01*
X149860Y215900D01*
X147320Y218440D02*
X147320Y236220D01*
X147320Y218440D02*
X149860Y215900D01*
D12*
X147320Y236220D03*
X121920Y312420D03*
X111760Y241720D03*
D13*
X121920Y251880D01*
X121920Y312420D01*
D12*
X294640Y83820D03*
D13*
X294640Y259080D01*
X292100Y261620D01*
X293370Y262890D01*
D12*
X293370Y262890D03*
X309880Y218440D03*
D13*
X309880Y162560D01*
D12*
X309880Y162560D03*
X53340Y457200D03*
X294640Y434340D03*
D13*
X53340Y444500D02*
X53340Y457200D01*
X53340Y444500D02*
X60960Y436880D01*
X63500Y434340D01*
X294640Y434340D01*
D12*
X220980Y271780D03*
D13*
X220980Y353060D01*
X215900Y358140D01*
X175260Y358140D01*
X162560Y345440D01*
X162560Y259080D01*
X162560Y96520D01*
X149860Y83820D01*
X129540Y83820D01*
X116840Y71120D01*
X116840Y50800D01*
X489334Y331086D02*
X507492Y331086D01*
X489334Y331086D02*
X482600Y337820D01*
X424180Y337820D01*
X416560Y345440D01*
X416560Y388620D01*
X439420Y411480D01*
X452120Y411480D01*
X454660Y414020D01*
X165100Y609600D02*
X124460Y568960D01*
X116840Y561340D01*
X83820Y561340D01*
X81280Y561340D01*
X81280Y558800D01*
D12*
X81280Y558800D03*
D13*
X454660Y594360D02*
X454660Y414020D01*
X454660Y594360D02*
X439420Y609600D01*
X165100Y609600D01*
X228592Y510532D02*
X228592Y470341D01*
X228592Y510532D02*
X228600Y510540D01*
X243840Y525780D01*
X243840Y541020D01*
D12*
X259080Y584200D03*
D13*
X259080Y556260D01*
X243840Y541020D01*
X253992Y470341D02*
X251460Y467808D01*
X251460Y444500D01*
X139700Y444500D01*
X55880Y528320D01*
X55880Y599440D01*
X68580Y612140D01*
X139700Y612140D01*
X154940Y627380D01*
X188497Y634235D02*
X191548Y637286D01*
X228592Y637286D01*
X161795Y634235D02*
X154940Y627380D01*
X161795Y634235D02*
X188497Y634235D01*
X279392Y500372D02*
X279392Y470341D01*
X279392Y500372D02*
X279400Y500380D01*
X284480Y505460D01*
X294640Y505460D01*
X330200Y505460D01*
X355600Y530860D01*
X355600Y568960D01*
X355600Y584200D01*
X365760Y594360D01*
D12*
X365760Y594360D03*
X363220Y647700D03*
D13*
X286220Y647700D01*
X284442Y649478D01*
X267200Y649478D02*
X253992Y662686D01*
X267200Y649478D02*
X284442Y649478D01*
X496186Y610486D02*
X507492Y610486D01*
X496186Y610486D02*
X487680Y601980D01*
X474980Y589280D01*
X474980Y467360D01*
X474980Y396240D01*
X452120Y373380D01*
D12*
X452120Y373380D03*
X58420Y101600D03*
X91440Y162560D03*
D13*
X60960Y132080D01*
X58420Y129540D01*
X58420Y101600D01*
X486026Y635886D02*
X507492Y635886D01*
X486026Y635886D02*
X480060Y629920D01*
X474980Y624840D01*
X464820Y614680D01*
X464820Y571500D01*
X464820Y464820D01*
D12*
X431800Y375920D03*
D13*
X464820Y408940D01*
X464820Y464820D01*
D12*
X426720Y444500D03*
D13*
X330200Y444500D01*
X299720Y414020D01*
X287020Y414020D01*
X281940Y419100D01*
X279400Y421640D01*
X76200Y421640D01*
X66040Y411480D01*
X66040Y350520D01*
X56766Y341246D01*
X24892Y341246D01*
D12*
X332740Y365760D03*
D13*
X320040Y365760D01*
X276860Y408940D01*
X274320Y411480D01*
X111760Y411480D01*
X91440Y411480D01*
X88900Y408940D01*
X83820Y403860D01*
X83820Y289560D01*
X25778Y289560D01*
X24892Y290446D01*
D12*
X439420Y467360D03*
X294640Y368300D03*
D13*
X439420Y467360D02*
X447040Y459740D01*
X447040Y429260D01*
X444500Y426720D01*
X429260Y426720D01*
X403860Y401320D01*
X403860Y388620D01*
X383540Y368300D01*
X355600Y368300D01*
X342900Y355600D01*
X337820Y355600D01*
X309880Y355600D01*
X307340Y358140D01*
X297180Y368300D01*
X294640Y368300D01*
M02*
