G04 EAGLE Gerber RS-274X export*
G75*
%MOMM*%
%FSLAX34Y34*%
%LPD*%
%INSilkscreen Top*%
%IPPOS*%
%AMOC8*
5,1,8,0,0,1.08239X$1,22.5*%
G01*
G04 Define Apertures*
%ADD10C,0.120000*%
%ADD11C,0.127000*%
%ADD12C,0.200000*%
%ADD13C,0.152400*%
%ADD14C,0.500000*%
G36*
X430518Y585995D02*
X429969Y586007D01*
X429450Y586044D01*
X428960Y586105D01*
X428500Y586191D01*
X428070Y586301D01*
X427669Y586436D01*
X427297Y586595D01*
X426956Y586779D01*
X426644Y586987D01*
X426362Y587220D01*
X426109Y587477D01*
X425886Y587759D01*
X425692Y588065D01*
X425528Y588395D01*
X425394Y588751D01*
X425290Y589130D01*
X426910Y589454D01*
X426990Y589186D01*
X427089Y588935D01*
X427209Y588703D01*
X427348Y588490D01*
X427507Y588295D01*
X427685Y588119D01*
X427883Y587961D01*
X428101Y587821D01*
X428339Y587699D01*
X428598Y587593D01*
X428877Y587503D01*
X429176Y587430D01*
X429496Y587373D01*
X429837Y587332D01*
X430198Y587308D01*
X430580Y587300D01*
X430973Y587309D01*
X431344Y587335D01*
X431691Y587378D01*
X432015Y587439D01*
X432316Y587517D01*
X432594Y587613D01*
X432849Y587726D01*
X433080Y587856D01*
X433287Y588003D01*
X433465Y588167D01*
X433617Y588346D01*
X433740Y588542D01*
X433837Y588755D01*
X433905Y588983D01*
X433947Y589228D01*
X433961Y589489D01*
X433943Y589777D01*
X433892Y590037D01*
X433805Y590268D01*
X433685Y590470D01*
X433533Y590651D01*
X433353Y590814D01*
X433145Y590961D01*
X432909Y591092D01*
X432648Y591210D01*
X432362Y591318D01*
X432052Y591416D01*
X431718Y591504D01*
X430186Y591863D01*
X429498Y592025D01*
X428899Y592187D01*
X428388Y592349D01*
X427965Y592511D01*
X427606Y592678D01*
X427288Y592854D01*
X427009Y593039D01*
X426770Y593234D01*
X426564Y593442D01*
X426383Y593666D01*
X426229Y593908D01*
X426100Y594167D01*
X425998Y594444D01*
X425926Y594740D01*
X425882Y595057D01*
X425868Y595393D01*
X425887Y595778D01*
X425943Y596140D01*
X426038Y596479D01*
X426171Y596796D01*
X426341Y597090D01*
X426550Y597362D01*
X426796Y597610D01*
X427081Y597836D01*
X427400Y598038D01*
X427753Y598212D01*
X428138Y598359D01*
X428555Y598480D01*
X429006Y598574D01*
X429489Y598641D01*
X430005Y598681D01*
X430553Y598695D01*
X431063Y598685D01*
X431543Y598654D01*
X431991Y598604D01*
X432408Y598534D01*
X432794Y598443D01*
X433150Y598333D01*
X433474Y598202D01*
X433768Y598051D01*
X434035Y597876D01*
X434282Y597672D01*
X434508Y597441D01*
X434714Y597181D01*
X434898Y596892D01*
X435062Y596575D01*
X435205Y596230D01*
X435327Y595857D01*
X433680Y595568D01*
X433605Y595805D01*
X433514Y596025D01*
X433408Y596228D01*
X433286Y596414D01*
X433149Y596584D01*
X432997Y596736D01*
X432830Y596872D01*
X432647Y596991D01*
X432447Y597095D01*
X432229Y597185D01*
X431993Y597261D01*
X431738Y597323D01*
X431465Y597371D01*
X431174Y597406D01*
X430864Y597427D01*
X430536Y597433D01*
X430177Y597426D01*
X429840Y597403D01*
X429524Y597365D01*
X429231Y597311D01*
X428959Y597242D01*
X428710Y597158D01*
X428482Y597058D01*
X428276Y596943D01*
X428094Y596813D01*
X427935Y596668D01*
X427801Y596507D01*
X427692Y596332D01*
X427606Y596142D01*
X427545Y595936D01*
X427509Y595716D01*
X427497Y595480D01*
X427516Y595208D01*
X427572Y594960D01*
X427667Y594737D01*
X427799Y594539D01*
X427967Y594360D01*
X428168Y594195D01*
X428402Y594044D01*
X428670Y593908D01*
X429026Y593772D01*
X429522Y593620D01*
X430160Y593454D01*
X430939Y593273D01*
X432073Y593006D01*
X432626Y592857D01*
X433155Y592682D01*
X433655Y592477D01*
X434123Y592240D01*
X434341Y592106D01*
X434544Y591957D01*
X434733Y591795D01*
X434906Y591618D01*
X435064Y591426D01*
X435203Y591217D01*
X435324Y590992D01*
X435428Y590751D01*
X435510Y590490D01*
X435569Y590208D01*
X435604Y589903D01*
X435616Y589577D01*
X435595Y589162D01*
X435532Y588771D01*
X435428Y588405D01*
X435282Y588062D01*
X435094Y587743D01*
X434865Y587449D01*
X434593Y587178D01*
X434280Y586932D01*
X433929Y586712D01*
X433544Y586522D01*
X433125Y586361D01*
X432672Y586229D01*
X432185Y586127D01*
X431663Y586053D01*
X431108Y586010D01*
X430518Y585995D01*
G37*
G36*
X398002Y585995D02*
X397630Y586003D01*
X397269Y586029D01*
X396920Y586072D01*
X396584Y586133D01*
X396259Y586210D01*
X395946Y586305D01*
X395646Y586417D01*
X395357Y586547D01*
X395083Y586692D01*
X394824Y586854D01*
X394581Y587031D01*
X394355Y587223D01*
X394144Y587431D01*
X393948Y587655D01*
X393769Y587894D01*
X393606Y588149D01*
X393460Y588418D01*
X393334Y588700D01*
X393227Y588994D01*
X393139Y589301D01*
X393071Y589621D01*
X393023Y589953D01*
X392994Y590297D01*
X392984Y590654D01*
X392984Y598511D01*
X394657Y598511D01*
X394657Y590795D01*
X394670Y590385D01*
X394710Y590000D01*
X394777Y589641D01*
X394871Y589308D01*
X394992Y589000D01*
X395140Y588717D01*
X395314Y588460D01*
X395515Y588228D01*
X395742Y588023D01*
X395992Y587845D01*
X396266Y587695D01*
X396564Y587571D01*
X396886Y587476D01*
X397231Y587407D01*
X397601Y587366D01*
X397994Y587352D01*
X398398Y587367D01*
X398780Y587409D01*
X399138Y587480D01*
X399473Y587579D01*
X399785Y587707D01*
X400074Y587862D01*
X400339Y588046D01*
X400582Y588259D01*
X400798Y588499D01*
X400986Y588764D01*
X401145Y589056D01*
X401275Y589375D01*
X401376Y589719D01*
X401448Y590089D01*
X401491Y590486D01*
X401506Y590908D01*
X401506Y598511D01*
X403170Y598511D01*
X403170Y590812D01*
X403160Y590444D01*
X403130Y590089D01*
X403081Y589747D01*
X403011Y589417D01*
X402922Y589101D01*
X402813Y588797D01*
X402684Y588506D01*
X402535Y588228D01*
X402368Y587965D01*
X402185Y587717D01*
X401985Y587486D01*
X401769Y587270D01*
X401536Y587071D01*
X401287Y586887D01*
X401021Y586720D01*
X400740Y586569D01*
X400443Y586434D01*
X400133Y586318D01*
X399811Y586219D01*
X399475Y586138D01*
X399126Y586076D01*
X398765Y586031D01*
X398390Y586004D01*
X398002Y585995D01*
G37*
G36*
X418606Y586170D02*
X410873Y586170D01*
X410873Y587510D01*
X414017Y587510D01*
X414017Y597004D01*
X411232Y595016D01*
X411232Y596505D01*
X414148Y598511D01*
X415602Y598511D01*
X415602Y587510D01*
X418606Y587510D01*
X418606Y586170D01*
G37*
G36*
X445544Y586170D02*
X437810Y586170D01*
X437810Y587510D01*
X440954Y587510D01*
X440954Y597004D01*
X438169Y595016D01*
X438169Y596505D01*
X441086Y598511D01*
X442540Y598511D01*
X442540Y587510D01*
X445544Y587510D01*
X445544Y586170D01*
G37*
G36*
X407866Y586170D02*
X406193Y586170D01*
X406193Y598511D01*
X407866Y598511D01*
X407866Y586170D01*
G37*
G36*
X422852Y586170D02*
X421144Y586170D01*
X421144Y587983D01*
X422852Y587983D01*
X422852Y586170D01*
G37*
G36*
X422852Y593834D02*
X421144Y593834D01*
X421144Y595647D01*
X422852Y595647D01*
X422852Y593834D01*
G37*
G36*
X321298Y585995D02*
X320749Y586007D01*
X320230Y586044D01*
X319740Y586105D01*
X319280Y586191D01*
X318850Y586301D01*
X318449Y586436D01*
X318077Y586595D01*
X317736Y586779D01*
X317424Y586987D01*
X317142Y587220D01*
X316889Y587477D01*
X316666Y587759D01*
X316472Y588065D01*
X316308Y588395D01*
X316174Y588751D01*
X316070Y589130D01*
X317690Y589454D01*
X317770Y589186D01*
X317869Y588935D01*
X317989Y588703D01*
X318128Y588490D01*
X318287Y588295D01*
X318465Y588119D01*
X318663Y587961D01*
X318881Y587821D01*
X319119Y587699D01*
X319378Y587593D01*
X319657Y587503D01*
X319956Y587430D01*
X320276Y587373D01*
X320617Y587332D01*
X320978Y587308D01*
X321360Y587300D01*
X321753Y587309D01*
X322124Y587335D01*
X322471Y587378D01*
X322795Y587439D01*
X323096Y587517D01*
X323374Y587613D01*
X323629Y587726D01*
X323860Y587856D01*
X324067Y588003D01*
X324245Y588167D01*
X324397Y588346D01*
X324520Y588542D01*
X324617Y588755D01*
X324685Y588983D01*
X324727Y589228D01*
X324741Y589489D01*
X324723Y589777D01*
X324672Y590037D01*
X324585Y590268D01*
X324465Y590470D01*
X324313Y590651D01*
X324133Y590814D01*
X323925Y590961D01*
X323689Y591092D01*
X323428Y591210D01*
X323142Y591318D01*
X322832Y591416D01*
X322498Y591504D01*
X320966Y591863D01*
X320278Y592025D01*
X319679Y592187D01*
X319168Y592349D01*
X318745Y592511D01*
X318386Y592678D01*
X318068Y592854D01*
X317789Y593039D01*
X317550Y593234D01*
X317344Y593442D01*
X317163Y593666D01*
X317009Y593908D01*
X316880Y594167D01*
X316778Y594444D01*
X316706Y594740D01*
X316662Y595057D01*
X316648Y595393D01*
X316667Y595778D01*
X316723Y596140D01*
X316818Y596479D01*
X316951Y596796D01*
X317121Y597090D01*
X317330Y597362D01*
X317576Y597610D01*
X317861Y597836D01*
X318180Y598038D01*
X318533Y598212D01*
X318918Y598359D01*
X319335Y598480D01*
X319786Y598574D01*
X320269Y598641D01*
X320785Y598681D01*
X321333Y598695D01*
X321843Y598685D01*
X322323Y598654D01*
X322771Y598604D01*
X323188Y598534D01*
X323574Y598443D01*
X323930Y598333D01*
X324254Y598202D01*
X324548Y598051D01*
X324815Y597876D01*
X325062Y597672D01*
X325288Y597441D01*
X325494Y597181D01*
X325678Y596892D01*
X325842Y596575D01*
X325985Y596230D01*
X326107Y595857D01*
X324460Y595568D01*
X324385Y595805D01*
X324294Y596025D01*
X324188Y596228D01*
X324066Y596414D01*
X323929Y596584D01*
X323777Y596736D01*
X323610Y596872D01*
X323427Y596991D01*
X323227Y597095D01*
X323009Y597185D01*
X322773Y597261D01*
X322518Y597323D01*
X322245Y597371D01*
X321954Y597406D01*
X321644Y597427D01*
X321316Y597433D01*
X320957Y597426D01*
X320620Y597403D01*
X320304Y597365D01*
X320011Y597311D01*
X319739Y597242D01*
X319490Y597158D01*
X319262Y597058D01*
X319056Y596943D01*
X318874Y596813D01*
X318715Y596668D01*
X318581Y596507D01*
X318472Y596332D01*
X318386Y596142D01*
X318325Y595936D01*
X318289Y595716D01*
X318277Y595480D01*
X318296Y595208D01*
X318352Y594960D01*
X318447Y594737D01*
X318579Y594539D01*
X318747Y594360D01*
X318948Y594195D01*
X319182Y594044D01*
X319450Y593908D01*
X319806Y593772D01*
X320302Y593620D01*
X320940Y593454D01*
X321719Y593273D01*
X322853Y593006D01*
X323406Y592857D01*
X323935Y592682D01*
X324435Y592477D01*
X324903Y592240D01*
X325121Y592106D01*
X325324Y591957D01*
X325513Y591795D01*
X325686Y591618D01*
X325844Y591426D01*
X325983Y591217D01*
X326104Y590992D01*
X326208Y590751D01*
X326290Y590490D01*
X326349Y590208D01*
X326384Y589903D01*
X326396Y589577D01*
X326375Y589162D01*
X326312Y588771D01*
X326208Y588405D01*
X326062Y588062D01*
X325874Y587743D01*
X325645Y587449D01*
X325373Y587178D01*
X325060Y586932D01*
X324709Y586712D01*
X324324Y586522D01*
X323905Y586361D01*
X323452Y586229D01*
X322965Y586127D01*
X322443Y586053D01*
X321888Y586010D01*
X321298Y585995D01*
G37*
G36*
X288782Y585995D02*
X288410Y586003D01*
X288049Y586029D01*
X287700Y586072D01*
X287364Y586133D01*
X287039Y586210D01*
X286726Y586305D01*
X286426Y586417D01*
X286137Y586547D01*
X285863Y586692D01*
X285604Y586854D01*
X285361Y587031D01*
X285135Y587223D01*
X284924Y587431D01*
X284728Y587655D01*
X284549Y587894D01*
X284386Y588149D01*
X284240Y588418D01*
X284114Y588700D01*
X284007Y588994D01*
X283919Y589301D01*
X283851Y589621D01*
X283803Y589953D01*
X283774Y590297D01*
X283764Y590654D01*
X283764Y598511D01*
X285437Y598511D01*
X285437Y590795D01*
X285450Y590385D01*
X285490Y590000D01*
X285557Y589641D01*
X285651Y589308D01*
X285772Y589000D01*
X285920Y588717D01*
X286094Y588460D01*
X286295Y588228D01*
X286522Y588023D01*
X286772Y587845D01*
X287046Y587695D01*
X287344Y587571D01*
X287666Y587476D01*
X288011Y587407D01*
X288381Y587366D01*
X288774Y587352D01*
X289178Y587367D01*
X289560Y587409D01*
X289918Y587480D01*
X290253Y587579D01*
X290565Y587707D01*
X290854Y587862D01*
X291119Y588046D01*
X291362Y588259D01*
X291578Y588499D01*
X291766Y588764D01*
X291925Y589056D01*
X292055Y589375D01*
X292156Y589719D01*
X292228Y590089D01*
X292271Y590486D01*
X292286Y590908D01*
X292286Y598511D01*
X293950Y598511D01*
X293950Y590812D01*
X293940Y590444D01*
X293910Y590089D01*
X293861Y589747D01*
X293791Y589417D01*
X293702Y589101D01*
X293593Y588797D01*
X293464Y588506D01*
X293315Y588228D01*
X293148Y587965D01*
X292965Y587717D01*
X292765Y587486D01*
X292549Y587270D01*
X292316Y587071D01*
X292067Y586887D01*
X291801Y586720D01*
X291520Y586569D01*
X291223Y586434D01*
X290913Y586318D01*
X290591Y586219D01*
X290255Y586138D01*
X289906Y586076D01*
X289545Y586031D01*
X289170Y586004D01*
X288782Y585995D01*
G37*
G36*
X336298Y586170D02*
X328126Y586170D01*
X328126Y587282D01*
X328362Y587780D01*
X328622Y588247D01*
X328907Y588684D01*
X329216Y589091D01*
X329542Y589474D01*
X329876Y589838D01*
X330219Y590183D01*
X330570Y590510D01*
X331276Y591122D01*
X331975Y591688D01*
X332638Y592231D01*
X333232Y592774D01*
X333499Y593049D01*
X333739Y593330D01*
X333952Y593618D01*
X334139Y593913D01*
X334290Y594220D01*
X334398Y594548D01*
X334463Y594895D01*
X334485Y595261D01*
X334475Y595508D01*
X334447Y595741D01*
X334401Y595959D01*
X334336Y596163D01*
X334252Y596353D01*
X334150Y596529D01*
X334029Y596691D01*
X333889Y596838D01*
X333733Y596969D01*
X333562Y597083D01*
X333377Y597179D01*
X333177Y597258D01*
X332963Y597320D01*
X332735Y597363D01*
X332491Y597390D01*
X332234Y597398D01*
X331987Y597390D01*
X331752Y597364D01*
X331528Y597321D01*
X331315Y597262D01*
X331113Y597185D01*
X330922Y597091D01*
X330743Y596979D01*
X330574Y596851D01*
X330419Y596707D01*
X330281Y596550D01*
X330160Y596378D01*
X330056Y596193D01*
X329969Y595994D01*
X329898Y595781D01*
X329844Y595554D01*
X329808Y595314D01*
X328196Y595463D01*
X328254Y595823D01*
X328340Y596165D01*
X328455Y596488D01*
X328598Y596792D01*
X328769Y597077D01*
X328969Y597343D01*
X329197Y597590D01*
X329453Y597819D01*
X329733Y598024D01*
X330032Y598202D01*
X330351Y598353D01*
X330689Y598476D01*
X331046Y598572D01*
X331423Y598640D01*
X331818Y598681D01*
X332234Y598695D01*
X332687Y598681D01*
X333113Y598640D01*
X333511Y598571D01*
X333884Y598475D01*
X334229Y598351D01*
X334547Y598200D01*
X334838Y598021D01*
X335102Y597814D01*
X335337Y597583D01*
X335541Y597328D01*
X335713Y597050D01*
X335854Y596749D01*
X335964Y596425D01*
X336042Y596078D01*
X336089Y595707D01*
X336105Y595314D01*
X336084Y594955D01*
X336023Y594598D01*
X335920Y594242D01*
X335776Y593886D01*
X335592Y593532D01*
X335368Y593177D01*
X335104Y592822D01*
X334800Y592467D01*
X334402Y592064D01*
X333856Y591563D01*
X333163Y590965D01*
X332321Y590269D01*
X331843Y589867D01*
X331417Y589486D01*
X331042Y589125D01*
X330718Y588784D01*
X330441Y588457D01*
X330206Y588135D01*
X330012Y587820D01*
X329860Y587510D01*
X336298Y587510D01*
X336298Y586170D01*
G37*
G36*
X309386Y586170D02*
X301653Y586170D01*
X301653Y587510D01*
X304797Y587510D01*
X304797Y597004D01*
X302012Y595016D01*
X302012Y596505D01*
X304928Y598511D01*
X306382Y598511D01*
X306382Y587510D01*
X309386Y587510D01*
X309386Y586170D01*
G37*
G36*
X298646Y586170D02*
X296973Y586170D01*
X296973Y598511D01*
X298646Y598511D01*
X298646Y586170D01*
G37*
G36*
X313632Y586170D02*
X311924Y586170D01*
X311924Y587983D01*
X313632Y587983D01*
X313632Y586170D01*
G37*
G36*
X313632Y593834D02*
X311924Y593834D01*
X311924Y595647D01*
X313632Y595647D01*
X313632Y593834D01*
G37*
G36*
X105398Y639335D02*
X104849Y639347D01*
X104330Y639384D01*
X103840Y639445D01*
X103380Y639531D01*
X102950Y639641D01*
X102549Y639776D01*
X102177Y639935D01*
X101836Y640119D01*
X101524Y640327D01*
X101242Y640560D01*
X100989Y640817D01*
X100766Y641099D01*
X100572Y641405D01*
X100408Y641735D01*
X100274Y642091D01*
X100170Y642470D01*
X101790Y642794D01*
X101870Y642526D01*
X101969Y642275D01*
X102089Y642043D01*
X102228Y641830D01*
X102387Y641635D01*
X102565Y641459D01*
X102763Y641301D01*
X102981Y641161D01*
X103219Y641039D01*
X103478Y640933D01*
X103757Y640843D01*
X104056Y640770D01*
X104376Y640713D01*
X104717Y640672D01*
X105078Y640648D01*
X105460Y640640D01*
X105853Y640649D01*
X106224Y640675D01*
X106571Y640718D01*
X106895Y640779D01*
X107196Y640857D01*
X107474Y640953D01*
X107729Y641066D01*
X107960Y641196D01*
X108167Y641343D01*
X108345Y641507D01*
X108497Y641686D01*
X108620Y641882D01*
X108717Y642095D01*
X108785Y642323D01*
X108827Y642568D01*
X108841Y642829D01*
X108823Y643117D01*
X108772Y643377D01*
X108685Y643608D01*
X108565Y643810D01*
X108413Y643991D01*
X108233Y644154D01*
X108025Y644301D01*
X107789Y644432D01*
X107528Y644550D01*
X107242Y644658D01*
X106932Y644756D01*
X106598Y644844D01*
X105066Y645203D01*
X104378Y645365D01*
X103779Y645527D01*
X103268Y645689D01*
X102845Y645851D01*
X102486Y646018D01*
X102168Y646194D01*
X101889Y646379D01*
X101650Y646574D01*
X101444Y646782D01*
X101263Y647006D01*
X101109Y647248D01*
X100980Y647507D01*
X100878Y647784D01*
X100806Y648080D01*
X100762Y648397D01*
X100748Y648733D01*
X100767Y649118D01*
X100823Y649480D01*
X100918Y649819D01*
X101051Y650136D01*
X101221Y650430D01*
X101430Y650702D01*
X101676Y650950D01*
X101961Y651176D01*
X102280Y651378D01*
X102633Y651552D01*
X103018Y651699D01*
X103435Y651820D01*
X103886Y651914D01*
X104369Y651981D01*
X104885Y652021D01*
X105433Y652035D01*
X105943Y652025D01*
X106423Y651994D01*
X106871Y651944D01*
X107288Y651874D01*
X107674Y651783D01*
X108030Y651673D01*
X108354Y651542D01*
X108648Y651391D01*
X108915Y651216D01*
X109162Y651012D01*
X109388Y650781D01*
X109594Y650521D01*
X109778Y650232D01*
X109942Y649915D01*
X110085Y649570D01*
X110207Y649197D01*
X108560Y648908D01*
X108485Y649145D01*
X108394Y649365D01*
X108288Y649568D01*
X108166Y649754D01*
X108029Y649924D01*
X107877Y650076D01*
X107710Y650212D01*
X107527Y650331D01*
X107327Y650435D01*
X107109Y650525D01*
X106873Y650601D01*
X106618Y650663D01*
X106345Y650711D01*
X106054Y650746D01*
X105744Y650767D01*
X105416Y650773D01*
X105057Y650766D01*
X104720Y650743D01*
X104404Y650705D01*
X104111Y650651D01*
X103839Y650582D01*
X103590Y650498D01*
X103362Y650398D01*
X103156Y650283D01*
X102974Y650153D01*
X102815Y650008D01*
X102681Y649847D01*
X102572Y649672D01*
X102486Y649482D01*
X102425Y649276D01*
X102389Y649056D01*
X102377Y648820D01*
X102396Y648548D01*
X102452Y648300D01*
X102547Y648077D01*
X102679Y647879D01*
X102847Y647700D01*
X103048Y647535D01*
X103282Y647384D01*
X103550Y647248D01*
X103906Y647112D01*
X104402Y646960D01*
X105040Y646794D01*
X105819Y646613D01*
X106953Y646346D01*
X107506Y646197D01*
X108035Y646022D01*
X108535Y645817D01*
X109003Y645580D01*
X109221Y645446D01*
X109424Y645297D01*
X109613Y645135D01*
X109786Y644958D01*
X109944Y644766D01*
X110083Y644557D01*
X110204Y644332D01*
X110308Y644091D01*
X110390Y643830D01*
X110449Y643548D01*
X110484Y643243D01*
X110496Y642917D01*
X110475Y642502D01*
X110412Y642111D01*
X110308Y641745D01*
X110162Y641402D01*
X109974Y641083D01*
X109745Y640789D01*
X109473Y640518D01*
X109160Y640272D01*
X108809Y640052D01*
X108424Y639862D01*
X108005Y639701D01*
X107552Y639569D01*
X107065Y639467D01*
X106543Y639393D01*
X105988Y639350D01*
X105398Y639335D01*
G37*
G36*
X72882Y639335D02*
X72510Y639343D01*
X72149Y639369D01*
X71800Y639412D01*
X71464Y639473D01*
X71139Y639550D01*
X70826Y639645D01*
X70526Y639757D01*
X70237Y639887D01*
X69963Y640032D01*
X69704Y640194D01*
X69461Y640371D01*
X69235Y640563D01*
X69024Y640771D01*
X68828Y640995D01*
X68649Y641234D01*
X68486Y641489D01*
X68340Y641758D01*
X68214Y642040D01*
X68107Y642334D01*
X68019Y642641D01*
X67951Y642961D01*
X67903Y643293D01*
X67874Y643637D01*
X67864Y643994D01*
X67864Y651851D01*
X69537Y651851D01*
X69537Y644135D01*
X69550Y643725D01*
X69590Y643340D01*
X69657Y642981D01*
X69751Y642648D01*
X69872Y642340D01*
X70020Y642057D01*
X70194Y641800D01*
X70395Y641568D01*
X70622Y641363D01*
X70872Y641185D01*
X71146Y641035D01*
X71444Y640911D01*
X71766Y640816D01*
X72111Y640747D01*
X72481Y640706D01*
X72874Y640692D01*
X73278Y640707D01*
X73660Y640749D01*
X74018Y640820D01*
X74353Y640919D01*
X74665Y641047D01*
X74954Y641202D01*
X75219Y641386D01*
X75462Y641599D01*
X75678Y641839D01*
X75866Y642104D01*
X76025Y642396D01*
X76155Y642715D01*
X76256Y643059D01*
X76328Y643429D01*
X76371Y643826D01*
X76386Y644248D01*
X76386Y651851D01*
X78050Y651851D01*
X78050Y644152D01*
X78040Y643784D01*
X78010Y643429D01*
X77961Y643087D01*
X77891Y642757D01*
X77802Y642441D01*
X77693Y642137D01*
X77564Y641846D01*
X77415Y641568D01*
X77248Y641305D01*
X77065Y641057D01*
X76865Y640826D01*
X76649Y640610D01*
X76416Y640411D01*
X76167Y640227D01*
X75901Y640060D01*
X75620Y639909D01*
X75323Y639774D01*
X75013Y639658D01*
X74691Y639559D01*
X74355Y639478D01*
X74006Y639416D01*
X73645Y639371D01*
X73270Y639344D01*
X72882Y639335D01*
G37*
G36*
X116325Y639335D02*
X115868Y639348D01*
X115435Y639388D01*
X115026Y639454D01*
X114640Y639546D01*
X114278Y639665D01*
X113940Y639810D01*
X113625Y639982D01*
X113334Y640180D01*
X113069Y640404D01*
X112832Y640653D01*
X112624Y640928D01*
X112444Y641228D01*
X112292Y641553D01*
X112169Y641904D01*
X112074Y642279D01*
X112007Y642681D01*
X113636Y642829D01*
X113683Y642564D01*
X113747Y642316D01*
X113827Y642085D01*
X113922Y641872D01*
X114034Y641675D01*
X114162Y641495D01*
X114306Y641333D01*
X114466Y641187D01*
X114642Y641059D01*
X114834Y640948D01*
X115042Y640854D01*
X115267Y640777D01*
X115507Y640717D01*
X115764Y640674D01*
X116036Y640648D01*
X116325Y640640D01*
X116615Y640649D01*
X116888Y640677D01*
X117146Y640722D01*
X117388Y640787D01*
X117614Y640869D01*
X117823Y640970D01*
X118017Y641089D01*
X118195Y641227D01*
X118354Y641382D01*
X118492Y641556D01*
X118608Y641747D01*
X118704Y641956D01*
X118778Y642183D01*
X118831Y642427D01*
X118863Y642689D01*
X118874Y642970D01*
X118862Y643215D01*
X118825Y643446D01*
X118765Y643663D01*
X118680Y643866D01*
X118571Y644056D01*
X118438Y644232D01*
X118280Y644394D01*
X118098Y644542D01*
X117894Y644674D01*
X117668Y644789D01*
X117420Y644886D01*
X117151Y644965D01*
X116861Y645027D01*
X116549Y645071D01*
X116216Y645098D01*
X115861Y645107D01*
X114967Y645107D01*
X114967Y646473D01*
X115826Y646473D01*
X116141Y646482D01*
X116437Y646508D01*
X116716Y646552D01*
X116976Y646614D01*
X117218Y646694D01*
X117442Y646791D01*
X117648Y646906D01*
X117836Y647038D01*
X118003Y647186D01*
X118148Y647348D01*
X118271Y647523D01*
X118371Y647711D01*
X118449Y647913D01*
X118505Y648129D01*
X118538Y648359D01*
X118550Y648601D01*
X118540Y648842D01*
X118513Y649070D01*
X118468Y649285D01*
X118404Y649487D01*
X118322Y649676D01*
X118222Y649852D01*
X118104Y650015D01*
X117967Y650165D01*
X117813Y650299D01*
X117641Y650416D01*
X117451Y650514D01*
X117243Y650595D01*
X117018Y650658D01*
X116776Y650703D01*
X116515Y650729D01*
X116237Y650738D01*
X115983Y650730D01*
X115741Y650705D01*
X115512Y650663D01*
X115295Y650605D01*
X115090Y650530D01*
X114898Y650438D01*
X114718Y650329D01*
X114551Y650204D01*
X114399Y650064D01*
X114263Y649910D01*
X114144Y649742D01*
X114042Y649560D01*
X113957Y649365D01*
X113889Y649156D01*
X113837Y648934D01*
X113802Y648698D01*
X112217Y648820D01*
X112275Y649189D01*
X112361Y649536D01*
X112476Y649863D01*
X112619Y650169D01*
X112790Y650454D01*
X112990Y650719D01*
X113218Y650962D01*
X113474Y651185D01*
X113754Y651384D01*
X114053Y651557D01*
X114372Y651703D01*
X114710Y651822D01*
X115067Y651915D01*
X115444Y651982D01*
X115840Y652021D01*
X116255Y652035D01*
X116706Y652021D01*
X117131Y651981D01*
X117531Y651913D01*
X117905Y651819D01*
X118253Y651698D01*
X118574Y651549D01*
X118871Y651374D01*
X119141Y651172D01*
X119382Y650946D01*
X119591Y650698D01*
X119768Y650430D01*
X119913Y650140D01*
X120025Y649828D01*
X120106Y649496D01*
X120154Y649143D01*
X120170Y648768D01*
X120160Y648479D01*
X120129Y648204D01*
X120077Y647943D01*
X120005Y647696D01*
X119912Y647463D01*
X119798Y647243D01*
X119664Y647037D01*
X119509Y646845D01*
X119334Y646668D01*
X119140Y646505D01*
X118928Y646357D01*
X118697Y646225D01*
X118448Y646107D01*
X118179Y646004D01*
X117892Y645916D01*
X117586Y645842D01*
X117586Y645807D01*
X117922Y645760D01*
X118240Y645694D01*
X118538Y645607D01*
X118817Y645501D01*
X119076Y645375D01*
X119317Y645229D01*
X119538Y645064D01*
X119741Y644879D01*
X119921Y644678D01*
X120078Y644464D01*
X120210Y644238D01*
X120319Y643999D01*
X120403Y643747D01*
X120463Y643483D01*
X120499Y643206D01*
X120511Y642917D01*
X120494Y642502D01*
X120444Y642111D01*
X120359Y641745D01*
X120240Y641402D01*
X120087Y641083D01*
X119901Y640789D01*
X119680Y640518D01*
X119425Y640272D01*
X119139Y640052D01*
X118824Y639862D01*
X118480Y639701D01*
X118107Y639569D01*
X117705Y639467D01*
X117274Y639393D01*
X116814Y639350D01*
X116325Y639335D01*
G37*
G36*
X93486Y639510D02*
X85753Y639510D01*
X85753Y640850D01*
X88897Y640850D01*
X88897Y650344D01*
X86112Y648356D01*
X86112Y649845D01*
X89028Y651851D01*
X90482Y651851D01*
X90482Y640850D01*
X93486Y640850D01*
X93486Y639510D01*
G37*
G36*
X82746Y639510D02*
X81073Y639510D01*
X81073Y651851D01*
X82746Y651851D01*
X82746Y639510D01*
G37*
G36*
X97732Y639510D02*
X96024Y639510D01*
X96024Y641323D01*
X97732Y641323D01*
X97732Y639510D01*
G37*
G36*
X97732Y647174D02*
X96024Y647174D01*
X96024Y648987D01*
X97732Y648987D01*
X97732Y647174D01*
G37*
G36*
X230800Y583630D02*
X229311Y583630D01*
X229311Y586424D01*
X223495Y586424D01*
X223495Y587650D01*
X229145Y595971D01*
X230800Y595971D01*
X230800Y587668D01*
X232534Y587668D01*
X232534Y586424D01*
X230800Y586424D01*
X230800Y583630D01*
G37*
%LPC*%
G36*
X229311Y587668D02*
X229311Y594193D01*
X229066Y593729D01*
X228724Y593151D01*
X225562Y588491D01*
X225089Y587843D01*
X224949Y587668D01*
X229311Y587668D01*
G37*
%LPD*%
G36*
X217158Y583455D02*
X216609Y583467D01*
X216090Y583504D01*
X215600Y583565D01*
X215140Y583651D01*
X214710Y583761D01*
X214309Y583896D01*
X213937Y584055D01*
X213596Y584239D01*
X213284Y584447D01*
X213002Y584680D01*
X212749Y584937D01*
X212526Y585219D01*
X212332Y585525D01*
X212168Y585855D01*
X212034Y586211D01*
X211930Y586590D01*
X213550Y586914D01*
X213630Y586646D01*
X213729Y586395D01*
X213849Y586163D01*
X213988Y585950D01*
X214147Y585755D01*
X214325Y585579D01*
X214523Y585421D01*
X214741Y585281D01*
X214979Y585159D01*
X215238Y585053D01*
X215517Y584963D01*
X215816Y584890D01*
X216136Y584833D01*
X216477Y584792D01*
X216838Y584768D01*
X217220Y584760D01*
X217613Y584769D01*
X217984Y584795D01*
X218331Y584838D01*
X218655Y584899D01*
X218956Y584977D01*
X219234Y585073D01*
X219489Y585186D01*
X219720Y585316D01*
X219927Y585463D01*
X220105Y585627D01*
X220257Y585806D01*
X220380Y586002D01*
X220477Y586215D01*
X220545Y586443D01*
X220587Y586688D01*
X220601Y586949D01*
X220583Y587237D01*
X220532Y587497D01*
X220445Y587728D01*
X220325Y587930D01*
X220173Y588111D01*
X219993Y588274D01*
X219785Y588421D01*
X219549Y588552D01*
X219288Y588670D01*
X219002Y588778D01*
X218692Y588876D01*
X218358Y588964D01*
X216826Y589323D01*
X216138Y589485D01*
X215539Y589647D01*
X215028Y589809D01*
X214605Y589971D01*
X214246Y590138D01*
X213928Y590314D01*
X213649Y590499D01*
X213410Y590694D01*
X213204Y590902D01*
X213023Y591126D01*
X212869Y591368D01*
X212740Y591627D01*
X212638Y591904D01*
X212566Y592200D01*
X212522Y592517D01*
X212508Y592853D01*
X212527Y593238D01*
X212583Y593600D01*
X212678Y593939D01*
X212811Y594256D01*
X212981Y594550D01*
X213190Y594822D01*
X213436Y595070D01*
X213721Y595296D01*
X214040Y595498D01*
X214393Y595672D01*
X214778Y595819D01*
X215195Y595940D01*
X215646Y596034D01*
X216129Y596101D01*
X216645Y596141D01*
X217193Y596155D01*
X217703Y596145D01*
X218183Y596114D01*
X218631Y596064D01*
X219048Y595994D01*
X219434Y595903D01*
X219790Y595793D01*
X220114Y595662D01*
X220408Y595511D01*
X220675Y595336D01*
X220922Y595132D01*
X221148Y594901D01*
X221354Y594641D01*
X221538Y594352D01*
X221702Y594035D01*
X221845Y593690D01*
X221967Y593317D01*
X220320Y593028D01*
X220245Y593265D01*
X220154Y593485D01*
X220048Y593688D01*
X219926Y593874D01*
X219789Y594044D01*
X219637Y594196D01*
X219470Y594332D01*
X219287Y594451D01*
X219087Y594555D01*
X218869Y594645D01*
X218633Y594721D01*
X218378Y594783D01*
X218105Y594831D01*
X217814Y594866D01*
X217504Y594887D01*
X217176Y594893D01*
X216817Y594886D01*
X216480Y594863D01*
X216164Y594825D01*
X215871Y594771D01*
X215599Y594702D01*
X215350Y594618D01*
X215122Y594518D01*
X214916Y594403D01*
X214734Y594273D01*
X214575Y594128D01*
X214441Y593967D01*
X214332Y593792D01*
X214246Y593602D01*
X214185Y593396D01*
X214149Y593176D01*
X214137Y592940D01*
X214156Y592668D01*
X214212Y592420D01*
X214307Y592197D01*
X214439Y591999D01*
X214607Y591820D01*
X214808Y591655D01*
X215042Y591504D01*
X215310Y591368D01*
X215666Y591232D01*
X216162Y591080D01*
X216800Y590914D01*
X217579Y590733D01*
X218713Y590466D01*
X219266Y590317D01*
X219795Y590142D01*
X220295Y589937D01*
X220763Y589700D01*
X220981Y589566D01*
X221184Y589417D01*
X221373Y589255D01*
X221546Y589078D01*
X221704Y588886D01*
X221843Y588677D01*
X221964Y588452D01*
X222068Y588211D01*
X222150Y587950D01*
X222209Y587668D01*
X222244Y587363D01*
X222256Y587037D01*
X222235Y586622D01*
X222172Y586231D01*
X222068Y585865D01*
X221922Y585522D01*
X221734Y585203D01*
X221505Y584909D01*
X221233Y584638D01*
X220920Y584392D01*
X220569Y584172D01*
X220184Y583982D01*
X219765Y583821D01*
X219312Y583689D01*
X218825Y583587D01*
X218303Y583513D01*
X217748Y583470D01*
X217158Y583455D01*
G37*
G36*
X184642Y583455D02*
X184270Y583463D01*
X183909Y583489D01*
X183560Y583532D01*
X183224Y583593D01*
X182899Y583670D01*
X182586Y583765D01*
X182286Y583877D01*
X181997Y584007D01*
X181723Y584152D01*
X181464Y584314D01*
X181221Y584491D01*
X180995Y584683D01*
X180784Y584891D01*
X180588Y585115D01*
X180409Y585354D01*
X180246Y585609D01*
X180100Y585878D01*
X179974Y586160D01*
X179867Y586454D01*
X179779Y586761D01*
X179711Y587081D01*
X179663Y587413D01*
X179634Y587757D01*
X179624Y588114D01*
X179624Y595971D01*
X181297Y595971D01*
X181297Y588255D01*
X181310Y587845D01*
X181350Y587460D01*
X181417Y587101D01*
X181511Y586768D01*
X181632Y586460D01*
X181780Y586177D01*
X181954Y585920D01*
X182155Y585688D01*
X182382Y585483D01*
X182632Y585305D01*
X182906Y585155D01*
X183204Y585031D01*
X183526Y584936D01*
X183871Y584867D01*
X184241Y584826D01*
X184634Y584812D01*
X185038Y584827D01*
X185420Y584869D01*
X185778Y584940D01*
X186113Y585039D01*
X186425Y585167D01*
X186714Y585322D01*
X186979Y585506D01*
X187222Y585719D01*
X187438Y585959D01*
X187626Y586224D01*
X187785Y586516D01*
X187915Y586835D01*
X188016Y587179D01*
X188088Y587549D01*
X188131Y587946D01*
X188146Y588368D01*
X188146Y595971D01*
X189810Y595971D01*
X189810Y588272D01*
X189800Y587904D01*
X189770Y587549D01*
X189721Y587207D01*
X189651Y586877D01*
X189562Y586561D01*
X189453Y586257D01*
X189324Y585966D01*
X189175Y585688D01*
X189008Y585425D01*
X188825Y585177D01*
X188625Y584946D01*
X188409Y584730D01*
X188176Y584531D01*
X187927Y584347D01*
X187661Y584180D01*
X187380Y584029D01*
X187083Y583894D01*
X186773Y583778D01*
X186451Y583679D01*
X186115Y583598D01*
X185766Y583536D01*
X185405Y583491D01*
X185030Y583464D01*
X184642Y583455D01*
G37*
G36*
X205246Y583630D02*
X197513Y583630D01*
X197513Y584970D01*
X200657Y584970D01*
X200657Y594464D01*
X197872Y592476D01*
X197872Y593965D01*
X200788Y595971D01*
X202242Y595971D01*
X202242Y584970D01*
X205246Y584970D01*
X205246Y583630D01*
G37*
G36*
X194506Y583630D02*
X192833Y583630D01*
X192833Y595971D01*
X194506Y595971D01*
X194506Y583630D01*
G37*
G36*
X209492Y583630D02*
X207784Y583630D01*
X207784Y585443D01*
X209492Y585443D01*
X209492Y583630D01*
G37*
G36*
X209492Y591294D02*
X207784Y591294D01*
X207784Y593107D01*
X209492Y593107D01*
X209492Y591294D01*
G37*
G36*
X182355Y488629D02*
X177739Y488629D01*
X177739Y500969D01*
X181821Y500969D01*
X182207Y500963D01*
X182582Y500945D01*
X182946Y500914D01*
X183299Y500871D01*
X183640Y500816D01*
X183971Y500748D01*
X184290Y500668D01*
X184598Y500576D01*
X184895Y500472D01*
X185181Y500355D01*
X185455Y500226D01*
X185718Y500085D01*
X185970Y499931D01*
X186211Y499766D01*
X186441Y499588D01*
X186660Y499397D01*
X186866Y499195D01*
X187059Y498983D01*
X187239Y498761D01*
X187405Y498528D01*
X187558Y498285D01*
X187698Y498031D01*
X187824Y497768D01*
X187937Y497493D01*
X188037Y497209D01*
X188124Y496914D01*
X188197Y496608D01*
X188257Y496293D01*
X188303Y495966D01*
X188337Y495630D01*
X188357Y495283D01*
X188363Y494926D01*
X188352Y494456D01*
X188317Y494001D01*
X188258Y493561D01*
X188177Y493136D01*
X188072Y492726D01*
X187944Y492330D01*
X187793Y491950D01*
X187619Y491585D01*
X187423Y491237D01*
X187208Y490910D01*
X186973Y490605D01*
X186719Y490320D01*
X186445Y490056D01*
X186152Y489813D01*
X185840Y489591D01*
X185508Y489390D01*
X185160Y489212D01*
X184798Y489057D01*
X184424Y488926D01*
X184036Y488819D01*
X183636Y488736D01*
X183222Y488676D01*
X182795Y488640D01*
X182355Y488629D01*
G37*
%LPC*%
G36*
X182162Y489969D02*
X182496Y489978D01*
X182820Y490006D01*
X183134Y490052D01*
X183438Y490117D01*
X183731Y490201D01*
X184014Y490304D01*
X184286Y490425D01*
X184549Y490564D01*
X184799Y490721D01*
X185034Y490895D01*
X185254Y491085D01*
X185459Y491291D01*
X185649Y491514D01*
X185824Y491753D01*
X185984Y492009D01*
X186130Y492281D01*
X186259Y492567D01*
X186371Y492867D01*
X186466Y493178D01*
X186544Y493503D01*
X186604Y493840D01*
X186647Y494189D01*
X186673Y494551D01*
X186682Y494926D01*
X186662Y495483D01*
X186603Y496005D01*
X186505Y496494D01*
X186367Y496948D01*
X186191Y497368D01*
X185975Y497755D01*
X185719Y498107D01*
X185425Y498425D01*
X185093Y498707D01*
X184726Y498952D01*
X184324Y499159D01*
X183886Y499328D01*
X183414Y499460D01*
X182906Y499554D01*
X182364Y499610D01*
X181786Y499629D01*
X179412Y499629D01*
X179412Y489969D01*
X182162Y489969D01*
G37*
%LPD*%
G36*
X222230Y488629D02*
X217614Y488629D01*
X217614Y500969D01*
X221696Y500969D01*
X222082Y500963D01*
X222457Y500945D01*
X222821Y500914D01*
X223174Y500871D01*
X223515Y500816D01*
X223846Y500748D01*
X224165Y500668D01*
X224473Y500576D01*
X224770Y500472D01*
X225056Y500355D01*
X225330Y500226D01*
X225593Y500085D01*
X225845Y499931D01*
X226086Y499766D01*
X226316Y499588D01*
X226535Y499397D01*
X226741Y499195D01*
X226934Y498983D01*
X227114Y498761D01*
X227280Y498528D01*
X227433Y498285D01*
X227573Y498031D01*
X227699Y497768D01*
X227812Y497493D01*
X227912Y497209D01*
X227999Y496914D01*
X228072Y496608D01*
X228132Y496293D01*
X228178Y495966D01*
X228212Y495630D01*
X228232Y495283D01*
X228238Y494926D01*
X228227Y494456D01*
X228192Y494001D01*
X228133Y493561D01*
X228052Y493136D01*
X227947Y492726D01*
X227819Y492330D01*
X227668Y491950D01*
X227494Y491585D01*
X227298Y491237D01*
X227083Y490910D01*
X226848Y490605D01*
X226594Y490320D01*
X226320Y490056D01*
X226027Y489813D01*
X225715Y489591D01*
X225383Y489390D01*
X225035Y489212D01*
X224673Y489057D01*
X224299Y488926D01*
X223911Y488819D01*
X223511Y488736D01*
X223097Y488676D01*
X222670Y488640D01*
X222230Y488629D01*
G37*
%LPC*%
G36*
X222037Y489969D02*
X222371Y489978D01*
X222695Y490006D01*
X223009Y490052D01*
X223313Y490117D01*
X223606Y490201D01*
X223889Y490304D01*
X224161Y490425D01*
X224424Y490564D01*
X224674Y490721D01*
X224909Y490895D01*
X225129Y491085D01*
X225334Y491291D01*
X225524Y491514D01*
X225699Y491753D01*
X225859Y492009D01*
X226005Y492281D01*
X226134Y492567D01*
X226246Y492867D01*
X226341Y493178D01*
X226419Y493503D01*
X226479Y493840D01*
X226522Y494189D01*
X226548Y494551D01*
X226557Y494926D01*
X226537Y495483D01*
X226478Y496005D01*
X226380Y496494D01*
X226242Y496948D01*
X226066Y497368D01*
X225850Y497755D01*
X225594Y498107D01*
X225300Y498425D01*
X224968Y498707D01*
X224601Y498952D01*
X224199Y499159D01*
X223761Y499328D01*
X223289Y499460D01*
X222781Y499554D01*
X222239Y499610D01*
X221661Y499629D01*
X219287Y499629D01*
X219287Y489969D01*
X222037Y489969D01*
G37*
%LPD*%
G36*
X282042Y488629D02*
X277427Y488629D01*
X277427Y500969D01*
X281508Y500969D01*
X281894Y500963D01*
X282270Y500945D01*
X282634Y500914D01*
X282986Y500871D01*
X283328Y500816D01*
X283658Y500748D01*
X283978Y500668D01*
X284286Y500576D01*
X284582Y500472D01*
X284868Y500355D01*
X285143Y500226D01*
X285406Y500085D01*
X285658Y499931D01*
X285899Y499766D01*
X286129Y499588D01*
X286347Y499397D01*
X286553Y499195D01*
X286746Y498983D01*
X286926Y498761D01*
X287092Y498528D01*
X287245Y498285D01*
X287385Y498031D01*
X287512Y497768D01*
X287625Y497493D01*
X287725Y497209D01*
X287811Y496914D01*
X287884Y496608D01*
X287944Y496293D01*
X287991Y495966D01*
X288024Y495630D01*
X288044Y495283D01*
X288051Y494926D01*
X288039Y494456D01*
X288004Y494001D01*
X287946Y493561D01*
X287865Y493136D01*
X287760Y492726D01*
X287632Y492330D01*
X287481Y491950D01*
X287306Y491585D01*
X287110Y491237D01*
X286895Y490910D01*
X286660Y490605D01*
X286406Y490320D01*
X286133Y490056D01*
X285840Y489813D01*
X285527Y489591D01*
X285195Y489390D01*
X284847Y489212D01*
X284486Y489057D01*
X284112Y488926D01*
X283724Y488819D01*
X283323Y488736D01*
X282909Y488676D01*
X282482Y488640D01*
X282042Y488629D01*
G37*
%LPC*%
G36*
X281850Y489969D02*
X282184Y489978D01*
X282508Y490006D01*
X282822Y490052D01*
X283125Y490117D01*
X283418Y490201D01*
X283701Y490304D01*
X283974Y490425D01*
X284236Y490564D01*
X284486Y490721D01*
X284721Y490895D01*
X284941Y491085D01*
X285146Y491291D01*
X285336Y491514D01*
X285512Y491753D01*
X285672Y492009D01*
X285817Y492281D01*
X285947Y492567D01*
X286059Y492867D01*
X286153Y493178D01*
X286231Y493503D01*
X286291Y493840D01*
X286335Y494189D01*
X286360Y494551D01*
X286369Y494926D01*
X286349Y495483D01*
X286290Y496005D01*
X286192Y496494D01*
X286055Y496948D01*
X285878Y497368D01*
X285662Y497755D01*
X285407Y498107D01*
X285112Y498425D01*
X284780Y498707D01*
X284413Y498952D01*
X284011Y499159D01*
X283574Y499328D01*
X283101Y499460D01*
X282594Y499554D01*
X282051Y499610D01*
X281473Y499629D01*
X279099Y499629D01*
X279099Y489969D01*
X281850Y489969D01*
G37*
%LPD*%
G36*
X242224Y488629D02*
X240552Y488629D01*
X240552Y500969D01*
X246358Y500969D01*
X246865Y500955D01*
X247341Y500911D01*
X247788Y500838D01*
X248205Y500736D01*
X248593Y500605D01*
X248951Y500445D01*
X249279Y500255D01*
X249577Y500037D01*
X249843Y499792D01*
X250073Y499524D01*
X250268Y499234D01*
X250428Y498921D01*
X250552Y498585D01*
X250641Y498226D01*
X250694Y497844D01*
X250711Y497440D01*
X250699Y497103D01*
X250661Y496779D01*
X250599Y496470D01*
X250511Y496174D01*
X250398Y495892D01*
X250261Y495623D01*
X250098Y495368D01*
X249910Y495127D01*
X249700Y494904D01*
X249471Y494702D01*
X249223Y494522D01*
X249113Y494456D01*
X248956Y494363D01*
X248671Y494226D01*
X248366Y494111D01*
X248042Y494017D01*
X247699Y493945D01*
X249190Y491682D01*
X251202Y488629D01*
X249275Y488629D01*
X246069Y493752D01*
X242224Y493752D01*
X242224Y488629D01*
G37*
%LPC*%
G36*
X246262Y495075D02*
X246583Y495084D01*
X246886Y495113D01*
X247170Y495162D01*
X247435Y495229D01*
X247681Y495316D01*
X247908Y495422D01*
X248117Y495548D01*
X248307Y495692D01*
X248477Y495854D01*
X248623Y496032D01*
X248748Y496225D01*
X248849Y496433D01*
X248928Y496657D01*
X248985Y496897D01*
X249019Y497152D01*
X249030Y497422D01*
X249018Y497683D01*
X248984Y497929D01*
X248927Y498158D01*
X248847Y498371D01*
X248744Y498569D01*
X248618Y498750D01*
X248470Y498915D01*
X248298Y499064D01*
X248106Y499197D01*
X247893Y499311D01*
X247659Y499409D01*
X247406Y499488D01*
X247133Y499550D01*
X246839Y499594D01*
X246526Y499620D01*
X246192Y499629D01*
X242224Y499629D01*
X242224Y495075D01*
X246262Y495075D01*
G37*
%LPD*%
G36*
X304037Y488629D02*
X302364Y488629D01*
X302364Y500969D01*
X308171Y500969D01*
X308677Y500955D01*
X309154Y500911D01*
X309601Y500838D01*
X310018Y500736D01*
X310405Y500605D01*
X310763Y500445D01*
X311091Y500255D01*
X311390Y500037D01*
X311656Y499792D01*
X311886Y499524D01*
X312081Y499234D01*
X312240Y498921D01*
X312364Y498585D01*
X312453Y498226D01*
X312506Y497844D01*
X312524Y497440D01*
X312511Y497103D01*
X312474Y496779D01*
X312411Y496470D01*
X312324Y496174D01*
X312211Y495892D01*
X312073Y495623D01*
X311910Y495368D01*
X311723Y495127D01*
X311513Y494904D01*
X311284Y494702D01*
X311036Y494522D01*
X310925Y494456D01*
X310769Y494363D01*
X310483Y494226D01*
X310178Y494111D01*
X309854Y494017D01*
X309511Y493945D01*
X311002Y491682D01*
X313014Y488629D01*
X311088Y488629D01*
X307882Y493752D01*
X304037Y493752D01*
X304037Y488629D01*
G37*
%LPC*%
G36*
X308075Y495075D02*
X308396Y495084D01*
X308698Y495113D01*
X308982Y495162D01*
X309247Y495229D01*
X309493Y495316D01*
X309721Y495422D01*
X309930Y495548D01*
X310120Y495692D01*
X310289Y495854D01*
X310436Y496032D01*
X310560Y496225D01*
X310662Y496433D01*
X310741Y496657D01*
X310797Y496897D01*
X310831Y497152D01*
X310842Y497422D01*
X310831Y497683D01*
X310797Y497929D01*
X310739Y498158D01*
X310659Y498371D01*
X310557Y498569D01*
X310431Y498750D01*
X310282Y498915D01*
X310111Y499064D01*
X309918Y499197D01*
X309705Y499311D01*
X309472Y499409D01*
X309219Y499488D01*
X308945Y499550D01*
X308652Y499594D01*
X308338Y499620D01*
X308005Y499629D01*
X304037Y499629D01*
X304037Y495075D01*
X308075Y495075D01*
G37*
%LPD*%
G36*
X265756Y488629D02*
X264021Y488629D01*
X269058Y500969D01*
X270958Y500969D01*
X275916Y488629D01*
X274208Y488629D01*
X272797Y492237D01*
X267174Y492237D01*
X265756Y488629D01*
G37*
%LPC*%
G36*
X272298Y493542D02*
X270713Y497615D01*
X270468Y498259D01*
X270222Y498981D01*
X269986Y499708D01*
X269907Y499463D01*
X269636Y498633D01*
X269259Y497597D01*
X267682Y493542D01*
X272298Y493542D01*
G37*
%LPD*%
G36*
X263242Y488629D02*
X253520Y488629D01*
X253520Y500969D01*
X262883Y500969D01*
X262883Y499603D01*
X255193Y499603D01*
X255193Y495644D01*
X262358Y495644D01*
X262358Y494295D01*
X255193Y494295D01*
X255193Y489995D01*
X263242Y489995D01*
X263242Y488629D01*
G37*
G36*
X300117Y488629D02*
X290395Y488629D01*
X290395Y500969D01*
X299758Y500969D01*
X299758Y499603D01*
X292068Y499603D01*
X292068Y495644D01*
X299233Y495644D01*
X299233Y494295D01*
X292068Y494295D01*
X292068Y489995D01*
X300117Y489995D01*
X300117Y488629D01*
G37*
G36*
X170374Y488453D02*
X169825Y488466D01*
X169305Y488502D01*
X168815Y488564D01*
X168355Y488649D01*
X167925Y488760D01*
X167524Y488894D01*
X167153Y489053D01*
X166811Y489237D01*
X166499Y489445D01*
X166217Y489678D01*
X165964Y489935D01*
X165741Y490217D01*
X165547Y490523D01*
X165383Y490854D01*
X165249Y491209D01*
X165145Y491589D01*
X166765Y491913D01*
X166845Y491644D01*
X166945Y491394D01*
X167064Y491162D01*
X167203Y490948D01*
X167362Y490753D01*
X167540Y490577D01*
X167738Y490419D01*
X167956Y490279D01*
X168194Y490157D01*
X168453Y490051D01*
X168732Y489962D01*
X169031Y489889D01*
X169351Y489832D01*
X169692Y489791D01*
X170053Y489766D01*
X170435Y489758D01*
X170828Y489767D01*
X171199Y489793D01*
X171546Y489837D01*
X171870Y489897D01*
X172171Y489976D01*
X172449Y490071D01*
X172704Y490184D01*
X172935Y490315D01*
X173142Y490462D01*
X173320Y490625D01*
X173472Y490805D01*
X173596Y491001D01*
X173692Y491213D01*
X173761Y491442D01*
X173802Y491687D01*
X173816Y491948D01*
X173798Y492236D01*
X173747Y492495D01*
X173660Y492726D01*
X173540Y492929D01*
X173388Y493109D01*
X173208Y493273D01*
X173000Y493420D01*
X172765Y493551D01*
X172503Y493668D01*
X172217Y493776D01*
X171907Y493874D01*
X171573Y493962D01*
X170041Y494322D01*
X169353Y494484D01*
X168754Y494646D01*
X168243Y494808D01*
X167820Y494970D01*
X167462Y495136D01*
X167143Y495312D01*
X166864Y495498D01*
X166625Y495692D01*
X166419Y495900D01*
X166238Y496125D01*
X166084Y496366D01*
X165955Y496625D01*
X165853Y496902D01*
X165781Y497199D01*
X165737Y497515D01*
X165723Y497851D01*
X165742Y498236D01*
X165799Y498598D01*
X165893Y498938D01*
X166026Y499255D01*
X166197Y499549D01*
X166405Y499820D01*
X166651Y500069D01*
X166936Y500295D01*
X167255Y500496D01*
X167608Y500670D01*
X167993Y500818D01*
X168411Y500939D01*
X168861Y501033D01*
X169344Y501100D01*
X169860Y501140D01*
X170409Y501153D01*
X170919Y501143D01*
X171398Y501113D01*
X171846Y501063D01*
X172263Y500992D01*
X172650Y500902D01*
X173005Y500791D01*
X173329Y500660D01*
X173623Y500509D01*
X173891Y500334D01*
X174138Y500131D01*
X174364Y499899D01*
X174569Y499639D01*
X174753Y499351D01*
X174917Y499034D01*
X175060Y498689D01*
X175182Y498315D01*
X173535Y498026D01*
X173460Y498263D01*
X173369Y498483D01*
X173263Y498686D01*
X173141Y498873D01*
X173004Y499042D01*
X172852Y499195D01*
X172685Y499331D01*
X172502Y499450D01*
X172302Y499553D01*
X172084Y499643D01*
X171848Y499719D01*
X171593Y499781D01*
X171320Y499830D01*
X171029Y499864D01*
X170719Y499885D01*
X170391Y499892D01*
X170032Y499884D01*
X169695Y499861D01*
X169379Y499823D01*
X169086Y499769D01*
X168815Y499700D01*
X168565Y499616D01*
X168337Y499516D01*
X168131Y499402D01*
X167949Y499271D01*
X167790Y499126D01*
X167656Y498966D01*
X167547Y498791D01*
X167461Y498600D01*
X167401Y498395D01*
X167364Y498174D01*
X167352Y497939D01*
X167371Y497666D01*
X167427Y497419D01*
X167522Y497196D01*
X167654Y496997D01*
X167822Y496818D01*
X168023Y496654D01*
X168258Y496503D01*
X168525Y496367D01*
X168881Y496230D01*
X169377Y496079D01*
X170015Y495913D01*
X170794Y495732D01*
X171928Y495465D01*
X172481Y495316D01*
X173010Y495140D01*
X173510Y494936D01*
X173978Y494698D01*
X174196Y494564D01*
X174399Y494416D01*
X174588Y494253D01*
X174762Y494076D01*
X174919Y493884D01*
X175058Y493676D01*
X175179Y493451D01*
X175283Y493209D01*
X175365Y492949D01*
X175424Y492666D01*
X175459Y492362D01*
X175471Y492036D01*
X175450Y491621D01*
X175388Y491230D01*
X175283Y490863D01*
X175137Y490520D01*
X174949Y490202D01*
X174720Y489907D01*
X174448Y489637D01*
X174135Y489390D01*
X173784Y489171D01*
X173399Y488980D01*
X172980Y488819D01*
X172527Y488688D01*
X172040Y488585D01*
X171518Y488512D01*
X170963Y488468D01*
X170374Y488453D01*
G37*
G36*
X210249Y488453D02*
X209700Y488466D01*
X209180Y488502D01*
X208690Y488564D01*
X208230Y488649D01*
X207800Y488760D01*
X207399Y488894D01*
X207028Y489053D01*
X206686Y489237D01*
X206374Y489445D01*
X206092Y489678D01*
X205839Y489935D01*
X205616Y490217D01*
X205422Y490523D01*
X205258Y490854D01*
X205124Y491209D01*
X205020Y491589D01*
X206640Y491913D01*
X206720Y491644D01*
X206820Y491394D01*
X206939Y491162D01*
X207078Y490948D01*
X207237Y490753D01*
X207415Y490577D01*
X207613Y490419D01*
X207831Y490279D01*
X208069Y490157D01*
X208328Y490051D01*
X208607Y489962D01*
X208906Y489889D01*
X209226Y489832D01*
X209567Y489791D01*
X209928Y489766D01*
X210310Y489758D01*
X210703Y489767D01*
X211074Y489793D01*
X211421Y489837D01*
X211745Y489897D01*
X212046Y489976D01*
X212324Y490071D01*
X212579Y490184D01*
X212810Y490315D01*
X213017Y490462D01*
X213195Y490625D01*
X213347Y490805D01*
X213471Y491001D01*
X213567Y491213D01*
X213636Y491442D01*
X213677Y491687D01*
X213691Y491948D01*
X213673Y492236D01*
X213622Y492495D01*
X213535Y492726D01*
X213415Y492929D01*
X213263Y493109D01*
X213083Y493273D01*
X212875Y493420D01*
X212640Y493551D01*
X212378Y493668D01*
X212092Y493776D01*
X211782Y493874D01*
X211448Y493962D01*
X209916Y494322D01*
X209228Y494484D01*
X208629Y494646D01*
X208118Y494808D01*
X207695Y494970D01*
X207337Y495136D01*
X207018Y495312D01*
X206739Y495498D01*
X206500Y495692D01*
X206294Y495900D01*
X206113Y496125D01*
X205959Y496366D01*
X205830Y496625D01*
X205728Y496902D01*
X205656Y497199D01*
X205612Y497515D01*
X205598Y497851D01*
X205617Y498236D01*
X205674Y498598D01*
X205768Y498938D01*
X205901Y499255D01*
X206072Y499549D01*
X206280Y499820D01*
X206526Y500069D01*
X206811Y500295D01*
X207130Y500496D01*
X207483Y500670D01*
X207868Y500818D01*
X208286Y500939D01*
X208736Y501033D01*
X209219Y501100D01*
X209735Y501140D01*
X210284Y501153D01*
X210794Y501143D01*
X211273Y501113D01*
X211721Y501063D01*
X212138Y500992D01*
X212525Y500902D01*
X212880Y500791D01*
X213204Y500660D01*
X213498Y500509D01*
X213766Y500334D01*
X214013Y500131D01*
X214239Y499899D01*
X214444Y499639D01*
X214628Y499351D01*
X214792Y499034D01*
X214935Y498689D01*
X215057Y498315D01*
X213410Y498026D01*
X213335Y498263D01*
X213244Y498483D01*
X213138Y498686D01*
X213016Y498873D01*
X212879Y499042D01*
X212727Y499195D01*
X212560Y499331D01*
X212377Y499450D01*
X212177Y499553D01*
X211959Y499643D01*
X211723Y499719D01*
X211468Y499781D01*
X211195Y499830D01*
X210904Y499864D01*
X210594Y499885D01*
X210266Y499892D01*
X209907Y499884D01*
X209570Y499861D01*
X209254Y499823D01*
X208961Y499769D01*
X208690Y499700D01*
X208440Y499616D01*
X208212Y499516D01*
X208006Y499402D01*
X207824Y499271D01*
X207665Y499126D01*
X207531Y498966D01*
X207422Y498791D01*
X207336Y498600D01*
X207276Y498395D01*
X207239Y498174D01*
X207227Y497939D01*
X207246Y497666D01*
X207302Y497419D01*
X207397Y497196D01*
X207529Y496997D01*
X207697Y496818D01*
X207898Y496654D01*
X208133Y496503D01*
X208400Y496367D01*
X208756Y496230D01*
X209252Y496079D01*
X209890Y495913D01*
X210669Y495732D01*
X211803Y495465D01*
X212356Y495316D01*
X212885Y495140D01*
X213385Y494936D01*
X213853Y494698D01*
X214071Y494564D01*
X214274Y494416D01*
X214463Y494253D01*
X214637Y494076D01*
X214794Y493884D01*
X214933Y493676D01*
X215054Y493451D01*
X215158Y493209D01*
X215240Y492949D01*
X215299Y492666D01*
X215334Y492362D01*
X215346Y492036D01*
X215325Y491621D01*
X215263Y491230D01*
X215158Y490863D01*
X215012Y490520D01*
X214824Y490202D01*
X214595Y489907D01*
X214323Y489637D01*
X214010Y489390D01*
X213659Y489171D01*
X213274Y488980D01*
X212855Y488819D01*
X212402Y488688D01*
X211915Y488585D01*
X211393Y488512D01*
X210838Y488468D01*
X210249Y488453D01*
G37*
G36*
X198337Y488629D02*
X190603Y488629D01*
X190603Y489969D01*
X193747Y489969D01*
X193747Y499463D01*
X190962Y497475D01*
X190962Y498964D01*
X193878Y500969D01*
X195332Y500969D01*
X195332Y489969D01*
X198337Y489969D01*
X198337Y488629D01*
G37*
G36*
X239289Y485064D02*
X228840Y485064D01*
X228840Y486202D01*
X239289Y486202D01*
X239289Y485064D01*
G37*
G36*
X202551Y488629D02*
X200843Y488629D01*
X200843Y490442D01*
X202551Y490442D01*
X202551Y488629D01*
G37*
G36*
X202551Y496292D02*
X200843Y496292D01*
X200843Y498105D01*
X202551Y498105D01*
X202551Y496292D01*
G37*
D10*
X386203Y144743D02*
X424802Y144743D01*
X386203Y144743D02*
X386203Y121345D01*
X424802Y121345D01*
D11*
X425323Y178706D02*
X391323Y178706D01*
X391323Y203140D02*
X425323Y203140D01*
D10*
X357034Y122449D02*
X318435Y122449D01*
X357034Y122449D02*
X357034Y145847D01*
X318435Y145847D01*
X206833Y121591D02*
X168234Y121591D01*
X206833Y121591D02*
X206833Y144989D01*
X168234Y144989D01*
X133110Y121591D02*
X94511Y121591D01*
X133110Y121591D02*
X133110Y144989D01*
X94511Y144989D01*
X246622Y123623D02*
X285221Y123623D01*
X285221Y147021D01*
X246622Y147021D01*
D11*
X318301Y202911D02*
X352301Y202911D01*
X352301Y178477D02*
X318301Y178477D01*
X282451Y203250D02*
X248451Y203250D01*
X248451Y178816D02*
X282451Y178816D01*
X202441Y202318D02*
X168441Y202318D01*
X168441Y177884D02*
X202441Y177884D01*
X132591Y202657D02*
X98591Y202657D01*
X98591Y178223D02*
X132591Y178223D01*
X-16524Y327167D02*
X-16524Y328507D01*
X-16525Y328507D02*
X-16523Y328578D01*
X-16517Y328650D01*
X-16508Y328720D01*
X-16495Y328790D01*
X-16478Y328860D01*
X-16457Y328928D01*
X-16433Y328995D01*
X-16405Y329061D01*
X-16374Y329125D01*
X-16339Y329188D01*
X-16301Y329248D01*
X-16260Y329307D01*
X-16216Y329363D01*
X-16169Y329417D01*
X-16120Y329468D01*
X-16067Y329516D01*
X-16012Y329562D01*
X-15955Y329604D01*
X-15895Y329644D01*
X-15834Y329680D01*
X-15770Y329713D01*
X-15705Y329742D01*
X-15639Y329768D01*
X-15571Y329791D01*
X-15502Y329810D01*
X-15432Y329825D01*
X-15362Y329836D01*
X-15291Y329844D01*
X-15220Y329848D01*
X-15148Y329848D01*
X-15077Y329844D01*
X-15006Y329836D01*
X-14936Y329825D01*
X-14866Y329810D01*
X-14797Y329791D01*
X-14729Y329768D01*
X-14663Y329742D01*
X-14598Y329713D01*
X-14534Y329680D01*
X-14473Y329644D01*
X-14413Y329604D01*
X-14356Y329562D01*
X-14301Y329516D01*
X-14248Y329468D01*
X-14199Y329417D01*
X-14152Y329363D01*
X-14108Y329307D01*
X-14067Y329248D01*
X-14029Y329188D01*
X-13994Y329125D01*
X-13963Y329061D01*
X-13935Y328995D01*
X-13911Y328928D01*
X-13890Y328860D01*
X-13873Y328790D01*
X-13860Y328720D01*
X-13851Y328650D01*
X-13845Y328578D01*
X-13843Y328507D01*
X-13843Y327167D01*
X-18669Y327167D01*
X-18669Y328507D01*
X-18667Y328572D01*
X-18661Y328636D01*
X-18651Y328700D01*
X-18638Y328764D01*
X-18620Y328826D01*
X-18599Y328887D01*
X-18575Y328947D01*
X-18546Y329005D01*
X-18514Y329062D01*
X-18479Y329116D01*
X-18441Y329168D01*
X-18399Y329218D01*
X-18355Y329265D01*
X-18308Y329309D01*
X-18258Y329351D01*
X-18206Y329389D01*
X-18152Y329424D01*
X-18095Y329456D01*
X-18037Y329485D01*
X-17977Y329509D01*
X-17916Y329530D01*
X-17854Y329548D01*
X-17790Y329561D01*
X-17726Y329571D01*
X-17662Y329577D01*
X-17597Y329579D01*
X-17532Y329577D01*
X-17468Y329571D01*
X-17404Y329561D01*
X-17340Y329548D01*
X-17278Y329530D01*
X-17217Y329509D01*
X-17157Y329485D01*
X-17099Y329456D01*
X-17042Y329424D01*
X-16988Y329389D01*
X-16936Y329351D01*
X-16886Y329309D01*
X-16839Y329265D01*
X-16795Y329218D01*
X-16753Y329168D01*
X-16715Y329116D01*
X-16680Y329062D01*
X-16648Y329005D01*
X-16619Y328947D01*
X-16595Y328887D01*
X-16574Y328826D01*
X-16556Y328764D01*
X-16543Y328700D01*
X-16533Y328636D01*
X-16527Y328572D01*
X-16525Y328507D01*
X-18669Y333798D02*
X-18667Y333866D01*
X-18661Y333933D01*
X-18652Y334000D01*
X-18639Y334067D01*
X-18622Y334132D01*
X-18601Y334197D01*
X-18577Y334260D01*
X-18549Y334322D01*
X-18518Y334382D01*
X-18484Y334440D01*
X-18446Y334496D01*
X-18406Y334551D01*
X-18362Y334602D01*
X-18315Y334651D01*
X-18266Y334698D01*
X-18215Y334742D01*
X-18160Y334782D01*
X-18104Y334820D01*
X-18046Y334854D01*
X-17986Y334885D01*
X-17924Y334913D01*
X-17861Y334937D01*
X-17796Y334958D01*
X-17731Y334975D01*
X-17664Y334988D01*
X-17597Y334997D01*
X-17530Y335003D01*
X-17462Y335005D01*
X-18669Y333798D02*
X-18667Y333720D01*
X-18661Y333642D01*
X-18651Y333565D01*
X-18638Y333488D01*
X-18620Y333412D01*
X-18599Y333337D01*
X-18574Y333263D01*
X-18545Y333191D01*
X-18513Y333120D01*
X-18477Y333051D01*
X-18438Y332983D01*
X-18395Y332918D01*
X-18349Y332855D01*
X-18300Y332794D01*
X-18248Y332736D01*
X-18193Y332681D01*
X-18136Y332628D01*
X-18076Y332579D01*
X-18013Y332532D01*
X-17948Y332489D01*
X-17882Y332449D01*
X-17813Y332412D01*
X-17742Y332379D01*
X-17670Y332349D01*
X-17597Y332323D01*
X-16524Y334603D02*
X-16573Y334652D01*
X-16625Y334699D01*
X-16680Y334742D01*
X-16737Y334783D01*
X-16796Y334821D01*
X-16857Y334855D01*
X-16920Y334886D01*
X-16984Y334914D01*
X-17050Y334938D01*
X-17116Y334958D01*
X-17184Y334975D01*
X-17253Y334988D01*
X-17322Y334997D01*
X-17392Y335003D01*
X-17462Y335005D01*
X-16524Y334603D02*
X-13843Y332324D01*
X-13843Y335005D01*
X415950Y578720D02*
X422250Y578720D01*
X422250Y528720D02*
X415950Y528720D01*
X396850Y578720D02*
X394100Y578720D01*
X441350Y578720D02*
X444100Y578720D01*
X396850Y528720D02*
X394100Y528720D01*
X441350Y528720D02*
X444100Y528720D01*
X444100Y578720D01*
X394100Y578720D02*
X394100Y528720D01*
D12*
X385600Y572770D02*
X385602Y572833D01*
X385608Y572895D01*
X385618Y572957D01*
X385631Y573019D01*
X385649Y573079D01*
X385670Y573138D01*
X385695Y573196D01*
X385724Y573252D01*
X385756Y573306D01*
X385791Y573358D01*
X385829Y573407D01*
X385871Y573455D01*
X385915Y573499D01*
X385963Y573541D01*
X386012Y573579D01*
X386064Y573614D01*
X386118Y573646D01*
X386174Y573675D01*
X386232Y573700D01*
X386291Y573721D01*
X386351Y573739D01*
X386413Y573752D01*
X386475Y573762D01*
X386537Y573768D01*
X386600Y573770D01*
X386663Y573768D01*
X386725Y573762D01*
X386787Y573752D01*
X386849Y573739D01*
X386909Y573721D01*
X386968Y573700D01*
X387026Y573675D01*
X387082Y573646D01*
X387136Y573614D01*
X387188Y573579D01*
X387237Y573541D01*
X387285Y573499D01*
X387329Y573455D01*
X387371Y573407D01*
X387409Y573358D01*
X387444Y573306D01*
X387476Y573252D01*
X387505Y573196D01*
X387530Y573138D01*
X387551Y573079D01*
X387569Y573019D01*
X387582Y572957D01*
X387592Y572895D01*
X387598Y572833D01*
X387600Y572770D01*
X387598Y572707D01*
X387592Y572645D01*
X387582Y572583D01*
X387569Y572521D01*
X387551Y572461D01*
X387530Y572402D01*
X387505Y572344D01*
X387476Y572288D01*
X387444Y572234D01*
X387409Y572182D01*
X387371Y572133D01*
X387329Y572085D01*
X387285Y572041D01*
X387237Y571999D01*
X387188Y571961D01*
X387136Y571926D01*
X387082Y571894D01*
X387026Y571865D01*
X386968Y571840D01*
X386909Y571819D01*
X386849Y571801D01*
X386787Y571788D01*
X386725Y571778D01*
X386663Y571772D01*
X386600Y571770D01*
X386537Y571772D01*
X386475Y571778D01*
X386413Y571788D01*
X386351Y571801D01*
X386291Y571819D01*
X386232Y571840D01*
X386174Y571865D01*
X386118Y571894D01*
X386064Y571926D01*
X386012Y571961D01*
X385963Y571999D01*
X385915Y572041D01*
X385871Y572085D01*
X385829Y572133D01*
X385791Y572182D01*
X385756Y572234D01*
X385724Y572288D01*
X385695Y572344D01*
X385670Y572402D01*
X385649Y572461D01*
X385631Y572521D01*
X385618Y572583D01*
X385608Y572645D01*
X385602Y572707D01*
X385600Y572770D01*
D11*
X313030Y578720D02*
X306730Y578720D01*
X306730Y528720D02*
X313030Y528720D01*
X287630Y578720D02*
X284880Y578720D01*
X332130Y578720D02*
X334880Y578720D01*
X287630Y528720D02*
X284880Y528720D01*
X332130Y528720D02*
X334880Y528720D01*
X334880Y578720D01*
X284880Y578720D02*
X284880Y528720D01*
D12*
X276380Y572770D02*
X276382Y572833D01*
X276388Y572895D01*
X276398Y572957D01*
X276411Y573019D01*
X276429Y573079D01*
X276450Y573138D01*
X276475Y573196D01*
X276504Y573252D01*
X276536Y573306D01*
X276571Y573358D01*
X276609Y573407D01*
X276651Y573455D01*
X276695Y573499D01*
X276743Y573541D01*
X276792Y573579D01*
X276844Y573614D01*
X276898Y573646D01*
X276954Y573675D01*
X277012Y573700D01*
X277071Y573721D01*
X277131Y573739D01*
X277193Y573752D01*
X277255Y573762D01*
X277317Y573768D01*
X277380Y573770D01*
X277443Y573768D01*
X277505Y573762D01*
X277567Y573752D01*
X277629Y573739D01*
X277689Y573721D01*
X277748Y573700D01*
X277806Y573675D01*
X277862Y573646D01*
X277916Y573614D01*
X277968Y573579D01*
X278017Y573541D01*
X278065Y573499D01*
X278109Y573455D01*
X278151Y573407D01*
X278189Y573358D01*
X278224Y573306D01*
X278256Y573252D01*
X278285Y573196D01*
X278310Y573138D01*
X278331Y573079D01*
X278349Y573019D01*
X278362Y572957D01*
X278372Y572895D01*
X278378Y572833D01*
X278380Y572770D01*
X278378Y572707D01*
X278372Y572645D01*
X278362Y572583D01*
X278349Y572521D01*
X278331Y572461D01*
X278310Y572402D01*
X278285Y572344D01*
X278256Y572288D01*
X278224Y572234D01*
X278189Y572182D01*
X278151Y572133D01*
X278109Y572085D01*
X278065Y572041D01*
X278017Y571999D01*
X277968Y571961D01*
X277916Y571926D01*
X277862Y571894D01*
X277806Y571865D01*
X277748Y571840D01*
X277689Y571819D01*
X277629Y571801D01*
X277567Y571788D01*
X277505Y571778D01*
X277443Y571772D01*
X277380Y571770D01*
X277317Y571772D01*
X277255Y571778D01*
X277193Y571788D01*
X277131Y571801D01*
X277071Y571819D01*
X277012Y571840D01*
X276954Y571865D01*
X276898Y571894D01*
X276844Y571926D01*
X276792Y571961D01*
X276743Y571999D01*
X276695Y572041D01*
X276651Y572085D01*
X276609Y572133D01*
X276571Y572182D01*
X276536Y572234D01*
X276504Y572288D01*
X276475Y572344D01*
X276450Y572402D01*
X276429Y572461D01*
X276411Y572521D01*
X276398Y572583D01*
X276388Y572645D01*
X276382Y572707D01*
X276380Y572770D01*
D13*
X505714Y241636D02*
X505714Y195244D01*
X484524Y254762D02*
X467106Y254762D01*
X467106Y245069D01*
X467106Y182118D02*
X484524Y182118D01*
X467106Y182118D02*
X467106Y191811D01*
X508254Y86696D02*
X508254Y40304D01*
X487064Y99822D02*
X469646Y99822D01*
X469646Y90129D01*
X469646Y27178D02*
X487064Y27178D01*
X469646Y27178D02*
X469646Y36871D01*
D14*
X239375Y357290D03*
D10*
X246800Y355390D02*
X286600Y355390D01*
X286600Y305010D02*
X246800Y305010D01*
D14*
X122830Y414860D03*
D10*
X127870Y412960D02*
X141370Y412960D01*
X141370Y389680D02*
X127870Y389680D01*
D14*
X371750Y417400D03*
D10*
X376790Y415500D02*
X390290Y415500D01*
X390290Y392220D02*
X376790Y392220D01*
D11*
X151620Y360197D02*
X117620Y360197D01*
X117620Y335763D02*
X151620Y335763D01*
X156700Y296697D02*
X122700Y296697D01*
X122700Y272263D02*
X156700Y272263D01*
X366540Y357657D02*
X400540Y357657D01*
X400540Y333223D02*
X366540Y333223D01*
X366540Y272263D02*
X400540Y272263D01*
X400540Y296697D02*
X366540Y296697D01*
D13*
X72390Y38100D02*
X59690Y38100D01*
X53340Y44450D01*
X53340Y57150D01*
X59690Y63500D01*
X97790Y38100D02*
X104140Y44450D01*
X97790Y38100D02*
X85090Y38100D01*
X78740Y44450D01*
X78740Y57150D01*
X85090Y63500D01*
X97790Y63500D01*
X104140Y57150D01*
X78740Y44450D02*
X72390Y38100D01*
X78740Y57150D02*
X72390Y63500D01*
X59690Y63500D01*
X135890Y38100D02*
X148590Y38100D01*
X135890Y38100D02*
X129540Y44450D01*
X129540Y57150D01*
X135890Y63500D01*
X129540Y44450D02*
X123190Y38100D01*
X110490Y38100D01*
X104140Y44450D01*
X104140Y57150D01*
X110490Y63500D01*
X123190Y63500D01*
X129540Y57150D01*
X173990Y38100D02*
X180340Y44450D01*
X173990Y38100D02*
X161290Y38100D01*
X154940Y44450D01*
X154940Y57150D01*
X161290Y63500D01*
X173990Y63500D01*
X180340Y57150D01*
X154940Y44450D02*
X148590Y38100D01*
X154940Y57150D02*
X148590Y63500D01*
X135890Y63500D01*
X212090Y38100D02*
X224790Y38100D01*
X212090Y38100D02*
X205740Y44450D01*
X205740Y57150D01*
X212090Y63500D01*
X205740Y44450D02*
X199390Y38100D01*
X186690Y38100D01*
X180340Y44450D01*
X180340Y57150D01*
X186690Y63500D01*
X199390Y63500D01*
X205740Y57150D01*
X231140Y57150D02*
X231140Y44450D01*
X224790Y38100D01*
X231140Y57150D02*
X224790Y63500D01*
X212090Y63500D01*
X46990Y38100D02*
X34290Y38100D01*
X27940Y44450D01*
X27940Y57150D01*
X34290Y63500D01*
X53340Y44450D02*
X46990Y38100D01*
X53340Y57150D02*
X46990Y63500D01*
X34290Y63500D01*
D11*
X90830Y632060D02*
X97130Y632060D01*
X97130Y582060D02*
X90830Y582060D01*
X71730Y632060D02*
X68980Y632060D01*
X116230Y632060D02*
X118980Y632060D01*
X71730Y582060D02*
X68980Y582060D01*
X116230Y582060D02*
X118980Y582060D01*
X118980Y632060D01*
X68980Y632060D02*
X68980Y582060D01*
D12*
X60480Y626110D02*
X60482Y626173D01*
X60488Y626235D01*
X60498Y626297D01*
X60511Y626359D01*
X60529Y626419D01*
X60550Y626478D01*
X60575Y626536D01*
X60604Y626592D01*
X60636Y626646D01*
X60671Y626698D01*
X60709Y626747D01*
X60751Y626795D01*
X60795Y626839D01*
X60843Y626881D01*
X60892Y626919D01*
X60944Y626954D01*
X60998Y626986D01*
X61054Y627015D01*
X61112Y627040D01*
X61171Y627061D01*
X61231Y627079D01*
X61293Y627092D01*
X61355Y627102D01*
X61417Y627108D01*
X61480Y627110D01*
X61543Y627108D01*
X61605Y627102D01*
X61667Y627092D01*
X61729Y627079D01*
X61789Y627061D01*
X61848Y627040D01*
X61906Y627015D01*
X61962Y626986D01*
X62016Y626954D01*
X62068Y626919D01*
X62117Y626881D01*
X62165Y626839D01*
X62209Y626795D01*
X62251Y626747D01*
X62289Y626698D01*
X62324Y626646D01*
X62356Y626592D01*
X62385Y626536D01*
X62410Y626478D01*
X62431Y626419D01*
X62449Y626359D01*
X62462Y626297D01*
X62472Y626235D01*
X62478Y626173D01*
X62480Y626110D01*
X62478Y626047D01*
X62472Y625985D01*
X62462Y625923D01*
X62449Y625861D01*
X62431Y625801D01*
X62410Y625742D01*
X62385Y625684D01*
X62356Y625628D01*
X62324Y625574D01*
X62289Y625522D01*
X62251Y625473D01*
X62209Y625425D01*
X62165Y625381D01*
X62117Y625339D01*
X62068Y625301D01*
X62016Y625266D01*
X61962Y625234D01*
X61906Y625205D01*
X61848Y625180D01*
X61789Y625159D01*
X61729Y625141D01*
X61667Y625128D01*
X61605Y625118D01*
X61543Y625112D01*
X61480Y625110D01*
X61417Y625112D01*
X61355Y625118D01*
X61293Y625128D01*
X61231Y625141D01*
X61171Y625159D01*
X61112Y625180D01*
X61054Y625205D01*
X60998Y625234D01*
X60944Y625266D01*
X60892Y625301D01*
X60843Y625339D01*
X60795Y625381D01*
X60751Y625425D01*
X60709Y625473D01*
X60671Y625522D01*
X60636Y625574D01*
X60604Y625628D01*
X60575Y625684D01*
X60550Y625742D01*
X60529Y625801D01*
X60511Y625861D01*
X60498Y625923D01*
X60488Y625985D01*
X60482Y626047D01*
X60480Y626110D01*
D11*
X202590Y576180D02*
X208890Y576180D01*
X208890Y526180D02*
X202590Y526180D01*
X183490Y576180D02*
X180740Y576180D01*
X227990Y576180D02*
X230740Y576180D01*
X183490Y526180D02*
X180740Y526180D01*
X227990Y526180D02*
X230740Y526180D01*
X230740Y576180D01*
X180740Y576180D02*
X180740Y526180D01*
D12*
X172240Y570230D02*
X172242Y570293D01*
X172248Y570355D01*
X172258Y570417D01*
X172271Y570479D01*
X172289Y570539D01*
X172310Y570598D01*
X172335Y570656D01*
X172364Y570712D01*
X172396Y570766D01*
X172431Y570818D01*
X172469Y570867D01*
X172511Y570915D01*
X172555Y570959D01*
X172603Y571001D01*
X172652Y571039D01*
X172704Y571074D01*
X172758Y571106D01*
X172814Y571135D01*
X172872Y571160D01*
X172931Y571181D01*
X172991Y571199D01*
X173053Y571212D01*
X173115Y571222D01*
X173177Y571228D01*
X173240Y571230D01*
X173303Y571228D01*
X173365Y571222D01*
X173427Y571212D01*
X173489Y571199D01*
X173549Y571181D01*
X173608Y571160D01*
X173666Y571135D01*
X173722Y571106D01*
X173776Y571074D01*
X173828Y571039D01*
X173877Y571001D01*
X173925Y570959D01*
X173969Y570915D01*
X174011Y570867D01*
X174049Y570818D01*
X174084Y570766D01*
X174116Y570712D01*
X174145Y570656D01*
X174170Y570598D01*
X174191Y570539D01*
X174209Y570479D01*
X174222Y570417D01*
X174232Y570355D01*
X174238Y570293D01*
X174240Y570230D01*
X174238Y570167D01*
X174232Y570105D01*
X174222Y570043D01*
X174209Y569981D01*
X174191Y569921D01*
X174170Y569862D01*
X174145Y569804D01*
X174116Y569748D01*
X174084Y569694D01*
X174049Y569642D01*
X174011Y569593D01*
X173969Y569545D01*
X173925Y569501D01*
X173877Y569459D01*
X173828Y569421D01*
X173776Y569386D01*
X173722Y569354D01*
X173666Y569325D01*
X173608Y569300D01*
X173549Y569279D01*
X173489Y569261D01*
X173427Y569248D01*
X173365Y569238D01*
X173303Y569232D01*
X173240Y569230D01*
X173177Y569232D01*
X173115Y569238D01*
X173053Y569248D01*
X172991Y569261D01*
X172931Y569279D01*
X172872Y569300D01*
X172814Y569325D01*
X172758Y569354D01*
X172704Y569386D01*
X172652Y569421D01*
X172603Y569459D01*
X172555Y569501D01*
X172511Y569545D01*
X172469Y569593D01*
X172431Y569642D01*
X172396Y569694D01*
X172364Y569748D01*
X172335Y569804D01*
X172310Y569862D01*
X172289Y569921D01*
X172271Y569981D01*
X172258Y570043D01*
X172248Y570105D01*
X172242Y570167D01*
X172240Y570230D01*
D13*
X323842Y483041D02*
X336542Y483041D01*
X342892Y476691D01*
X342892Y463991D01*
X336542Y457641D01*
X342892Y476691D02*
X349242Y483041D01*
X361942Y483041D01*
X368292Y476691D01*
X368292Y463991D01*
X361942Y457641D01*
X349242Y457641D01*
X342892Y463991D01*
X298442Y483041D02*
X292092Y476691D01*
X298442Y483041D02*
X311142Y483041D01*
X317492Y476691D01*
X317492Y463991D01*
X311142Y457641D01*
X298442Y457641D01*
X292092Y463991D01*
X317492Y476691D02*
X323842Y483041D01*
X317492Y463991D02*
X323842Y457641D01*
X336542Y457641D01*
X260342Y483041D02*
X247642Y483041D01*
X260342Y483041D02*
X266692Y476691D01*
X266692Y463991D01*
X260342Y457641D01*
X266692Y476691D02*
X273042Y483041D01*
X285742Y483041D01*
X292092Y476691D01*
X292092Y463991D01*
X285742Y457641D01*
X273042Y457641D01*
X266692Y463991D01*
X222242Y483041D02*
X215892Y476691D01*
X222242Y483041D02*
X234942Y483041D01*
X241292Y476691D01*
X241292Y463991D01*
X234942Y457641D01*
X222242Y457641D01*
X215892Y463991D01*
X241292Y476691D02*
X247642Y483041D01*
X241292Y463991D02*
X247642Y457641D01*
X260342Y457641D01*
X184142Y483041D02*
X171442Y483041D01*
X184142Y483041D02*
X190492Y476691D01*
X190492Y463991D01*
X184142Y457641D01*
X190492Y476691D02*
X196842Y483041D01*
X209542Y483041D01*
X215892Y476691D01*
X215892Y463991D01*
X209542Y457641D01*
X196842Y457641D01*
X190492Y463991D01*
X165092Y463991D02*
X165092Y476691D01*
X171442Y483041D01*
X165092Y463991D02*
X171442Y457641D01*
X184142Y457641D01*
X374642Y483041D02*
X387342Y483041D01*
X393692Y476691D01*
X393692Y463991D01*
X387342Y457641D01*
X368292Y476691D02*
X374642Y483041D01*
X368292Y463991D02*
X374642Y457641D01*
X387342Y457641D01*
X368636Y27686D02*
X322244Y27686D01*
X381762Y48876D02*
X381762Y66294D01*
X372069Y66294D01*
X309118Y66294D02*
X309118Y48876D01*
X309118Y66294D02*
X318811Y66294D01*
D11*
X320523Y384320D02*
X320523Y418320D01*
X344957Y418320D02*
X344957Y384320D01*
X432580Y423697D02*
X466580Y423697D01*
X466580Y399263D02*
X432580Y399263D01*
X249403Y67800D02*
X249403Y33800D01*
X273837Y33800D02*
X273837Y67800D01*
X19282Y79520D02*
X19282Y113520D01*
X43716Y113520D02*
X43716Y79520D01*
M02*
