G04 EAGLE Gerber RS-274X export*
G75*
%MOMM*%
%FSLAX34Y34*%
%LPD*%
%INSoldermask Top*%
%IPPOS*%
%AMOC8*
5,1,8,0,0,1.08239X$1,22.5*%
G01*
G04 Define Apertures*
%ADD10R,1.165000X1.915000*%
%ADD11R,1.367800X2.018500*%
%ADD12C,3.378200*%
%ADD13C,2.133600*%
%ADD14R,1.473200X1.983200*%
%ADD15R,1.752600X0.863600*%
%ADD16R,2.108200X1.498600*%
%ADD17R,1.753200X0.803200*%
%ADD18R,1.103200X0.603200*%
%ADD19C,1.727200*%
%ADD20R,0.863600X1.752600*%
%ADD21R,1.498600X2.108200*%
%ADD22R,2.018500X1.367800*%
%ADD23C,1.303200*%
D10*
X393552Y133044D03*
X424052Y133044D03*
D11*
X423077Y190923D03*
X393569Y190923D03*
D10*
X349685Y134148D03*
X319185Y134148D03*
X199484Y133290D03*
X168984Y133290D03*
X125761Y133290D03*
X95261Y133290D03*
X277872Y135322D03*
X247372Y135322D03*
D11*
X320547Y190694D03*
X350055Y190694D03*
X250697Y191033D03*
X280205Y191033D03*
X170687Y190101D03*
X200195Y190101D03*
X100837Y190440D03*
X130345Y190440D03*
D12*
X24892Y153286D03*
X177292Y661286D03*
X456692Y661286D03*
X507492Y140586D03*
D13*
X507492Y280286D03*
X507492Y305686D03*
X507492Y331086D03*
X507492Y356486D03*
X507492Y381886D03*
X507492Y407286D03*
X507492Y432686D03*
X507492Y458086D03*
X507492Y508886D03*
X507492Y534286D03*
X507492Y559686D03*
X507492Y585086D03*
X507492Y610486D03*
X507492Y635886D03*
X24892Y635886D03*
X24892Y610486D03*
X24892Y585086D03*
X24892Y559686D03*
X24892Y534286D03*
X24892Y508886D03*
X24892Y483486D03*
X24892Y458086D03*
X24892Y417446D03*
X24892Y392046D03*
X24892Y366646D03*
X24892Y341246D03*
X24892Y315846D03*
X24892Y290446D03*
X24892Y265046D03*
X24892Y239646D03*
X24892Y214246D03*
X24892Y188846D03*
X228592Y637286D03*
X228592Y662686D03*
X253992Y637286D03*
X253992Y662686D03*
X279392Y637286D03*
X279392Y662686D03*
D14*
X406400Y572770D03*
X406400Y534670D03*
X431800Y534670D03*
X431800Y572770D03*
X297180Y572770D03*
X297180Y534670D03*
X322580Y534670D03*
X322580Y572770D03*
D15*
X472126Y238440D03*
X472126Y228440D03*
X472126Y218440D03*
X472126Y208440D03*
X472126Y198440D03*
D16*
X497376Y185440D03*
X497376Y251440D03*
D15*
X474666Y83500D03*
X474666Y73500D03*
X474666Y63500D03*
X474666Y53500D03*
X474666Y43500D03*
D16*
X499916Y30500D03*
X499916Y96500D03*
D17*
X239700Y349250D03*
X239700Y336550D03*
X239700Y323850D03*
X239700Y311150D03*
X293700Y311150D03*
X293700Y323850D03*
X293700Y336550D03*
X293700Y349250D03*
D18*
X123620Y407820D03*
X123620Y401320D03*
X123620Y394820D03*
X145620Y394820D03*
X145620Y401320D03*
X145620Y407820D03*
X372540Y410360D03*
X372540Y403860D03*
X372540Y397360D03*
X394540Y397360D03*
X394540Y403860D03*
X394540Y410360D03*
D11*
X119866Y347980D03*
X149374Y347980D03*
X124946Y284480D03*
X154454Y284480D03*
X368786Y345440D03*
X398294Y345440D03*
X398294Y284480D03*
X368786Y284480D03*
D19*
X218440Y58420D02*
X218440Y43180D01*
X193040Y43180D02*
X193040Y58420D01*
X167640Y58420D02*
X167640Y43180D01*
X142240Y43180D02*
X142240Y58420D01*
X116840Y58420D02*
X116840Y43180D01*
X91440Y43180D02*
X91440Y58420D01*
X66040Y58420D02*
X66040Y43180D01*
X40640Y43180D02*
X40640Y58420D01*
D14*
X81280Y626110D03*
X81280Y588010D03*
X106680Y588010D03*
X106680Y626110D03*
X193040Y570230D03*
X193040Y532130D03*
X218440Y532130D03*
X218440Y570230D03*
D19*
X177792Y477961D02*
X177792Y462721D01*
X203192Y462721D02*
X203192Y477961D01*
X228592Y477961D02*
X228592Y462721D01*
X253992Y462721D02*
X253992Y477961D01*
X279392Y477961D02*
X279392Y462721D01*
X304792Y462721D02*
X304792Y477961D01*
X330192Y477961D02*
X330192Y462721D01*
X355592Y462721D02*
X355592Y477961D01*
X380992Y477961D02*
X380992Y462721D01*
D20*
X365440Y61274D03*
X355440Y61274D03*
X345440Y61274D03*
X335440Y61274D03*
X325440Y61274D03*
D21*
X312440Y36024D03*
X378440Y36024D03*
D22*
X332740Y386566D03*
X332740Y416074D03*
D11*
X434826Y411480D03*
X464334Y411480D03*
D22*
X261620Y36046D03*
X261620Y65554D03*
X31499Y81766D03*
X31499Y111274D03*
D23*
X439420Y251460D03*
X180340Y309880D03*
X355600Y396240D03*
X314960Y254000D03*
X134620Y627380D03*
X431800Y500380D03*
X177800Y266700D03*
X236220Y228600D03*
X233680Y162560D03*
X431800Y154940D03*
X480060Y160020D03*
X60960Y233680D03*
X172720Y391160D03*
X439420Y210820D03*
X48260Y213360D03*
X109220Y383540D03*
X439420Y231140D03*
X434340Y73660D03*
X200660Y342900D03*
X223520Y378460D03*
X434340Y55880D03*
X337820Y322580D03*
X480060Y353060D03*
X457200Y322580D03*
X386080Y312420D03*
X147320Y236220D03*
X121920Y312420D03*
X111760Y241720D03*
X294640Y83820D03*
X293370Y262890D03*
X309880Y218440D03*
X309880Y162560D03*
X53340Y457200D03*
X294640Y434340D03*
X220980Y271780D03*
X81280Y558800D03*
X259080Y584200D03*
X365760Y594360D03*
X363220Y647700D03*
X452120Y373380D03*
X58420Y101600D03*
X91440Y162560D03*
X431800Y375920D03*
X426720Y444500D03*
X332740Y365760D03*
X439420Y467360D03*
X294640Y368300D03*
M02*
