G04 EAGLE Gerber RS-274X export*
G75*
%MOMM*%
%FSLAX34Y34*%
%LPD*%
%IN*%
%IPPOS*%
%AMOC8*
5,1,8,0,0,1.08239X$1,22.5*%
G01*
G04 Define Apertures*
%ADD10C,0.254000*%
D10*
X0Y12700D02*
X48Y11593D01*
X193Y10495D01*
X433Y9413D01*
X766Y8356D01*
X1190Y7333D01*
X1701Y6350D01*
X2297Y5416D01*
X2971Y4537D01*
X3720Y3720D01*
X4537Y2971D01*
X5416Y2297D01*
X6350Y1701D01*
X7333Y1190D01*
X8356Y766D01*
X9413Y433D01*
X10495Y193D01*
X11593Y48D01*
X12700Y0D01*
X129540Y0D01*
X151656Y22116D01*
X151819Y22266D01*
X151995Y22401D01*
X152182Y22520D01*
X152379Y22622D01*
X152583Y22707D01*
X152795Y22773D01*
X153011Y22821D01*
X153231Y22850D01*
X153452Y22860D01*
X165100Y22860D01*
X166207Y22908D01*
X167305Y23053D01*
X168387Y23293D01*
X169444Y23626D01*
X170467Y24050D01*
X171450Y24561D01*
X172384Y25157D01*
X173263Y25831D01*
X174080Y26580D01*
X174829Y27397D01*
X175503Y28276D01*
X176099Y29210D01*
X176610Y30193D01*
X177034Y31216D01*
X177367Y32273D01*
X177607Y33355D01*
X177752Y34453D01*
X177800Y35560D01*
X177800Y129540D01*
X177742Y130868D01*
X177568Y132186D01*
X177281Y133484D01*
X176881Y134752D01*
X176372Y135981D01*
X175758Y137160D01*
X175044Y138281D01*
X174235Y139336D01*
X173336Y140316D01*
X172356Y141215D01*
X171301Y142024D01*
X170180Y142738D01*
X169001Y143352D01*
X167772Y143861D01*
X166504Y144261D01*
X165206Y144548D01*
X163888Y144722D01*
X162560Y144780D01*
X83820Y144780D01*
X83820Y154940D01*
X83772Y156047D01*
X83627Y157145D01*
X83387Y158227D01*
X83054Y159284D01*
X82630Y160307D01*
X82119Y161290D01*
X81523Y162224D01*
X80849Y163103D01*
X80100Y163920D01*
X79283Y164669D01*
X78404Y165343D01*
X77470Y165939D01*
X76487Y166450D01*
X75464Y166874D01*
X74407Y167207D01*
X73325Y167447D01*
X72227Y167592D01*
X71120Y167640D01*
X12700Y167640D01*
X11593Y167592D01*
X10495Y167447D01*
X9413Y167207D01*
X8356Y166874D01*
X7333Y166450D01*
X6350Y165939D01*
X5416Y165343D01*
X4537Y164669D01*
X3720Y163920D01*
X2971Y163103D01*
X2297Y162224D01*
X1701Y161290D01*
X1190Y160307D01*
X766Y159284D01*
X433Y158227D01*
X193Y157145D01*
X48Y156047D01*
X0Y154940D01*
X0Y12700D01*
M02*
