G04 EAGLE Gerber RS-274X export*
G75*
%MOMM*%
%FSLAX34Y34*%
%LPD*%
%INSilkscreen Top*%
%IPPOS*%
%AMOC8*
5,1,8,0,0,1.08239X$1,22.5*%
G01*
G04 Define Apertures*
%ADD10C,0.130000*%
%ADD11C,0.127000*%
%ADD12C,0.120000*%
%ADD13C,0.152400*%
G36*
X63118Y78222D02*
X62703Y78238D01*
X62305Y78283D01*
X61924Y78359D01*
X61560Y78465D01*
X61213Y78601D01*
X60882Y78768D01*
X60569Y78964D01*
X60272Y79192D01*
X59998Y79442D01*
X59752Y79710D01*
X59535Y79994D01*
X59346Y80296D01*
X59185Y80614D01*
X59053Y80949D01*
X58949Y81301D01*
X58873Y81670D01*
X58824Y81670D01*
X58730Y81326D01*
X58610Y81002D01*
X58467Y80695D01*
X58300Y80408D01*
X58108Y80139D01*
X57893Y79888D01*
X57653Y79656D01*
X57389Y79443D01*
X57107Y79252D01*
X56813Y79086D01*
X56507Y78946D01*
X56190Y78831D01*
X55860Y78742D01*
X55519Y78678D01*
X55166Y78640D01*
X54800Y78627D01*
X54318Y78650D01*
X53860Y78720D01*
X53424Y78835D01*
X53012Y78997D01*
X52624Y79205D01*
X52259Y79459D01*
X51917Y79759D01*
X51599Y80106D01*
X51311Y80491D01*
X51062Y80908D01*
X50851Y81357D01*
X50678Y81837D01*
X50544Y82349D01*
X50448Y82892D01*
X50391Y83468D01*
X50372Y84074D01*
X50390Y84695D01*
X50447Y85283D01*
X50541Y85837D01*
X50672Y86358D01*
X50841Y86845D01*
X51048Y87298D01*
X51292Y87718D01*
X51574Y88104D01*
X51888Y88451D01*
X52228Y88751D01*
X52595Y89005D01*
X52988Y89213D01*
X53407Y89375D01*
X53854Y89490D01*
X54326Y89560D01*
X54825Y89583D01*
X55190Y89570D01*
X55543Y89531D01*
X55885Y89467D01*
X56214Y89377D01*
X56532Y89262D01*
X56838Y89120D01*
X57132Y88953D01*
X57414Y88761D01*
X57677Y88546D01*
X57914Y88312D01*
X57935Y88287D01*
X58126Y88060D01*
X58312Y87788D01*
X58473Y87498D01*
X58607Y87190D01*
X58716Y86862D01*
X58800Y86516D01*
X58849Y86516D01*
X58930Y86918D01*
X59038Y87298D01*
X59173Y87654D01*
X59335Y87988D01*
X59524Y88298D01*
X59740Y88586D01*
X59983Y88850D01*
X60201Y89045D01*
X60254Y89092D01*
X60546Y89308D01*
X60857Y89495D01*
X61185Y89653D01*
X61531Y89782D01*
X61895Y89883D01*
X62277Y89955D01*
X62676Y89998D01*
X63094Y90012D01*
X63389Y90006D01*
X63675Y89988D01*
X64224Y89917D01*
X64740Y89798D01*
X65222Y89632D01*
X65672Y89418D01*
X66089Y89156D01*
X66472Y88847D01*
X66823Y88491D01*
X67137Y88090D01*
X67408Y87647D01*
X67638Y87164D01*
X67826Y86638D01*
X67972Y86072D01*
X68077Y85464D01*
X68139Y84814D01*
X68160Y84123D01*
X68140Y83449D01*
X68078Y82813D01*
X67976Y82214D01*
X67832Y81653D01*
X67648Y81130D01*
X67422Y80644D01*
X67155Y80197D01*
X66848Y79787D01*
X66502Y79420D01*
X66122Y79102D01*
X65708Y78833D01*
X65259Y78613D01*
X64776Y78442D01*
X64258Y78320D01*
X63986Y78277D01*
X63705Y78247D01*
X63416Y78229D01*
X63118Y78222D01*
G37*
%LPC*%
G36*
X62934Y80504D02*
X63367Y80519D01*
X63771Y80561D01*
X64147Y80632D01*
X64496Y80732D01*
X64817Y80860D01*
X65110Y81017D01*
X65375Y81202D01*
X65612Y81415D01*
X65821Y81657D01*
X66002Y81928D01*
X66156Y82226D01*
X66281Y82554D01*
X66379Y82910D01*
X66448Y83294D01*
X66490Y83707D01*
X66504Y84148D01*
X66491Y84584D01*
X66450Y84992D01*
X66383Y85371D01*
X66288Y85721D01*
X66166Y86043D01*
X66018Y86335D01*
X65842Y86599D01*
X65639Y86835D01*
X65407Y87042D01*
X65143Y87221D01*
X64847Y87373D01*
X64518Y87497D01*
X64158Y87594D01*
X63766Y87663D01*
X63341Y87704D01*
X62885Y87718D01*
X62496Y87703D01*
X62131Y87658D01*
X61791Y87583D01*
X61476Y87479D01*
X61185Y87344D01*
X60920Y87180D01*
X60679Y86985D01*
X60462Y86761D01*
X60271Y86510D01*
X60105Y86234D01*
X59965Y85935D01*
X59850Y85611D01*
X59761Y85263D01*
X59697Y84891D01*
X59659Y84495D01*
X59646Y84074D01*
X59660Y83666D01*
X59701Y83280D01*
X59770Y82917D01*
X59866Y82578D01*
X59989Y82261D01*
X60140Y81967D01*
X60318Y81697D01*
X60524Y81449D01*
X60753Y81228D01*
X61003Y81036D01*
X61274Y80873D01*
X61565Y80740D01*
X61876Y80637D01*
X62208Y80563D01*
X62561Y80519D01*
X62934Y80504D01*
G37*
G36*
X54948Y80885D02*
X55308Y80898D01*
X55646Y80937D01*
X55962Y81003D01*
X56256Y81095D01*
X56528Y81213D01*
X56778Y81357D01*
X57005Y81528D01*
X57211Y81725D01*
X57394Y81946D01*
X57552Y82188D01*
X57686Y82453D01*
X57795Y82739D01*
X57881Y83046D01*
X57941Y83375D01*
X57978Y83726D01*
X57990Y84099D01*
X57979Y84477D01*
X57945Y84831D01*
X57889Y85163D01*
X57811Y85471D01*
X57710Y85756D01*
X57586Y86018D01*
X57441Y86257D01*
X57272Y86473D01*
X57079Y86664D01*
X56858Y86830D01*
X56609Y86970D01*
X56332Y87085D01*
X56028Y87174D01*
X55696Y87238D01*
X55336Y87276D01*
X54948Y87289D01*
X54593Y87276D01*
X54260Y87238D01*
X53951Y87176D01*
X53665Y87088D01*
X53401Y86975D01*
X53161Y86837D01*
X52943Y86673D01*
X52749Y86485D01*
X52577Y86272D01*
X52428Y86033D01*
X52302Y85769D01*
X52199Y85481D01*
X52119Y85167D01*
X52061Y84828D01*
X52027Y84464D01*
X52016Y84074D01*
X52027Y83696D01*
X52062Y83342D01*
X52119Y83010D01*
X52200Y82702D01*
X52303Y82417D01*
X52430Y82155D01*
X52579Y81916D01*
X52752Y81700D01*
X52947Y81509D01*
X53165Y81344D01*
X53406Y81203D01*
X53669Y81089D01*
X53955Y80999D01*
X54263Y80936D01*
X54594Y80897D01*
X54948Y80885D01*
G37*
%LPD*%
G36*
X63118Y92191D02*
X62703Y92206D01*
X62305Y92252D01*
X61924Y92327D01*
X61560Y92433D01*
X61213Y92570D01*
X60882Y92736D01*
X60569Y92933D01*
X60272Y93160D01*
X59998Y93411D01*
X59752Y93679D01*
X59535Y93963D01*
X59346Y94265D01*
X59185Y94583D01*
X59053Y94918D01*
X58949Y95270D01*
X58873Y95639D01*
X58824Y95639D01*
X58730Y95295D01*
X58610Y94970D01*
X58467Y94664D01*
X58300Y94376D01*
X58108Y94107D01*
X57893Y93857D01*
X57653Y93625D01*
X57389Y93412D01*
X57107Y93221D01*
X56813Y93055D01*
X56507Y92915D01*
X56190Y92800D01*
X55860Y92711D01*
X55519Y92647D01*
X55166Y92609D01*
X54800Y92596D01*
X54318Y92619D01*
X53860Y92688D01*
X53424Y92804D01*
X53012Y92966D01*
X52624Y93174D01*
X52259Y93428D01*
X51917Y93728D01*
X51599Y94074D01*
X51311Y94460D01*
X51062Y94877D01*
X50851Y95325D01*
X50678Y95806D01*
X50544Y96318D01*
X50448Y96861D01*
X50391Y97436D01*
X50372Y98043D01*
X50390Y98664D01*
X50447Y99252D01*
X50541Y99806D01*
X50672Y100326D01*
X50841Y100813D01*
X51048Y101267D01*
X51292Y101687D01*
X51574Y102073D01*
X51888Y102420D01*
X52228Y102720D01*
X52595Y102974D01*
X52988Y103182D01*
X53407Y103344D01*
X53854Y103459D01*
X54326Y103528D01*
X54825Y103551D01*
X55190Y103539D01*
X55543Y103500D01*
X55885Y103436D01*
X56214Y103346D01*
X56532Y103230D01*
X56838Y103089D01*
X57132Y102922D01*
X57414Y102729D01*
X57677Y102515D01*
X57914Y102281D01*
X57935Y102256D01*
X58126Y102028D01*
X58312Y101757D01*
X58473Y101467D01*
X58607Y101158D01*
X58716Y100831D01*
X58800Y100484D01*
X58849Y100484D01*
X58930Y100887D01*
X59038Y101267D01*
X59173Y101623D01*
X59335Y101957D01*
X59524Y102267D01*
X59740Y102555D01*
X59983Y102819D01*
X60201Y103014D01*
X60254Y103061D01*
X60546Y103276D01*
X60857Y103463D01*
X61185Y103621D01*
X61531Y103751D01*
X61895Y103851D01*
X62277Y103923D01*
X62676Y103966D01*
X63094Y103981D01*
X63389Y103975D01*
X63675Y103957D01*
X64224Y103886D01*
X64740Y103767D01*
X65222Y103601D01*
X65672Y103387D01*
X66089Y103125D01*
X66472Y102816D01*
X66823Y102460D01*
X67137Y102059D01*
X67408Y101616D01*
X67638Y101132D01*
X67826Y100607D01*
X67972Y100040D01*
X68077Y99432D01*
X68139Y98783D01*
X68160Y98092D01*
X68140Y97418D01*
X68078Y96781D01*
X67976Y96183D01*
X67832Y95622D01*
X67648Y95098D01*
X67422Y94613D01*
X67155Y94165D01*
X66848Y93755D01*
X66502Y93389D01*
X66122Y93071D01*
X65708Y92802D01*
X65259Y92582D01*
X64776Y92411D01*
X64258Y92289D01*
X63986Y92246D01*
X63705Y92216D01*
X63416Y92197D01*
X63118Y92191D01*
G37*
%LPC*%
G36*
X62934Y94473D02*
X63367Y94487D01*
X63771Y94530D01*
X64147Y94601D01*
X64496Y94701D01*
X64817Y94829D01*
X65110Y94985D01*
X65375Y95170D01*
X65612Y95384D01*
X65821Y95626D01*
X66002Y95896D01*
X66156Y96195D01*
X66281Y96523D01*
X66379Y96878D01*
X66448Y97263D01*
X66490Y97675D01*
X66504Y98117D01*
X66491Y98553D01*
X66450Y98961D01*
X66383Y99340D01*
X66288Y99690D01*
X66166Y100012D01*
X66018Y100304D01*
X65842Y100568D01*
X65639Y100803D01*
X65407Y101010D01*
X65143Y101190D01*
X64847Y101342D01*
X64518Y101466D01*
X64158Y101562D01*
X63766Y101631D01*
X63341Y101673D01*
X62885Y101687D01*
X62496Y101672D01*
X62131Y101627D01*
X61791Y101552D01*
X61476Y101447D01*
X61185Y101313D01*
X60920Y101148D01*
X60679Y100954D01*
X60462Y100730D01*
X60271Y100478D01*
X60105Y100203D01*
X59965Y99903D01*
X59850Y99580D01*
X59761Y99232D01*
X59697Y98860D01*
X59659Y98463D01*
X59646Y98043D01*
X59660Y97634D01*
X59701Y97249D01*
X59770Y96886D01*
X59866Y96546D01*
X59989Y96230D01*
X60140Y95936D01*
X60318Y95665D01*
X60524Y95418D01*
X60753Y95196D01*
X61003Y95004D01*
X61274Y94842D01*
X61565Y94709D01*
X61876Y94606D01*
X62208Y94532D01*
X62561Y94488D01*
X62934Y94473D01*
G37*
G36*
X54948Y94853D02*
X55308Y94867D01*
X55646Y94906D01*
X55962Y94972D01*
X56256Y95063D01*
X56528Y95182D01*
X56778Y95326D01*
X57005Y95497D01*
X57211Y95694D01*
X57394Y95915D01*
X57552Y96157D01*
X57686Y96421D01*
X57795Y96707D01*
X57881Y97015D01*
X57941Y97344D01*
X57978Y97695D01*
X57990Y98068D01*
X57979Y98446D01*
X57945Y98800D01*
X57889Y99132D01*
X57811Y99440D01*
X57710Y99725D01*
X57586Y99987D01*
X57441Y100226D01*
X57272Y100441D01*
X57079Y100633D01*
X56858Y100798D01*
X56609Y100939D01*
X56332Y101053D01*
X56028Y101143D01*
X55696Y101206D01*
X55336Y101245D01*
X54948Y101257D01*
X54593Y101245D01*
X54260Y101207D01*
X53951Y101144D01*
X53665Y101056D01*
X53401Y100943D01*
X53161Y100805D01*
X52943Y100642D01*
X52749Y100454D01*
X52577Y100240D01*
X52428Y100002D01*
X52302Y99738D01*
X52199Y99449D01*
X52119Y99135D01*
X52061Y98796D01*
X52027Y98432D01*
X52016Y98043D01*
X52027Y97665D01*
X52062Y97310D01*
X52119Y96979D01*
X52200Y96671D01*
X52303Y96385D01*
X52430Y96124D01*
X52579Y95885D01*
X52752Y95669D01*
X52947Y95478D01*
X53165Y95312D01*
X53406Y95172D01*
X53669Y95057D01*
X53955Y94968D01*
X54263Y94904D01*
X54594Y94866D01*
X54948Y94853D01*
G37*
%LPD*%
G36*
X56187Y57371D02*
X55852Y57377D01*
X55527Y57395D01*
X54904Y57466D01*
X54316Y57585D01*
X53765Y57751D01*
X53251Y57965D01*
X52772Y58227D01*
X52330Y58536D01*
X51924Y58892D01*
X51560Y59291D01*
X51245Y59727D01*
X50978Y60200D01*
X50760Y60711D01*
X50590Y61258D01*
X50469Y61843D01*
X50426Y62150D01*
X50396Y62465D01*
X50378Y62790D01*
X50372Y63125D01*
X50380Y63479D01*
X50405Y63823D01*
X50447Y64157D01*
X50505Y64479D01*
X50580Y64790D01*
X50672Y65090D01*
X50780Y65379D01*
X50905Y65658D01*
X51047Y65925D01*
X51206Y66182D01*
X51381Y66428D01*
X51572Y66662D01*
X51781Y66886D01*
X52006Y67099D01*
X52248Y67301D01*
X52506Y67492D01*
X52782Y67672D01*
X53074Y67840D01*
X53382Y67996D01*
X53708Y68141D01*
X54050Y68275D01*
X54409Y68397D01*
X54785Y68507D01*
X55178Y68605D01*
X55587Y68692D01*
X56013Y68768D01*
X56456Y68831D01*
X56916Y68884D01*
X57392Y68924D01*
X57886Y68953D01*
X58923Y68976D01*
X59471Y68970D01*
X60004Y68951D01*
X60520Y68919D01*
X61020Y68875D01*
X61505Y68818D01*
X61973Y68748D01*
X62425Y68665D01*
X62861Y68570D01*
X63280Y68462D01*
X63684Y68341D01*
X64072Y68208D01*
X64443Y68062D01*
X64799Y67903D01*
X65138Y67732D01*
X65461Y67548D01*
X65768Y67351D01*
X66058Y67142D01*
X66329Y66923D01*
X66581Y66693D01*
X66815Y66452D01*
X67030Y66200D01*
X67226Y65938D01*
X67403Y65664D01*
X67562Y65380D01*
X67702Y65086D01*
X67824Y64780D01*
X67927Y64463D01*
X68011Y64136D01*
X68076Y63798D01*
X68123Y63450D01*
X68151Y63090D01*
X68160Y62720D01*
X68147Y62226D01*
X68107Y61758D01*
X68040Y61315D01*
X67947Y60896D01*
X67827Y60503D01*
X67681Y60135D01*
X67508Y59793D01*
X67308Y59475D01*
X67078Y59180D01*
X66816Y58908D01*
X66521Y58657D01*
X66193Y58427D01*
X65832Y58220D01*
X65439Y58034D01*
X65013Y57869D01*
X64554Y57727D01*
X64222Y59837D01*
X64484Y59926D01*
X64728Y60027D01*
X64956Y60141D01*
X65167Y60268D01*
X65361Y60407D01*
X65538Y60558D01*
X65698Y60722D01*
X65842Y60898D01*
X65968Y61087D01*
X66078Y61288D01*
X66171Y61501D01*
X66247Y61728D01*
X66306Y61966D01*
X66348Y62217D01*
X66373Y62481D01*
X66382Y62757D01*
X66375Y62991D01*
X66354Y63218D01*
X66319Y63439D01*
X66271Y63654D01*
X66209Y63861D01*
X66133Y64062D01*
X65940Y64443D01*
X65691Y64798D01*
X65388Y65126D01*
X65029Y65427D01*
X64615Y65701D01*
X64150Y65946D01*
X63637Y66160D01*
X63078Y66343D01*
X62471Y66495D01*
X61817Y66616D01*
X61116Y66706D01*
X60368Y66765D01*
X59573Y66793D01*
X59842Y66659D01*
X60098Y66504D01*
X60340Y66326D01*
X60568Y66127D01*
X60783Y65906D01*
X60984Y65663D01*
X61172Y65399D01*
X61345Y65112D01*
X61502Y64811D01*
X61638Y64502D01*
X61753Y64187D01*
X61847Y63864D01*
X61920Y63533D01*
X61972Y63196D01*
X62004Y62851D01*
X62014Y62499D01*
X62008Y62211D01*
X61989Y61931D01*
X61958Y61658D01*
X61914Y61392D01*
X61790Y60882D01*
X61615Y60401D01*
X61391Y59949D01*
X61117Y59527D01*
X60793Y59134D01*
X60419Y58769D01*
X60004Y58442D01*
X59557Y58158D01*
X59076Y57917D01*
X58564Y57720D01*
X58018Y57568D01*
X57440Y57458D01*
X56830Y57393D01*
X56187Y57371D01*
G37*
%LPC*%
G36*
X56187Y59616D02*
X56647Y59630D01*
X57082Y59673D01*
X57492Y59745D01*
X57878Y59846D01*
X58239Y59975D01*
X58576Y60133D01*
X58887Y60320D01*
X59174Y60536D01*
X59431Y60776D01*
X59654Y61037D01*
X59843Y61318D01*
X59998Y61619D01*
X60118Y61940D01*
X60203Y62282D01*
X60255Y62644D01*
X60272Y63026D01*
X60265Y63264D01*
X60245Y63496D01*
X60211Y63725D01*
X60163Y63950D01*
X60027Y64386D01*
X59837Y64805D01*
X59596Y65194D01*
X59311Y65540D01*
X58980Y65842D01*
X58604Y66100D01*
X58401Y66210D01*
X58191Y66306D01*
X57974Y66387D01*
X57751Y66454D01*
X57521Y66505D01*
X57283Y66542D01*
X57039Y66564D01*
X56788Y66572D01*
X56279Y66557D01*
X55796Y66512D01*
X55338Y66437D01*
X54906Y66333D01*
X54500Y66198D01*
X54118Y66034D01*
X53763Y65839D01*
X53433Y65615D01*
X53135Y65366D01*
X52877Y65096D01*
X52659Y64806D01*
X52480Y64496D01*
X52341Y64165D01*
X52242Y63814D01*
X52183Y63443D01*
X52163Y63051D01*
X52180Y62663D01*
X52231Y62296D01*
X52316Y61950D01*
X52434Y61625D01*
X52587Y61321D01*
X52774Y61038D01*
X52994Y60777D01*
X53249Y60536D01*
X53532Y60320D01*
X53839Y60133D01*
X54171Y59975D01*
X54526Y59846D01*
X54905Y59745D01*
X55308Y59673D01*
X55736Y59630D01*
X56187Y59616D01*
G37*
%LPD*%
G36*
X67915Y72456D02*
X65228Y72456D01*
X65228Y74848D01*
X67915Y74848D01*
X67915Y72456D01*
G37*
G36*
X64714Y39917D02*
X63041Y39917D01*
X63041Y52257D01*
X68848Y52257D01*
X69354Y52243D01*
X69831Y52199D01*
X70278Y52126D01*
X70695Y52024D01*
X71082Y51893D01*
X71440Y51733D01*
X71768Y51543D01*
X72067Y51325D01*
X72332Y51080D01*
X72563Y50812D01*
X72758Y50522D01*
X72917Y50209D01*
X73041Y49873D01*
X73130Y49514D01*
X73183Y49132D01*
X73201Y48728D01*
X73188Y48391D01*
X73151Y48067D01*
X73088Y47758D01*
X73000Y47462D01*
X72888Y47180D01*
X72750Y46911D01*
X72587Y46657D01*
X72399Y46415D01*
X72190Y46192D01*
X71961Y45990D01*
X71713Y45810D01*
X71602Y45744D01*
X71446Y45651D01*
X71160Y45514D01*
X70855Y45399D01*
X70531Y45305D01*
X70188Y45233D01*
X71679Y42970D01*
X73691Y39917D01*
X71764Y39917D01*
X68559Y45040D01*
X64714Y45040D01*
X64714Y39917D01*
G37*
%LPC*%
G36*
X68752Y46363D02*
X69073Y46372D01*
X69375Y46401D01*
X69659Y46450D01*
X69924Y46517D01*
X70170Y46604D01*
X70398Y46710D01*
X70607Y46836D01*
X70797Y46980D01*
X70966Y47142D01*
X71113Y47320D01*
X71237Y47513D01*
X71339Y47722D01*
X71418Y47945D01*
X71474Y48185D01*
X71508Y48440D01*
X71519Y48710D01*
X71508Y48971D01*
X71473Y49217D01*
X71416Y49446D01*
X71336Y49659D01*
X71234Y49857D01*
X71108Y50038D01*
X70959Y50203D01*
X70788Y50352D01*
X70595Y50485D01*
X70382Y50600D01*
X70149Y50697D01*
X69896Y50776D01*
X69622Y50838D01*
X69329Y50882D01*
X69015Y50908D01*
X68681Y50917D01*
X64714Y50917D01*
X64714Y46363D01*
X68752Y46363D01*
G37*
%LPD*%
G36*
X83607Y39917D02*
X75873Y39917D01*
X75873Y41257D01*
X79018Y41257D01*
X79018Y50751D01*
X76232Y48763D01*
X76232Y50252D01*
X79149Y52257D01*
X80603Y52257D01*
X80603Y41257D01*
X83607Y41257D01*
X83607Y39917D01*
G37*
G36*
X41500Y110137D02*
X39827Y110137D01*
X39827Y122478D01*
X45634Y122478D01*
X46140Y122463D01*
X46617Y122419D01*
X47064Y122346D01*
X47481Y122244D01*
X47868Y122113D01*
X48226Y121953D01*
X48554Y121763D01*
X48853Y121545D01*
X49118Y121300D01*
X49349Y121033D01*
X49544Y120742D01*
X49703Y120429D01*
X49827Y120093D01*
X49916Y119734D01*
X49969Y119352D01*
X49987Y118948D01*
X49974Y118611D01*
X49937Y118288D01*
X49874Y117978D01*
X49786Y117682D01*
X49674Y117400D01*
X49536Y117132D01*
X49373Y116877D01*
X49185Y116636D01*
X48976Y116412D01*
X48747Y116210D01*
X48499Y116030D01*
X48388Y115964D01*
X48232Y115871D01*
X47946Y115734D01*
X47641Y115619D01*
X47317Y115525D01*
X46974Y115453D01*
X48465Y113190D01*
X50477Y110137D01*
X48550Y110137D01*
X45345Y115260D01*
X41500Y115260D01*
X41500Y110137D01*
G37*
%LPC*%
G36*
X45537Y116583D02*
X45859Y116593D01*
X46161Y116622D01*
X46445Y116670D01*
X46710Y116737D01*
X46956Y116824D01*
X47184Y116930D01*
X47393Y117056D01*
X47583Y117201D01*
X47752Y117363D01*
X47899Y117540D01*
X48023Y117733D01*
X48125Y117942D01*
X48204Y118166D01*
X48260Y118405D01*
X48294Y118660D01*
X48305Y118930D01*
X48294Y119192D01*
X48259Y119437D01*
X48202Y119666D01*
X48122Y119880D01*
X48019Y120077D01*
X47894Y120258D01*
X47745Y120423D01*
X47574Y120573D01*
X47381Y120705D01*
X47168Y120820D01*
X46935Y120917D01*
X46682Y120996D01*
X46408Y121058D01*
X46115Y121102D01*
X45801Y121129D01*
X45467Y121137D01*
X41500Y121137D01*
X41500Y116583D01*
X45537Y116583D01*
G37*
%LPD*%
G36*
X60367Y110137D02*
X52195Y110137D01*
X52195Y111249D01*
X52431Y111746D01*
X52691Y112214D01*
X52976Y112651D01*
X53286Y113058D01*
X53612Y113440D01*
X53946Y113804D01*
X54288Y114150D01*
X54639Y114477D01*
X55345Y115089D01*
X56044Y115655D01*
X56707Y116198D01*
X57301Y116741D01*
X57568Y117015D01*
X57808Y117297D01*
X58021Y117585D01*
X58208Y117879D01*
X58359Y118187D01*
X58467Y118514D01*
X58532Y118861D01*
X58554Y119228D01*
X58544Y119475D01*
X58517Y119708D01*
X58470Y119926D01*
X58405Y120130D01*
X58321Y120320D01*
X58219Y120496D01*
X58098Y120657D01*
X57958Y120805D01*
X57802Y120936D01*
X57631Y121050D01*
X57446Y121146D01*
X57247Y121225D01*
X57032Y121286D01*
X56804Y121330D01*
X56561Y121356D01*
X56303Y121365D01*
X56057Y121357D01*
X55821Y121331D01*
X55597Y121288D01*
X55384Y121228D01*
X55182Y121151D01*
X54992Y121057D01*
X54812Y120946D01*
X54643Y120818D01*
X54488Y120674D01*
X54351Y120516D01*
X54229Y120345D01*
X54125Y120160D01*
X54038Y119961D01*
X53967Y119748D01*
X53914Y119521D01*
X53877Y119281D01*
X52265Y119430D01*
X52323Y119790D01*
X52409Y120132D01*
X52524Y120455D01*
X52667Y120759D01*
X52838Y121044D01*
X53038Y121310D01*
X53266Y121557D01*
X53522Y121786D01*
X53802Y121991D01*
X54101Y122169D01*
X54420Y122319D01*
X54758Y122443D01*
X55115Y122538D01*
X55492Y122607D01*
X55888Y122648D01*
X56303Y122661D01*
X56756Y122648D01*
X57182Y122606D01*
X57581Y122538D01*
X57953Y122441D01*
X58298Y122318D01*
X58616Y122166D01*
X58907Y121988D01*
X59171Y121781D01*
X59406Y121550D01*
X59610Y121295D01*
X59782Y121017D01*
X59923Y120716D01*
X60033Y120392D01*
X60111Y120045D01*
X60158Y119674D01*
X60174Y119281D01*
X60154Y118922D01*
X60092Y118565D01*
X59989Y118208D01*
X59846Y117853D01*
X59661Y117498D01*
X59437Y117144D01*
X59173Y116789D01*
X58869Y116434D01*
X58471Y116031D01*
X57925Y115530D01*
X57232Y114932D01*
X56390Y114236D01*
X55913Y113834D01*
X55486Y113453D01*
X55111Y113092D01*
X54788Y112751D01*
X54511Y112424D01*
X54275Y112102D01*
X54081Y111786D01*
X53929Y111477D01*
X60367Y111477D01*
X60367Y110137D01*
G37*
G36*
X38030Y52788D02*
X36944Y52788D01*
X36944Y54207D01*
X36490Y54238D01*
X36060Y54291D01*
X35654Y54366D01*
X35273Y54463D01*
X34917Y54582D01*
X34584Y54723D01*
X34276Y54887D01*
X33992Y55072D01*
X33733Y55280D01*
X33498Y55509D01*
X33287Y55761D01*
X33101Y56035D01*
X32939Y56331D01*
X32802Y56649D01*
X32689Y56989D01*
X32600Y57351D01*
X34089Y57676D01*
X34151Y57423D01*
X34228Y57187D01*
X34320Y56967D01*
X34427Y56762D01*
X34549Y56575D01*
X34686Y56403D01*
X34837Y56247D01*
X35004Y56108D01*
X35187Y55983D01*
X35386Y55873D01*
X35603Y55776D01*
X35837Y55694D01*
X36088Y55625D01*
X36356Y55571D01*
X36608Y55535D01*
X36642Y55530D01*
X36944Y55503D01*
X36944Y59848D01*
X36229Y60035D01*
X35634Y60213D01*
X35405Y60294D01*
X35158Y60381D01*
X34803Y60540D01*
X34521Y60699D01*
X34268Y60869D01*
X34044Y61051D01*
X33848Y61245D01*
X33679Y61447D01*
X33535Y61657D01*
X33416Y61874D01*
X33322Y62099D01*
X33252Y62338D01*
X33201Y62600D01*
X33170Y62885D01*
X33160Y63193D01*
X33176Y63524D01*
X33222Y63835D01*
X33299Y64128D01*
X33407Y64403D01*
X33545Y64659D01*
X33715Y64897D01*
X33915Y65117D01*
X34146Y65317D01*
X34405Y65498D01*
X34690Y65658D01*
X35001Y65795D01*
X35338Y65912D01*
X35701Y66007D01*
X36089Y66080D01*
X36504Y66132D01*
X36944Y66163D01*
X36944Y67310D01*
X38030Y67310D01*
X38030Y66163D01*
X38428Y66134D01*
X38803Y66087D01*
X39154Y66022D01*
X39482Y65938D01*
X39787Y65837D01*
X40068Y65717D01*
X40326Y65579D01*
X40561Y65422D01*
X40776Y65246D01*
X40975Y65046D01*
X41157Y64822D01*
X41323Y64576D01*
X41473Y64307D01*
X41606Y64014D01*
X41722Y63699D01*
X41823Y63360D01*
X40299Y63071D01*
X40189Y63460D01*
X40034Y63803D01*
X39834Y64101D01*
X39589Y64354D01*
X39448Y64463D01*
X39291Y64561D01*
X39119Y64648D01*
X38932Y64723D01*
X38730Y64787D01*
X38512Y64839D01*
X38279Y64880D01*
X38030Y64910D01*
X38030Y61013D01*
X38757Y60832D01*
X39371Y60660D01*
X39872Y60495D01*
X40259Y60338D01*
X40573Y60180D01*
X40851Y60012D01*
X41096Y59834D01*
X41306Y59646D01*
X41487Y59445D01*
X41645Y59226D01*
X41780Y58989D01*
X41893Y58735D01*
X41981Y58461D01*
X42044Y58164D01*
X42081Y57844D01*
X42094Y57500D01*
X42078Y57148D01*
X42028Y56813D01*
X41945Y56497D01*
X41829Y56198D01*
X41680Y55916D01*
X41498Y55653D01*
X41283Y55407D01*
X41034Y55179D01*
X40756Y54973D01*
X40449Y54790D01*
X40115Y54632D01*
X39753Y54498D01*
X39364Y54389D01*
X38947Y54304D01*
X38502Y54243D01*
X38030Y54207D01*
X38030Y52788D01*
G37*
%LPC*%
G36*
X38030Y55495D02*
X38330Y55521D01*
X38420Y55534D01*
X38612Y55561D01*
X38876Y55614D01*
X39122Y55681D01*
X39350Y55761D01*
X39560Y55854D01*
X39752Y55961D01*
X39926Y56081D01*
X40081Y56215D01*
X40216Y56360D01*
X40329Y56517D01*
X40422Y56686D01*
X40495Y56867D01*
X40546Y57060D01*
X40577Y57266D01*
X40588Y57483D01*
X40573Y57755D01*
X40531Y58002D01*
X40460Y58224D01*
X40360Y58420D01*
X40233Y58596D01*
X40082Y58756D01*
X39905Y58900D01*
X39703Y59029D01*
X39437Y59154D01*
X39070Y59290D01*
X38601Y59437D01*
X38030Y59594D01*
X38030Y55495D01*
G37*
G36*
X36944Y61240D02*
X36944Y64928D01*
X36668Y64907D01*
X36410Y64874D01*
X36170Y64830D01*
X35948Y64774D01*
X35743Y64707D01*
X35556Y64629D01*
X35387Y64539D01*
X35236Y64437D01*
X35103Y64324D01*
X34987Y64200D01*
X34889Y64064D01*
X34809Y63916D01*
X34747Y63757D01*
X34702Y63586D01*
X34676Y63404D01*
X34667Y63211D01*
X34681Y62962D01*
X34722Y62734D01*
X34790Y62525D01*
X34886Y62335D01*
X34890Y62330D01*
X35009Y62163D01*
X35158Y62004D01*
X35335Y61860D01*
X35538Y61731D01*
X35789Y61608D01*
X36107Y61486D01*
X36492Y61363D01*
X36944Y61240D01*
G37*
%LPD*%
G36*
X25872Y53857D02*
X25499Y53865D01*
X25139Y53891D01*
X24790Y53934D01*
X24453Y53995D01*
X24129Y54072D01*
X23816Y54167D01*
X23516Y54279D01*
X23227Y54409D01*
X22953Y54554D01*
X22694Y54716D01*
X22451Y54893D01*
X22224Y55085D01*
X22013Y55293D01*
X21818Y55517D01*
X21639Y55756D01*
X21475Y56011D01*
X21330Y56280D01*
X21203Y56562D01*
X21096Y56856D01*
X21009Y57163D01*
X20941Y57483D01*
X20892Y57815D01*
X20863Y58159D01*
X20853Y58516D01*
X20853Y66373D01*
X22526Y66373D01*
X22526Y58657D01*
X22540Y58247D01*
X22580Y57862D01*
X22647Y57503D01*
X22741Y57170D01*
X22862Y56862D01*
X23009Y56579D01*
X23184Y56322D01*
X23385Y56090D01*
X23611Y55885D01*
X23861Y55707D01*
X24136Y55557D01*
X24434Y55433D01*
X24755Y55338D01*
X25101Y55269D01*
X25470Y55228D01*
X25863Y55214D01*
X26268Y55229D01*
X26649Y55271D01*
X27007Y55342D01*
X27342Y55441D01*
X27654Y55569D01*
X27943Y55724D01*
X28209Y55908D01*
X28452Y56121D01*
X28668Y56361D01*
X28856Y56626D01*
X29015Y56918D01*
X29145Y57237D01*
X29246Y57581D01*
X29318Y57951D01*
X29361Y58348D01*
X29376Y58770D01*
X29376Y66373D01*
X31040Y66373D01*
X31040Y58674D01*
X31030Y58306D01*
X31000Y57951D01*
X30950Y57609D01*
X30881Y57279D01*
X30792Y56963D01*
X30682Y56659D01*
X30553Y56368D01*
X30405Y56090D01*
X30238Y55827D01*
X30054Y55579D01*
X29855Y55348D01*
X29638Y55132D01*
X29406Y54933D01*
X29157Y54749D01*
X28891Y54582D01*
X28609Y54431D01*
X28313Y54296D01*
X28003Y54180D01*
X27680Y54081D01*
X27345Y54000D01*
X26996Y53938D01*
X26634Y53893D01*
X26260Y53866D01*
X25872Y53857D01*
G37*
G36*
X51476Y54032D02*
X43742Y54032D01*
X43742Y55372D01*
X46887Y55372D01*
X46887Y64866D01*
X44101Y62878D01*
X44101Y64367D01*
X47018Y66373D01*
X48472Y66373D01*
X48472Y55372D01*
X51476Y55372D01*
X51476Y54032D01*
G37*
G36*
X130793Y46658D02*
X130468Y48147D01*
X130721Y48209D01*
X130957Y48286D01*
X131178Y48378D01*
X131382Y48485D01*
X131569Y48607D01*
X131741Y48744D01*
X131897Y48896D01*
X132036Y49062D01*
X132161Y49245D01*
X132271Y49445D01*
X132368Y49662D01*
X132450Y49896D01*
X132519Y50147D01*
X132573Y50415D01*
X132609Y50667D01*
X132614Y50700D01*
X132641Y51002D01*
X128296Y51002D01*
X128109Y50287D01*
X127931Y49692D01*
X127850Y49463D01*
X127763Y49217D01*
X127604Y48861D01*
X127445Y48580D01*
X127275Y48327D01*
X127093Y48102D01*
X126899Y47906D01*
X126697Y47737D01*
X126487Y47593D01*
X126270Y47474D01*
X126045Y47381D01*
X125806Y47310D01*
X125544Y47259D01*
X125259Y47229D01*
X124951Y47219D01*
X124620Y47234D01*
X124309Y47280D01*
X124016Y47357D01*
X123741Y47465D01*
X123485Y47604D01*
X123247Y47773D01*
X123027Y47973D01*
X122827Y48204D01*
X122646Y48463D01*
X122486Y48748D01*
X122349Y49059D01*
X122232Y49396D01*
X122137Y49759D01*
X122064Y50148D01*
X122012Y50562D01*
X121981Y51002D01*
X120834Y51002D01*
X120834Y52088D01*
X121981Y52088D01*
X122010Y52486D01*
X122057Y52861D01*
X122122Y53212D01*
X122206Y53540D01*
X122307Y53845D01*
X122427Y54126D01*
X122565Y54385D01*
X122722Y54620D01*
X122898Y54835D01*
X123098Y55034D01*
X123322Y55216D01*
X123568Y55382D01*
X123837Y55531D01*
X124130Y55664D01*
X124445Y55781D01*
X124784Y55881D01*
X125073Y54357D01*
X124684Y54247D01*
X124341Y54092D01*
X124043Y53892D01*
X123790Y53648D01*
X123681Y53506D01*
X123583Y53350D01*
X123496Y53178D01*
X123421Y52991D01*
X123357Y52788D01*
X123305Y52570D01*
X123264Y52337D01*
X123234Y52088D01*
X127131Y52088D01*
X127312Y52816D01*
X127484Y53430D01*
X127649Y53930D01*
X127806Y54318D01*
X127964Y54631D01*
X128132Y54910D01*
X128310Y55154D01*
X128498Y55364D01*
X128699Y55545D01*
X128918Y55704D01*
X129155Y55839D01*
X129409Y55951D01*
X129683Y56039D01*
X129980Y56102D01*
X130300Y56140D01*
X130644Y56152D01*
X130996Y56136D01*
X131331Y56086D01*
X131647Y56003D01*
X131946Y55888D01*
X132228Y55738D01*
X132491Y55556D01*
X132737Y55341D01*
X132965Y55093D01*
X133171Y54814D01*
X133354Y54507D01*
X133512Y54173D01*
X133646Y53812D01*
X133755Y53422D01*
X133840Y53005D01*
X133901Y52561D01*
X133937Y52088D01*
X135356Y52088D01*
X135356Y51002D01*
X133937Y51002D01*
X133906Y50548D01*
X133853Y50118D01*
X133778Y49713D01*
X133681Y49332D01*
X133562Y48975D01*
X133421Y48643D01*
X133257Y48334D01*
X133072Y48051D01*
X132864Y47791D01*
X132635Y47556D01*
X132383Y47346D01*
X132109Y47160D01*
X131813Y46998D01*
X131495Y46860D01*
X131155Y46747D01*
X130793Y46658D01*
G37*
%LPC*%
G36*
X132649Y52088D02*
X132623Y52388D01*
X132610Y52478D01*
X132583Y52670D01*
X132530Y52934D01*
X132463Y53180D01*
X132383Y53408D01*
X132290Y53618D01*
X132183Y53810D01*
X132063Y53985D01*
X131930Y54140D01*
X131784Y54274D01*
X131627Y54388D01*
X131458Y54481D01*
X131277Y54553D01*
X131084Y54605D01*
X130878Y54636D01*
X130661Y54646D01*
X130389Y54632D01*
X130142Y54589D01*
X129921Y54518D01*
X129724Y54418D01*
X129548Y54292D01*
X129388Y54140D01*
X129244Y53963D01*
X129115Y53761D01*
X128990Y53496D01*
X128854Y53129D01*
X128707Y52659D01*
X128550Y52088D01*
X132649Y52088D01*
G37*
G36*
X124933Y48725D02*
X125182Y48739D01*
X125410Y48780D01*
X125620Y48848D01*
X125809Y48944D01*
X125814Y48948D01*
X125981Y49067D01*
X126140Y49217D01*
X126284Y49393D01*
X126413Y49597D01*
X126536Y49847D01*
X126659Y50165D01*
X126781Y50550D01*
X126904Y51002D01*
X123216Y51002D01*
X123237Y50727D01*
X123270Y50469D01*
X123314Y50229D01*
X123370Y50006D01*
X123437Y49802D01*
X123515Y49615D01*
X123605Y49446D01*
X123707Y49295D01*
X123820Y49161D01*
X123944Y49045D01*
X124080Y48948D01*
X124228Y48868D01*
X124387Y48805D01*
X124558Y48761D01*
X124740Y48734D01*
X124933Y48725D01*
G37*
%LPD*%
G36*
X129628Y34912D02*
X121771Y34912D01*
X121771Y36585D01*
X129488Y36585D01*
X129897Y36598D01*
X130282Y36638D01*
X130641Y36705D01*
X130974Y36799D01*
X131282Y36920D01*
X131565Y37068D01*
X131822Y37242D01*
X132054Y37443D01*
X132259Y37670D01*
X132437Y37920D01*
X132587Y38194D01*
X132711Y38492D01*
X132806Y38814D01*
X132875Y39159D01*
X132916Y39529D01*
X132930Y39922D01*
X132915Y40326D01*
X132873Y40708D01*
X132802Y41066D01*
X132703Y41401D01*
X132576Y41713D01*
X132420Y42002D01*
X132236Y42267D01*
X132023Y42510D01*
X131783Y42726D01*
X131518Y42914D01*
X131226Y43073D01*
X130907Y43203D01*
X130563Y43304D01*
X130193Y43376D01*
X129796Y43419D01*
X129374Y43434D01*
X121771Y43434D01*
X121771Y45098D01*
X129470Y45098D01*
X129838Y45088D01*
X130193Y45058D01*
X130535Y45009D01*
X130865Y44939D01*
X131181Y44850D01*
X131485Y44741D01*
X131776Y44612D01*
X132054Y44463D01*
X132317Y44296D01*
X132565Y44113D01*
X132796Y43913D01*
X133012Y43697D01*
X133211Y43464D01*
X133395Y43215D01*
X133562Y42949D01*
X133714Y42668D01*
X133848Y42371D01*
X133965Y42061D01*
X134063Y41739D01*
X134144Y41403D01*
X134206Y41054D01*
X134251Y40693D01*
X134278Y40318D01*
X134287Y39930D01*
X134279Y39558D01*
X134253Y39197D01*
X134210Y38848D01*
X134149Y38512D01*
X134072Y38187D01*
X133977Y37874D01*
X133865Y37574D01*
X133735Y37285D01*
X133590Y37011D01*
X133428Y36752D01*
X133251Y36509D01*
X133059Y36283D01*
X132851Y36072D01*
X132627Y35876D01*
X132388Y35697D01*
X132133Y35534D01*
X131864Y35388D01*
X131582Y35262D01*
X131288Y35155D01*
X130981Y35067D01*
X130661Y34999D01*
X130329Y34951D01*
X129985Y34922D01*
X129628Y34912D01*
G37*
G36*
X134112Y57336D02*
X133000Y57336D01*
X132502Y57572D01*
X132035Y57832D01*
X131598Y58117D01*
X131191Y58427D01*
X130808Y58753D01*
X130444Y59087D01*
X130099Y59429D01*
X129772Y59780D01*
X129160Y60486D01*
X128594Y61186D01*
X128051Y61848D01*
X127508Y62443D01*
X127233Y62709D01*
X126952Y62950D01*
X126664Y63163D01*
X126369Y63349D01*
X126062Y63500D01*
X125734Y63609D01*
X125387Y63673D01*
X125021Y63695D01*
X124774Y63686D01*
X124541Y63658D01*
X124323Y63611D01*
X124119Y63546D01*
X123929Y63462D01*
X123753Y63360D01*
X123591Y63239D01*
X123444Y63100D01*
X123313Y62943D01*
X123199Y62773D01*
X123103Y62588D01*
X123024Y62388D01*
X122962Y62174D01*
X122919Y61945D01*
X122892Y61702D01*
X122884Y61444D01*
X122892Y61198D01*
X122918Y60963D01*
X122961Y60739D01*
X123020Y60526D01*
X123097Y60324D01*
X123191Y60133D01*
X123303Y59953D01*
X123431Y59784D01*
X123575Y59630D01*
X123732Y59492D01*
X123904Y59371D01*
X124089Y59267D01*
X124288Y59179D01*
X124501Y59109D01*
X124728Y59055D01*
X124968Y59018D01*
X124819Y57406D01*
X124459Y57464D01*
X124117Y57551D01*
X123794Y57665D01*
X123490Y57808D01*
X123205Y57980D01*
X122939Y58179D01*
X122692Y58407D01*
X122463Y58663D01*
X122258Y58943D01*
X122080Y59243D01*
X121929Y59561D01*
X121806Y59899D01*
X121710Y60257D01*
X121642Y60633D01*
X121601Y61029D01*
X121587Y61444D01*
X121601Y61897D01*
X121642Y62323D01*
X121711Y62722D01*
X121807Y63094D01*
X121931Y63439D01*
X122082Y63757D01*
X122261Y64048D01*
X122468Y64313D01*
X122699Y64548D01*
X122954Y64751D01*
X123232Y64924D01*
X123533Y65065D01*
X123857Y65174D01*
X124204Y65253D01*
X124575Y65300D01*
X124968Y65315D01*
X125327Y65295D01*
X125684Y65233D01*
X126040Y65131D01*
X126396Y64987D01*
X126750Y64803D01*
X127105Y64579D01*
X127460Y64314D01*
X127815Y64010D01*
X128218Y63612D01*
X128719Y63067D01*
X129317Y62373D01*
X130013Y61532D01*
X130415Y61054D01*
X130796Y60627D01*
X131157Y60252D01*
X131498Y59929D01*
X131825Y59652D01*
X132147Y59417D01*
X132462Y59223D01*
X132772Y59071D01*
X132772Y65508D01*
X134112Y65508D01*
X134112Y57336D01*
G37*
G36*
X38030Y151629D02*
X36944Y151629D01*
X36944Y153048D01*
X36490Y153079D01*
X36060Y153132D01*
X35654Y153206D01*
X35273Y153304D01*
X34917Y153423D01*
X34584Y153564D01*
X34276Y153727D01*
X33992Y153913D01*
X33733Y154120D01*
X33498Y154350D01*
X33287Y154602D01*
X33101Y154876D01*
X32939Y155172D01*
X32802Y155490D01*
X32689Y155830D01*
X32600Y156192D01*
X34089Y156516D01*
X34151Y156264D01*
X34228Y156027D01*
X34320Y155807D01*
X34427Y155603D01*
X34549Y155415D01*
X34686Y155244D01*
X34837Y155088D01*
X35004Y154949D01*
X35187Y154824D01*
X35386Y154714D01*
X35603Y154617D01*
X35837Y154535D01*
X36088Y154466D01*
X36356Y154412D01*
X36608Y154376D01*
X36642Y154371D01*
X36944Y154344D01*
X36944Y158688D01*
X36229Y158876D01*
X35634Y159054D01*
X35405Y159135D01*
X35158Y159222D01*
X34803Y159380D01*
X34521Y159539D01*
X34268Y159710D01*
X34044Y159892D01*
X33848Y160085D01*
X33679Y160288D01*
X33535Y160498D01*
X33416Y160715D01*
X33322Y160939D01*
X33252Y161179D01*
X33201Y161441D01*
X33170Y161726D01*
X33160Y162034D01*
X33176Y162364D01*
X33222Y162676D01*
X33299Y162969D01*
X33407Y163244D01*
X33545Y163500D01*
X33715Y163738D01*
X33915Y163957D01*
X34146Y164158D01*
X34405Y164339D01*
X34690Y164498D01*
X35001Y164636D01*
X35338Y164753D01*
X35701Y164848D01*
X36089Y164921D01*
X36504Y164973D01*
X36944Y165003D01*
X36944Y166151D01*
X38030Y166151D01*
X38030Y165003D01*
X38428Y164975D01*
X38803Y164928D01*
X39154Y164862D01*
X39482Y164779D01*
X39787Y164677D01*
X40068Y164557D01*
X40326Y164419D01*
X40561Y164263D01*
X40776Y164086D01*
X40975Y163886D01*
X41157Y163663D01*
X41323Y163417D01*
X41473Y163148D01*
X41606Y162855D01*
X41722Y162539D01*
X41823Y162201D01*
X40299Y161912D01*
X40189Y162301D01*
X40034Y162644D01*
X39834Y162942D01*
X39589Y163195D01*
X39448Y163304D01*
X39291Y163402D01*
X39119Y163488D01*
X38932Y163564D01*
X38730Y163627D01*
X38512Y163680D01*
X38279Y163721D01*
X38030Y163751D01*
X38030Y159853D01*
X38757Y159673D01*
X39371Y159501D01*
X39872Y159336D01*
X40259Y159179D01*
X40573Y159021D01*
X40851Y158853D01*
X41096Y158675D01*
X41306Y158487D01*
X41487Y158286D01*
X41645Y158067D01*
X41780Y157830D01*
X41893Y157576D01*
X41981Y157302D01*
X42044Y157005D01*
X42081Y156684D01*
X42094Y156341D01*
X42078Y155989D01*
X42028Y155654D01*
X41945Y155337D01*
X41829Y155038D01*
X41680Y154757D01*
X41498Y154494D01*
X41283Y154248D01*
X41034Y154020D01*
X40756Y153813D01*
X40449Y153631D01*
X40115Y153473D01*
X39753Y153339D01*
X39364Y153230D01*
X38947Y153145D01*
X38502Y153084D01*
X38030Y153048D01*
X38030Y151629D01*
G37*
%LPC*%
G36*
X38030Y154335D02*
X38330Y154362D01*
X38420Y154375D01*
X38612Y154402D01*
X38876Y154455D01*
X39122Y154522D01*
X39350Y154602D01*
X39560Y154695D01*
X39752Y154802D01*
X39926Y154922D01*
X40081Y155055D01*
X40216Y155200D01*
X40329Y155357D01*
X40422Y155527D01*
X40495Y155708D01*
X40546Y155901D01*
X40577Y156106D01*
X40588Y156324D01*
X40573Y156596D01*
X40531Y156843D01*
X40460Y157064D01*
X40360Y157261D01*
X40233Y157437D01*
X40082Y157597D01*
X39905Y157741D01*
X39703Y157869D01*
X39437Y157995D01*
X39070Y158131D01*
X38601Y158278D01*
X38030Y158434D01*
X38030Y154335D01*
G37*
G36*
X36944Y160081D02*
X36944Y163768D01*
X36668Y163747D01*
X36410Y163715D01*
X36170Y163671D01*
X35948Y163615D01*
X35743Y163548D01*
X35556Y163469D01*
X35387Y163379D01*
X35236Y163278D01*
X35103Y163165D01*
X34987Y163040D01*
X34889Y162904D01*
X34809Y162757D01*
X34747Y162598D01*
X34702Y162427D01*
X34676Y162245D01*
X34667Y162052D01*
X34681Y161803D01*
X34722Y161574D01*
X34790Y161365D01*
X34886Y161176D01*
X34890Y161170D01*
X35009Y161003D01*
X35158Y160845D01*
X35335Y160701D01*
X35538Y160572D01*
X35789Y160449D01*
X36107Y160326D01*
X36492Y160204D01*
X36944Y160081D01*
G37*
%LPD*%
G36*
X50092Y152873D02*
X48603Y152873D01*
X48603Y155667D01*
X42788Y155667D01*
X42788Y156893D01*
X48437Y165214D01*
X50092Y165214D01*
X50092Y156910D01*
X51826Y156910D01*
X51826Y155667D01*
X50092Y155667D01*
X50092Y152873D01*
G37*
%LPC*%
G36*
X48603Y156910D02*
X48603Y163436D01*
X48358Y162971D01*
X48016Y162393D01*
X44855Y157734D01*
X44382Y157086D01*
X44241Y156910D01*
X48603Y156910D01*
G37*
%LPD*%
G36*
X25872Y152698D02*
X25499Y152706D01*
X25139Y152732D01*
X24790Y152775D01*
X24453Y152836D01*
X24129Y152913D01*
X23816Y153008D01*
X23516Y153120D01*
X23227Y153249D01*
X22953Y153395D01*
X22694Y153556D01*
X22451Y153733D01*
X22224Y153926D01*
X22013Y154134D01*
X21818Y154358D01*
X21639Y154597D01*
X21475Y154852D01*
X21330Y155121D01*
X21203Y155403D01*
X21096Y155697D01*
X21009Y156004D01*
X20941Y156323D01*
X20892Y156655D01*
X20863Y157000D01*
X20853Y157357D01*
X20853Y165214D01*
X22526Y165214D01*
X22526Y157497D01*
X22540Y157087D01*
X22580Y156703D01*
X22647Y156344D01*
X22741Y156010D01*
X22862Y155702D01*
X23009Y155420D01*
X23184Y155163D01*
X23385Y154931D01*
X23611Y154726D01*
X23861Y154548D01*
X24136Y154397D01*
X24434Y154274D01*
X24755Y154178D01*
X25101Y154110D01*
X25470Y154069D01*
X25863Y154055D01*
X26268Y154069D01*
X26649Y154112D01*
X27007Y154183D01*
X27342Y154282D01*
X27654Y154409D01*
X27943Y154565D01*
X28209Y154749D01*
X28452Y154962D01*
X28668Y155201D01*
X28856Y155467D01*
X29015Y155759D01*
X29145Y156077D01*
X29246Y156422D01*
X29318Y156792D01*
X29361Y157188D01*
X29376Y157611D01*
X29376Y165214D01*
X31040Y165214D01*
X31040Y157515D01*
X31030Y157147D01*
X31000Y156792D01*
X30950Y156449D01*
X30881Y156120D01*
X30792Y155803D01*
X30682Y155500D01*
X30553Y155209D01*
X30405Y154931D01*
X30238Y154667D01*
X30054Y154420D01*
X29855Y154189D01*
X29638Y153973D01*
X29406Y153774D01*
X29157Y153590D01*
X28891Y153423D01*
X28609Y153271D01*
X28313Y153137D01*
X28003Y153020D01*
X27680Y152922D01*
X27345Y152841D01*
X26996Y152778D01*
X26634Y152733D01*
X26260Y152707D01*
X25872Y152698D01*
G37*
G36*
X100285Y42356D02*
X87944Y42356D01*
X87944Y48163D01*
X87959Y48669D01*
X88003Y49146D01*
X88075Y49593D01*
X88177Y50010D01*
X88309Y50398D01*
X88469Y50755D01*
X88658Y51084D01*
X88877Y51382D01*
X89122Y51648D01*
X89389Y51878D01*
X89679Y52073D01*
X89993Y52233D01*
X90329Y52357D01*
X90688Y52445D01*
X91069Y52498D01*
X91474Y52516D01*
X91811Y52504D01*
X92134Y52466D01*
X92444Y52403D01*
X92740Y52316D01*
X93022Y52203D01*
X93290Y52065D01*
X93545Y51903D01*
X93786Y51715D01*
X94010Y51505D01*
X94211Y51276D01*
X94392Y51028D01*
X94458Y50917D01*
X94550Y50761D01*
X94687Y50475D01*
X94803Y50170D01*
X94896Y49846D01*
X94969Y49503D01*
X97232Y50995D01*
X100285Y53007D01*
X100285Y51080D01*
X95161Y47874D01*
X95161Y44029D01*
X100285Y44029D01*
X100285Y42356D01*
G37*
%LPC*%
G36*
X93839Y44029D02*
X93839Y48067D01*
X93829Y48388D01*
X93800Y48691D01*
X93752Y48974D01*
X93684Y49239D01*
X93598Y49486D01*
X93491Y49713D01*
X93366Y49922D01*
X93221Y50112D01*
X93059Y50281D01*
X92882Y50428D01*
X92689Y50552D01*
X92480Y50654D01*
X92256Y50733D01*
X92017Y50789D01*
X91762Y50823D01*
X91491Y50835D01*
X91230Y50823D01*
X90985Y50789D01*
X90755Y50732D01*
X90542Y50652D01*
X90345Y50549D01*
X90164Y50423D01*
X89998Y50275D01*
X89849Y50103D01*
X89717Y49910D01*
X89602Y49697D01*
X89505Y49464D01*
X89425Y49211D01*
X89364Y48938D01*
X89320Y48644D01*
X89293Y48330D01*
X89284Y47997D01*
X89284Y44029D01*
X93839Y44029D01*
G37*
%LPD*%
G36*
X97114Y54506D02*
X96966Y56135D01*
X97231Y56182D01*
X97479Y56246D01*
X97710Y56325D01*
X97923Y56421D01*
X98120Y56533D01*
X98300Y56661D01*
X98462Y56804D01*
X98608Y56964D01*
X98736Y57141D01*
X98847Y57333D01*
X98941Y57541D01*
X99018Y57765D01*
X99078Y58006D01*
X99121Y58262D01*
X99147Y58535D01*
X99155Y58823D01*
X99146Y59113D01*
X99118Y59387D01*
X99073Y59645D01*
X99008Y59887D01*
X98926Y60112D01*
X98825Y60322D01*
X98706Y60516D01*
X98568Y60693D01*
X98413Y60853D01*
X98239Y60990D01*
X98048Y61107D01*
X97839Y61203D01*
X97612Y61277D01*
X97368Y61330D01*
X97106Y61362D01*
X96825Y61372D01*
X96580Y61360D01*
X96349Y61324D01*
X96132Y61263D01*
X95929Y61178D01*
X95739Y61069D01*
X95563Y60936D01*
X95401Y60779D01*
X95253Y60597D01*
X95121Y60393D01*
X95006Y60167D01*
X94909Y59919D01*
X94830Y59650D01*
X94768Y59360D01*
X94724Y59048D01*
X94697Y58714D01*
X94688Y58359D01*
X94688Y57466D01*
X93322Y57466D01*
X93322Y58324D01*
X93313Y58639D01*
X93287Y58936D01*
X93243Y59215D01*
X93181Y59475D01*
X93101Y59717D01*
X93004Y59941D01*
X92889Y60147D01*
X92757Y60334D01*
X92609Y60502D01*
X92447Y60647D01*
X92272Y60769D01*
X92084Y60870D01*
X91882Y60948D01*
X91666Y61004D01*
X91436Y61037D01*
X91194Y61048D01*
X90953Y61039D01*
X90725Y61012D01*
X90510Y60966D01*
X90308Y60903D01*
X90119Y60821D01*
X89943Y60721D01*
X89780Y60602D01*
X89630Y60466D01*
X89496Y60311D01*
X89379Y60139D01*
X89281Y59949D01*
X89200Y59742D01*
X89137Y59517D01*
X89092Y59274D01*
X89066Y59014D01*
X89057Y58736D01*
X89065Y58482D01*
X89090Y58240D01*
X89132Y58010D01*
X89190Y57793D01*
X89265Y57589D01*
X89357Y57397D01*
X89466Y57217D01*
X89591Y57050D01*
X89731Y56897D01*
X89885Y56762D01*
X90053Y56643D01*
X90235Y56541D01*
X90430Y56456D01*
X90639Y56387D01*
X90861Y56336D01*
X91097Y56301D01*
X90975Y54716D01*
X90606Y54774D01*
X90259Y54860D01*
X89932Y54975D01*
X89626Y55118D01*
X89341Y55289D01*
X89076Y55488D01*
X88833Y55716D01*
X88610Y55973D01*
X88411Y56253D01*
X88238Y56552D01*
X88092Y56871D01*
X87973Y57209D01*
X87880Y57566D01*
X87813Y57942D01*
X87774Y58338D01*
X87760Y58753D01*
X87774Y59205D01*
X87814Y59630D01*
X87882Y60030D01*
X87976Y60403D01*
X88097Y60751D01*
X88246Y61073D01*
X88421Y61369D01*
X88623Y61639D01*
X88849Y61881D01*
X89097Y62090D01*
X89365Y62266D01*
X89655Y62411D01*
X89967Y62524D01*
X90299Y62604D01*
X90652Y62652D01*
X91027Y62668D01*
X91316Y62658D01*
X91591Y62627D01*
X91852Y62575D01*
X92099Y62503D01*
X92332Y62410D01*
X92552Y62297D01*
X92758Y62162D01*
X92950Y62007D01*
X93127Y61833D01*
X93290Y61639D01*
X93438Y61427D01*
X93570Y61196D01*
X93688Y60946D01*
X93791Y60678D01*
X93879Y60391D01*
X93953Y60085D01*
X93988Y60085D01*
X94035Y60421D01*
X94101Y60738D01*
X94188Y61036D01*
X94294Y61315D01*
X94420Y61575D01*
X94566Y61816D01*
X94731Y62037D01*
X94916Y62239D01*
X95117Y62420D01*
X95331Y62577D01*
X95557Y62709D01*
X95796Y62817D01*
X96048Y62902D01*
X96312Y62962D01*
X96589Y62998D01*
X96878Y63010D01*
X97293Y62993D01*
X97684Y62942D01*
X98050Y62857D01*
X98393Y62739D01*
X98712Y62586D01*
X99006Y62399D01*
X99277Y62179D01*
X99523Y61924D01*
X99743Y61638D01*
X99933Y61323D01*
X100094Y60979D01*
X100226Y60606D01*
X100328Y60204D01*
X100402Y59773D01*
X100445Y59313D01*
X100460Y58823D01*
X100447Y58367D01*
X100407Y57934D01*
X100341Y57524D01*
X100249Y57139D01*
X100130Y56777D01*
X99985Y56438D01*
X99813Y56123D01*
X99615Y55832D01*
X99391Y55567D01*
X99142Y55331D01*
X98867Y55122D01*
X98567Y54942D01*
X98242Y54791D01*
X97891Y54667D01*
X97516Y54572D01*
X97114Y54506D01*
G37*
G36*
X113963Y30002D02*
X113599Y30008D01*
X113245Y30027D01*
X112901Y30058D01*
X112567Y30102D01*
X112243Y30158D01*
X111929Y30226D01*
X111625Y30307D01*
X111331Y30401D01*
X111047Y30507D01*
X110773Y30625D01*
X110255Y30899D01*
X109777Y31223D01*
X109339Y31596D01*
X108946Y32014D01*
X108607Y32470D01*
X108456Y32712D01*
X108319Y32964D01*
X108195Y33226D01*
X108084Y33497D01*
X107986Y33778D01*
X107901Y34068D01*
X107829Y34368D01*
X107770Y34677D01*
X107724Y34996D01*
X107692Y35325D01*
X107672Y35663D01*
X107666Y36011D01*
X107678Y36493D01*
X107714Y36955D01*
X107774Y37397D01*
X107858Y37819D01*
X107967Y38221D01*
X108099Y38602D01*
X108256Y38963D01*
X108436Y39304D01*
X108641Y39623D01*
X108868Y39921D01*
X109119Y40197D01*
X109393Y40451D01*
X109691Y40683D01*
X110011Y40893D01*
X110355Y41082D01*
X110722Y41248D01*
X111248Y39663D01*
X110987Y39547D01*
X110741Y39416D01*
X110511Y39268D01*
X110298Y39103D01*
X110100Y38923D01*
X109918Y38726D01*
X109752Y38513D01*
X109601Y38283D01*
X109468Y38040D01*
X109352Y37786D01*
X109254Y37521D01*
X109174Y37244D01*
X109112Y36957D01*
X109068Y36658D01*
X109041Y36349D01*
X109032Y36028D01*
X109053Y35530D01*
X109114Y35060D01*
X109217Y34619D01*
X109362Y34206D01*
X109547Y33822D01*
X109773Y33466D01*
X110041Y33139D01*
X110350Y32840D01*
X110695Y32573D01*
X111070Y32342D01*
X111476Y32146D01*
X111912Y31986D01*
X112379Y31861D01*
X112877Y31772D01*
X113405Y31719D01*
X113963Y31701D01*
X114516Y31720D01*
X115042Y31776D01*
X115539Y31868D01*
X116009Y31998D01*
X116451Y32165D01*
X116866Y32369D01*
X117252Y32610D01*
X117611Y32888D01*
X117934Y33198D01*
X118215Y33534D01*
X118452Y33896D01*
X118646Y34284D01*
X118796Y34698D01*
X118904Y35139D01*
X118969Y35605D01*
X118990Y36098D01*
X118980Y36417D01*
X118950Y36726D01*
X118900Y37025D01*
X118830Y37314D01*
X118740Y37593D01*
X118630Y37861D01*
X118499Y38120D01*
X118349Y38369D01*
X118178Y38607D01*
X117988Y38836D01*
X117777Y39054D01*
X117547Y39263D01*
X117296Y39461D01*
X117026Y39649D01*
X116735Y39828D01*
X116424Y39996D01*
X117107Y41362D01*
X117494Y41162D01*
X117857Y40942D01*
X118196Y40704D01*
X118511Y40446D01*
X118802Y40168D01*
X119070Y39872D01*
X119314Y39556D01*
X119533Y39221D01*
X119728Y38869D01*
X119898Y38503D01*
X120041Y38124D01*
X120158Y37730D01*
X120249Y37323D01*
X120314Y36903D01*
X120353Y36468D01*
X120366Y36019D01*
X120353Y35561D01*
X120317Y35118D01*
X120257Y34691D01*
X120172Y34280D01*
X120063Y33884D01*
X119930Y33504D01*
X119772Y33140D01*
X119590Y32792D01*
X119386Y32461D01*
X119161Y32151D01*
X118915Y31861D01*
X118649Y31592D01*
X118361Y31343D01*
X118053Y31113D01*
X117724Y30905D01*
X117375Y30716D01*
X117006Y30549D01*
X116621Y30404D01*
X116219Y30281D01*
X115801Y30181D01*
X115367Y30103D01*
X114915Y30047D01*
X114447Y30013D01*
X113963Y30002D01*
G37*
G36*
X120190Y43395D02*
X118850Y43395D01*
X118850Y46539D01*
X109356Y46539D01*
X111344Y43754D01*
X109855Y43754D01*
X107850Y46671D01*
X107850Y48125D01*
X118850Y48125D01*
X118850Y51129D01*
X120190Y51129D01*
X120190Y43395D01*
G37*
G36*
X64627Y100513D02*
X64263Y100520D01*
X63909Y100538D01*
X63565Y100569D01*
X63231Y100613D01*
X62907Y100669D01*
X62593Y100738D01*
X62289Y100819D01*
X61995Y100912D01*
X61711Y101018D01*
X61437Y101136D01*
X60919Y101410D01*
X60441Y101734D01*
X60003Y102108D01*
X59611Y102525D01*
X59271Y102981D01*
X59121Y103224D01*
X58983Y103475D01*
X58859Y103737D01*
X58748Y104008D01*
X58650Y104289D01*
X58565Y104579D01*
X58493Y104879D01*
X58434Y105188D01*
X58389Y105507D01*
X58356Y105836D01*
X58336Y106174D01*
X58330Y106522D01*
X58342Y107004D01*
X58378Y107467D01*
X58438Y107909D01*
X58523Y108330D01*
X58631Y108732D01*
X58763Y109113D01*
X58920Y109474D01*
X59101Y109815D01*
X59305Y110135D01*
X59533Y110433D01*
X59783Y110708D01*
X60058Y110962D01*
X60355Y111194D01*
X60676Y111405D01*
X61019Y111593D01*
X61387Y111759D01*
X61912Y110174D01*
X61651Y110059D01*
X61405Y109927D01*
X61176Y109779D01*
X60962Y109615D01*
X60764Y109434D01*
X60582Y109237D01*
X60416Y109024D01*
X60266Y108795D01*
X60132Y108552D01*
X60017Y108297D01*
X59919Y108032D01*
X59839Y107756D01*
X59776Y107468D01*
X59732Y107170D01*
X59705Y106860D01*
X59696Y106539D01*
X59717Y106041D01*
X59779Y105572D01*
X59882Y105130D01*
X60026Y104718D01*
X60211Y104333D01*
X60438Y103977D01*
X60705Y103650D01*
X61014Y103351D01*
X61359Y103084D01*
X61735Y102853D01*
X62140Y102657D01*
X62577Y102497D01*
X63044Y102373D01*
X63541Y102284D01*
X64069Y102230D01*
X64627Y102213D01*
X65181Y102231D01*
X65706Y102287D01*
X66204Y102380D01*
X66674Y102509D01*
X67116Y102676D01*
X67530Y102880D01*
X67917Y103121D01*
X68275Y103399D01*
X68599Y103709D01*
X68879Y104045D01*
X69116Y104407D01*
X69310Y104795D01*
X69461Y105210D01*
X69569Y105650D01*
X69633Y106117D01*
X69655Y106609D01*
X69645Y106928D01*
X69615Y107237D01*
X69565Y107536D01*
X69494Y107825D01*
X69404Y108104D01*
X69294Y108373D01*
X69164Y108631D01*
X69013Y108880D01*
X68843Y109119D01*
X68652Y109347D01*
X68442Y109566D01*
X68211Y109774D01*
X67961Y109972D01*
X67690Y110161D01*
X67399Y110339D01*
X67088Y110507D01*
X67772Y111873D01*
X68158Y111673D01*
X68521Y111454D01*
X68860Y111215D01*
X69175Y110957D01*
X69467Y110680D01*
X69734Y110383D01*
X69978Y110067D01*
X70198Y109732D01*
X70393Y109380D01*
X70562Y109014D01*
X70705Y108635D01*
X70822Y108242D01*
X70913Y107835D01*
X70978Y107414D01*
X71017Y106979D01*
X71030Y106531D01*
X71018Y106072D01*
X70981Y105629D01*
X70921Y105202D01*
X70836Y104791D01*
X70727Y104395D01*
X70594Y104016D01*
X70436Y103651D01*
X70255Y103303D01*
X70051Y102973D01*
X69826Y102663D01*
X69580Y102373D01*
X69313Y102103D01*
X69026Y101854D01*
X68718Y101625D01*
X68389Y101416D01*
X68039Y101227D01*
X67670Y101060D01*
X67285Y100915D01*
X66884Y100792D01*
X66466Y100692D01*
X66031Y100614D01*
X65580Y100558D01*
X65112Y100525D01*
X64627Y100513D01*
G37*
G36*
X70855Y113442D02*
X69742Y113442D01*
X69245Y113678D01*
X68778Y113938D01*
X68341Y114223D01*
X67934Y114533D01*
X67551Y114859D01*
X67187Y115193D01*
X66842Y115535D01*
X66515Y115886D01*
X65903Y116592D01*
X65337Y117292D01*
X64794Y117954D01*
X64251Y118548D01*
X63976Y118815D01*
X63695Y119055D01*
X63407Y119269D01*
X63112Y119455D01*
X62804Y119606D01*
X62477Y119714D01*
X62130Y119779D01*
X61763Y119801D01*
X61516Y119792D01*
X61284Y119764D01*
X61065Y119717D01*
X60861Y119652D01*
X60671Y119568D01*
X60495Y119466D01*
X60334Y119345D01*
X60187Y119205D01*
X60055Y119049D01*
X59942Y118879D01*
X59845Y118693D01*
X59766Y118494D01*
X59705Y118280D01*
X59661Y118051D01*
X59635Y117808D01*
X59626Y117550D01*
X59635Y117304D01*
X59660Y117069D01*
X59703Y116844D01*
X59763Y116631D01*
X59840Y116429D01*
X59934Y116239D01*
X60045Y116059D01*
X60174Y115890D01*
X60317Y115735D01*
X60475Y115598D01*
X60646Y115477D01*
X60832Y115372D01*
X61031Y115285D01*
X61244Y115214D01*
X61470Y115161D01*
X61711Y115124D01*
X61562Y113512D01*
X61201Y113570D01*
X60860Y113657D01*
X60537Y113771D01*
X60233Y113914D01*
X59948Y114085D01*
X59681Y114285D01*
X59434Y114513D01*
X59206Y114769D01*
X59001Y115049D01*
X58823Y115349D01*
X58672Y115667D01*
X58549Y116005D01*
X58453Y116362D01*
X58385Y116739D01*
X58344Y117135D01*
X58330Y117550D01*
X58344Y118003D01*
X58385Y118429D01*
X58454Y118828D01*
X58550Y119200D01*
X58674Y119545D01*
X58825Y119863D01*
X59004Y120154D01*
X59210Y120418D01*
X59442Y120653D01*
X59697Y120857D01*
X59974Y121029D01*
X60275Y121171D01*
X60600Y121280D01*
X60947Y121359D01*
X61317Y121406D01*
X61711Y121421D01*
X62069Y121401D01*
X62427Y121339D01*
X62783Y121236D01*
X63138Y121093D01*
X63493Y120909D01*
X63848Y120684D01*
X64203Y120420D01*
X64557Y120116D01*
X64961Y119718D01*
X65462Y119172D01*
X66060Y118479D01*
X66756Y117638D01*
X67157Y117160D01*
X67538Y116733D01*
X67899Y116358D01*
X68240Y116035D01*
X68568Y115758D01*
X68889Y115522D01*
X69205Y115329D01*
X69515Y115176D01*
X69515Y121614D01*
X70855Y121614D01*
X70855Y113442D01*
G37*
G36*
X151160Y101963D02*
X138819Y101963D01*
X138819Y107770D01*
X138834Y108276D01*
X138878Y108753D01*
X138950Y109200D01*
X139053Y109617D01*
X139184Y110005D01*
X139344Y110362D01*
X139533Y110690D01*
X139752Y110989D01*
X139997Y111255D01*
X140264Y111485D01*
X140555Y111680D01*
X140868Y111840D01*
X141204Y111964D01*
X141563Y112052D01*
X141944Y112105D01*
X142349Y112123D01*
X142686Y112111D01*
X143009Y112073D01*
X143319Y112010D01*
X143615Y111923D01*
X143897Y111810D01*
X144165Y111672D01*
X144420Y111510D01*
X144661Y111322D01*
X144885Y111112D01*
X145087Y110883D01*
X145267Y110635D01*
X145333Y110524D01*
X145425Y110368D01*
X145562Y110082D01*
X145678Y109777D01*
X145772Y109453D01*
X145844Y109110D01*
X148107Y110602D01*
X151160Y112614D01*
X151160Y110687D01*
X146036Y107481D01*
X146036Y103636D01*
X151160Y103636D01*
X151160Y101963D01*
G37*
%LPC*%
G36*
X144714Y103636D02*
X144714Y107674D01*
X144704Y107995D01*
X144675Y108298D01*
X144627Y108581D01*
X144559Y108846D01*
X144473Y109093D01*
X144366Y109320D01*
X144241Y109529D01*
X144096Y109719D01*
X143934Y109888D01*
X143757Y110035D01*
X143564Y110159D01*
X143355Y110261D01*
X143131Y110340D01*
X142892Y110396D01*
X142637Y110430D01*
X142367Y110441D01*
X142105Y110430D01*
X141860Y110396D01*
X141631Y110339D01*
X141417Y110259D01*
X141220Y110156D01*
X141039Y110030D01*
X140874Y109882D01*
X140724Y109710D01*
X140592Y109517D01*
X140477Y109304D01*
X140380Y109071D01*
X140301Y108818D01*
X140239Y108545D01*
X140195Y108251D01*
X140168Y107937D01*
X140159Y107604D01*
X140159Y103636D01*
X144714Y103636D01*
G37*
%LPD*%
G36*
X148366Y113841D02*
X147140Y113841D01*
X138819Y119490D01*
X138819Y121146D01*
X147122Y121146D01*
X147122Y122880D01*
X148366Y122880D01*
X148366Y121146D01*
X151160Y121146D01*
X151160Y119657D01*
X148366Y119657D01*
X148366Y113841D01*
G37*
%LPC*%
G36*
X147122Y115295D02*
X147122Y119657D01*
X140597Y119657D01*
X141061Y119411D01*
X141640Y119070D01*
X146299Y115908D01*
X146947Y115435D01*
X147122Y115295D01*
G37*
%LPD*%
D10*
X35922Y31542D02*
X93160Y31542D01*
X93160Y130383D02*
X35922Y130383D01*
X73660Y129733D02*
X73660Y32192D01*
X70468Y57542D01*
X76852Y57542D01*
X73660Y32192D01*
X72360Y57542D01*
X74960Y57542D02*
X73660Y32192D01*
X71060Y57542D01*
X76260Y57542D02*
X73660Y32192D01*
X70468Y104383D02*
X73660Y129733D01*
X70468Y104383D02*
X76852Y104383D01*
X73660Y129733D01*
X72360Y104383D01*
X74960Y104383D02*
X73660Y129733D01*
X71060Y104383D01*
X76260Y104383D02*
X73660Y129733D01*
D11*
X67174Y78804D02*
X33174Y78804D01*
X33174Y54370D02*
X67174Y54370D01*
X66820Y105844D02*
X32820Y105844D01*
X32820Y81410D02*
X66820Y81410D01*
D12*
X54922Y47682D02*
X16922Y47682D01*
X16922Y15402D02*
X54922Y15402D01*
D13*
X139700Y91440D02*
X146050Y85090D01*
X139700Y91440D02*
X139700Y104140D01*
X146050Y110490D01*
X158750Y110490D01*
X165100Y104140D01*
X165100Y91440D01*
X158750Y85090D01*
X139700Y53340D02*
X139700Y40640D01*
X139700Y53340D02*
X146050Y59690D01*
X158750Y59690D01*
X165100Y53340D01*
X146050Y59690D02*
X139700Y66040D01*
X139700Y78740D01*
X146050Y85090D01*
X158750Y85090D01*
X165100Y78740D01*
X165100Y66040D01*
X158750Y59690D01*
X158750Y34290D02*
X146050Y34290D01*
X139700Y40640D01*
X158750Y34290D02*
X165100Y40640D01*
X165100Y53340D01*
X139700Y116840D02*
X139700Y129540D01*
X146050Y135890D01*
X158750Y135890D01*
X165100Y129540D01*
X146050Y110490D02*
X139700Y116840D01*
X158750Y110490D02*
X165100Y116840D01*
X165100Y129540D01*
D12*
X54922Y146523D02*
X16922Y146523D01*
X16922Y114243D02*
X54922Y114243D01*
D11*
X107118Y69349D02*
X107118Y35349D01*
X131552Y35349D02*
X131552Y69349D01*
X101140Y57556D02*
X101140Y23556D01*
X76706Y23556D02*
X76706Y57556D01*
X77205Y94067D02*
X77205Y128067D01*
X101639Y128067D02*
X101639Y94067D01*
X131627Y94956D02*
X131627Y128956D01*
X107193Y128956D02*
X107193Y94956D01*
M02*
