M48
;GenerationSoftware,Autodesk,EAGLE,9.7.0*%
;CreationDate,2026-04-27T23:12:19Z*%
FMAT,2
ICI,OFF
METRIC,TZ,000.000
T3C0.600
T2C1.016
T1C3.175
%
G90
M71
T1
X2489Y15329
X50749Y14059
X45669Y66129
X17729Y66129
T2
X38099Y47034
X50749Y45809
X35559Y47034
X33019Y47034
X30479Y47034
X27939Y47034
X25399Y47034
X22859Y47034
X20319Y47034
X17779Y47034
X4064Y5080
X6604Y5080
X9144Y5080
X11684Y5080
X14224Y5080
X16764Y5080
X19304Y5080
X21844Y5080
X27939Y66269
X27939Y63729
X25399Y66269
X25399Y63729
X22859Y66269
X22859Y63729
X2489Y18885
X2489Y21425
X2489Y23965
X2489Y26505
X2489Y29045
X2489Y31585
X2489Y34125
X2489Y36665
X2489Y39205
X2489Y41745
X2489Y45809
X2489Y48349
X2489Y50889
X2489Y53429
X2489Y55969
X2489Y58509
X2489Y61049
X2489Y63589
X50749Y63589
X50749Y61049
X50749Y58509
X50749Y55969
X50749Y53429
X50749Y28029
X50749Y30569
X50749Y33109
X50749Y35649
X50749Y38189
X50749Y40729
X50749Y43269
X50749Y50889
T3
X43180Y50038
X43942Y25146
X35560Y39624
X31496Y25400
X13462Y62738
X29464Y36830
X43942Y46736
X33274Y36576
X42672Y44450
X43180Y37592
X9144Y16256
X5842Y10160
X45212Y37338
X36322Y64770
X36576Y59436
X25908Y58420
X8128Y55880
X22098Y27178
X29464Y43434
X5334Y45720
X30988Y16256
X30988Y21844
X29337Y26289
X29464Y8382
X11176Y24172
X12192Y31242
X14732Y23622
X38608Y31242
X45720Y32258
X48006Y35306
X33782Y32258
X43434Y5588
X22352Y37846
X20066Y34290
X43434Y7366
X43942Y23114
X10922Y38354
X4826Y21336
X43942Y21082
X17272Y39116
X6096Y23368
X48006Y16002
X43180Y15494
X23368Y16256
X23622Y22860
X17780Y26670
X18034Y30988
M30